<svg xmlns="http://www.w3.org/2000/svg" viewBox="0 0 330.7 481.05"><defs><style>.cls-1{fill:#3f9fba;}.cls-2{fill:#ffd6cf;}.cls-3{fill:#87e5fe;}.cls-4{fill:#1eaee1;}.cls-5{fill:#75daf2;}.cls-6{fill:#64c5f1;}.cls-7{fill:#22b0e2;}.cls-8{fill:#20aee0;}.cls-9{fill:#e9f6fb;}.cls-10{fill:#41a3be;}.cls-11{fill:#fdc868;}.cls-12{fill:#d19b41;}.cls-13{fill:#f2be60;}.cls-14{fill:#333;}.cls-15{fill:#28415a;}.cls-16{fill:#62c1ec;}.cls-17{fill:none;}</style></defs><g id="Capa_1" data-name="Capa 1"><path class="cls-1" d="M166,32.86c-1.1-1.62-2.25-3.21-3.3-4.86-5.84-9.22-3.38-18,1.13-26.86,1.39.72,1.34,2,1.71,2.94,5.4,14.47,17.8,21.84,33.19,19.76,8.76-1.19,17.37-3.51,26.32-3.25,10.69.31,19.23,4,23.1,14.84,1.08,3,2.46,1.33,3.8.37,8.41-6,17.54-8.2,27.55-4.81,8.39,2.84,14.09,8.76,17.91,16.59,5,10.32,8.32,21.28,11.63,32.23,3.9,12.94,7.33,26.05,13.12,38.35a55.4,55.4,0,0,0,10.11,15.32,29.1,29.1,0,0,0,17.36,9c1,.15,2.22,0,3.37,1.17-3.46,3.51-7.78,5-12.42,5.66a38.2,38.2,0,0,1-10.3,0c-4.56-.57-4.54-.59-4.51,4.19a83.43,83.43,0,0,1-7.39,35.83,39.1,39.1,0,0,1-7.48,11.46c.56-5.66,2.13-10.68-.27-15.89-2.43,13.19-8.14,24.37-19.32,33,.25-4.61,2.27-8.66.79-12.93-1.74.42-2,1.94-2.66,3-6.74,10.38-15.14,18.75-27.34,22.41-2.17.65-4.42,1.71-6.77.46l3.43-2.56c1,.79,2.09.55,3.17.29,5.28-1.27,9.69-4.14,13.79-7.55a55.3,55.3,0,0,0,13.6-16.29c.62-1.16,1.18-2.71,2.93-2.22,1.5.43,1.83,1.89,2,3.25.14,1.1.08,2.21.17,3.32.16,2.06,1.09,2.37,2.55,1a25.6,25.6,0,0,0,2.45-2.75c5.15-6.58,7.55-14.26,9-22.34.29-1.62.11-4,2.41-3.95s2.05,2.41,2.48,4c.69,2.5-.22,5.24.79,8.09,8-12.14,10.48-31.52,9.72-42.93-.13-2-1.53-2.61-3-3.27-4.63-2.05-8.09-5.48-11.14-9.42-1.28-1.66-1.24-5-3.12-5.08-2.1-.11-2.29,3.43-4.12,4.71l-.69.74.05-.09c-8.85,7.18-20,11-26.27,9.05,19-15.64,18.29-34.16,12.76-42.63-1,1-1,2.46-1.27,3.69-2.13,8.41-6,15.89-12.5,21.69-6.07,5.38-12.67,10-20.78,11.87l.08,0c.64-1,1.29-2.09,1.94-3.12,4.89-7.74,9.09-15.77,10.6-24.94l.12-1.7a26.26,26.26,0,0,0,.56-10.77l-.35-1.9c-.26-4.52-1.66-9.18-5.85-10.71-4.35-1.59-8.17,1.42-11.09,4.94-.56.69-.83,1.87-2.18,1.72a23,23,0,0,0-3.13-7c-3.51-4.66-7.73-5.41-12.33-1.89-10,7.66-15.83,17.92-18.29,30.19-.13.54-.25,1.09-.37,1.63a33.83,33.83,0,0,0-1.09,9.5l-.19,1.77c-.57,3.5.33,7,.12,11.18-5.59-5.38-8.64-11.57-11.09-18.13a54.34,54.34,0,0,1-2.71-15.06,50.06,50.06,0,0,1,2.39-16.92c-4.89,2.84-8,6.94-10,12.77a48.62,48.62,0,0,0-3,11.62c-1.7,8.3-.78,16.63.2,25.7a45,45,0,0,1-11.81-12.56c-5-7.69-7.22-16.29-8.54-25.21-.17-2.44-.33-4.88-.52-7.68a19.31,19.31,0,0,0-4.73,4.76,27.63,27.63,0,0,0-4.62,10.35c-2.76,11-1.24,21.68,2.27,32.23l.07,0c-1.75.36-2.88-.94-4.24-1.61-2.59-1.28-4.19-3.92-6.9-5l0,.09a.83.83,0,0,0-.87-.81c-9.66-11.92-16-25-14.11-40.91.12-1,.35-2.08-.68-2.67s-1.84.28-2.54.93a25.26,25.26,0,0,0-7.61,13.21c-1.69,7.41-.65,14.65,1.32,21.85.3,1.11,1.53,2.82-.5,3.44s-2.19,2.1-2.38,3.69a85.29,85.29,0,0,0,12.52,56.06c.52.84,1,2.42,2.33,1.74,1.11-.57.56-2,.37-3.06a22.28,22.28,0,0,1,.53-11.29c.32-.95.87-1.83,2.07-1.78a1.94,1.94,0,0,1,1.78,1.61,21.35,21.35,0,0,1,.42,2.54c2.13,13.56,8.61,24.69,18.87,33.7.63.55,1.3,1.33,2.25.82s.54-1.51.41-2.32c-.45-2.66-1.18-5.3-.88-8,.17-1.57.13-3.56,2.08-3.87s2.15,1.68,2.7,3c3.75,8.75,9.88,15.46,17.68,20.76,1.11.75,2.2,1.93,3.31,0L198.58,233c-14-4.63-22.36-11.82-33.46-28.75-1.63,3.39-1.1,6.24,3,16.12l0,0c-1.64.22-2.78-.84-4-1.67a57.4,57.4,0,0,1-23.89-35.55c-.24-1-.05-2.23-1-3-1.85,3.83-1.53,6.39,2.7,21.81-1.66-.45-2.43-1.71-3.31-2.72-11.68-13.38-17.07-29.34-19.08-46.69a63.54,63.54,0,0,1,.72-20.91c.55-2.54-.62-3.78-2.33-5.22-11-9.23-15.75-20.81-12.67-35.1A28,28,0,0,1,117.68,73.2c.62-.4,1.24-.8,1.82-1.25.14-.12.13-.44.34-1.2-5.66,0-9.82,2.56-13.68,6.77a28.46,28.46,0,0,1-.32-11.32C109.3,40,137.7,23,162.57,32.21c1,.38,2.11.62,3.16.92l.46,0Z" transform="translate(-36.22 -1.14)"/><path class="cls-2" d="M149,135.46c2.71,1.11,4.31,3.75,6.9,5,1.36.67,2.49,2,4.24,1.61l0,.2,0-.16c-3.51-10.55-5-21.24-2.27-32.23a27.63,27.63,0,0,1,4.62-10.35c1.67,1.11,3.22,2.44,5.25,2.92,1.32,8.92,3.58,17.52,8.54,25.21A45,45,0,0,0,188,140.25c-1-9.07-1.9-17.4-.19-25.7,4.39,2.65,8.56,5.67,13.37,7.59,2.45,6.56,5.5,12.75,11.09,18.13.21-4.17-.69-7.68-.12-11.18,3.36,2.38,7.23,4,10,7.3,2.07,2.49,5.42,2.06,7.76-.47a18.31,18.31,0,0,1,4.09-3.61c10.8-6.29,21.56-12.65,32.33-19-1.51,9.17-5.71,17.2-10.6,24.94-.65,1-1.3,2.08-1.94,3.12l-.08,0c8.11-1.87,14.71-6.49,20.78-11.87,6.54-5.8,10.37-13.28,12.5-21.69.31-1.23.23-2.64,1.27-3.69,5.53,8.47,6.21,27-12.76,42.63,6.3,1.95,17.42-1.87,26.27-9.05.18,3-1.36,5.64-2.17,8.42-.45,1.55-.26,2.36,1.3,3.15,6.22,3.17,8.59,8.78,7.95,15.25-.81,8-5.18,14.33-11.71,19.08a10,10,0,0,0,.83-1.63,2.12,2.12,0,0,0-1.54-2.88,2.28,2.28,0,1,0-1.12,4.41,10,10,0,0,0,1.83.15,10.65,10.65,0,0,1-4.37,2.62c-.5-2.5-1.79-4.24-4.49-3s-2.14,3.38-.88,5.46c-2.18.28-3,1.84-3.57,3.7-4.48,14.18-12.37,26-24.31,35a5.72,5.72,0,0,0-.75.8l-3.43,2.56c-2.38,1.2-3.11,3.21-3.08,5.78.07,7.12,0,14.24,0,21.37h-53.1c0-6.86,0-13.72,0-20.59,0-1.46.2-2.95-.6-4.31l-10.52-8.86c-8.42-7.29-14.8-16-18.39-26.64-.67-2-1.6-3.85-2.27-5.83a4,4,0,0,0-3.34-3c1.27-2.08,1.83-4.27-.86-5.47s-4,.51-4.49,3a27.43,27.43,0,0,1-16-20.63c-1.25-6.69,1.12-12.66,7.49-16.18,1.82-1,2-2,1.47-3.78C150.72,142.26,149,139.08,149,135.46Z" transform="translate(-36.22 -1.14)"/><path class="cls-3" d="M127.78,400.91c1.43-1.28.53-2.8.3-4.14q-5.94-34-12-67.88c-.46-2.58-.42-3.64,2.72-2.6,13.41,4.43,26.89,8.66,40.35,13,5,1.41,9.81,3.58,15,4.36l-.11-.05,1.55,1.21c2.39.21,4.46,1.38,6.66,2.19a17.54,17.54,0,0,1,8.74,3.14c8.23,6.1,16.38,12.32,24.57,18.49-.72.66-1.41,1.36-2.16,2a19.61,19.61,0,0,0-5.47,23.61,60.31,60.31,0,0,0,3.82,6.27,9.67,9.67,0,0,0-2,1q-17,13.88-33.85,27.78c-11.21,9.16-22.46,18.26-33.67,27.41-2.11,1.72-3.28,2.22-3.86-1.32Q135,434.6,131.12,414C130.3,409.56,130.52,404.84,127.78,400.91Z" transform="translate(-36.22 -1.14)"/><path class="cls-3" d="M292.89,338.55c4.92-.54,9.41-2.62,14.09-4,8.34-2.52,16.6-5.28,24.91-7.91,1.13-.36,2.22-1.06,3.91-.61q-1.71,9.87-3.44,19.8-4.73,27.39-9.47,54.76c-.36,1.43-.83,2.84-1.08,4.28-3,16.8-5.95,33.6-8.75,50.43-.57,3.43-1.72,3.25-3.84,1.36-.36-.32-.79-.57-1.17-.88-17.86-14.61-35.67-29.27-53.6-43.79-4.84-3.92-9.29-8.36-14.75-11.5.58-.93,1.11-1.89,1.75-2.78a19.13,19.13,0,0,0,3-17.8c-1.5-4.79-4.86-8.16-8.55-11.28,8.18-6.17,16.33-12.39,24.56-18.49a17.54,17.54,0,0,1,8.73-3.14l6.61-2.6,1.6-.8-.1.05c5.08-.8,9.81-2.8,14.68-4.31.44-.15.95-.21,1-.84Z" transform="translate(-36.22 -1.14)"/><path class="cls-2" d="M253.65,269l2.26,2.73c1,4.59,3.22,8.75,5,13.06a7,7,0,0,1,0,5.6q-11,28.37-21.79,56.81c-.45,1.2-1.43,2.35-.81,3.81l0,0c-.72,0-.81.58-.87,1.13a6.76,6.76,0,0,0-1.49,3.52c-1,2.55-1.91,5.11-2.87,7.66a3,3,0,0,0-.82,2.41l.05-.05c-.52,0-.57.41-.55.82l-12,0c0-.4,0-.76-.55-.79l0,.05a3.2,3.2,0,0,0-.85-2.48c-.05-.53-.2-1-.81-1.13l0,.07c.12-2.43-1.23-4.4-2.07-6.53a6.54,6.54,0,0,0-1.49-3.51c-.05-.56-.14-1.1-.87-1.14l0,0c.63-1.59-.44-2.84-.94-4.15q-10.68-28.1-21.51-56.12a7.76,7.76,0,0,1,0-6.28c1.71-4.19,3.83-8.24,4.83-12.71l2.24-2.75Z" transform="translate(-36.22 -1.14)"/><path class="cls-4" d="M238.25,351c-.62-1.46.36-2.61.81-3.81q10.84-28.43,21.79-56.81a7,7,0,0,0,0-5.6c-1.73-4.31-3.92-8.47-5-13.06l76.68,5.42c1.22.08,2.44.22,3.66.33-13.43,11.13-26.48,22.74-40.62,33-18.1,13.13-36.33,26.09-54.52,39.1C240.25,350.21,239.53,351.2,238.25,351Z" transform="translate(-36.22 -1.14)"/><path class="cls-4" d="M195.54,271.76c-1,4.47-3.12,8.52-4.83,12.71a7.76,7.76,0,0,0,0,6.28q10.86,28,21.51,56.12c.5,1.31,1.57,2.56.94,4.15-1.41.14-2.2-1-3.16-1.65-7.82-5.55-15.52-11.26-23.4-16.72a825.2,825.2,0,0,1-71.46-55.16l67.53-4.79Z" transform="translate(-36.22 -1.14)"/><path class="cls-5" d="M239.7,400.46c5.46,3.14,9.91,7.58,14.75,11.5,17.93,14.52,35.74,29.18,53.6,43.79.38.31.81.56,1.17.88,2.12,1.89,3.27,2.07,3.84-1.36,2.8-16.83,5.79-33.63,8.75-50.43.25-1.44.72-2.85,1.08-4.28q9.09,1.5,18.18,3c1.58.26,2.93.33,1.76,2.65q-19.06,37.83-38,75.72c-.05.1-.17.16-.31.29-1.14,0-1.55-1-2.16-1.66q-35.07-37.33-70.08-74.73a9.46,9.46,0,0,1-.66-.87Z" transform="translate(-36.22 -1.14)"/><path class="cls-5" d="M127.78,400.91c2.74,3.93,2.52,8.65,3.34,13q3.84,20.64,7.27,41.34c.58,3.54,1.75,3,3.86,1.32,11.21-9.15,22.46-18.25,33.67-27.41s22.55-18.53,33.85-27.78a9.67,9.67,0,0,1,2-1l8.11,4.48-59.37,63.49c-3.69,3.94-7.51,7.78-11,11.87-2,2.34-2.78,2.05-4.09-.61q-16.33-33-32.88-65.91c-1.26-2.53-2.44-5.1-3.82-7.56-1-1.72-.53-2.37,1.31-2.63C115.91,402.73,121.84,401.81,127.78,400.91Z" transform="translate(-36.22 -1.14)"/><path class="cls-6" d="M219.84,404.94l-8.11-4.48a60.31,60.31,0,0,1-3.82-6.27,19.61,19.61,0,0,1,5.47-23.61c.75-.62,1.44-1.32,2.16-2,1.54-.12,3-.44,3.57-2.12l.31-.05h.3l12,0,.3,0,.3,0c.61,1.69,2,2,3.59,2.13,3.69,3.12,7.05,6.49,8.55,11.28a19.13,19.13,0,0,1-3,17.8c-.64.89-1.17,1.85-1.75,2.78l-8.09,4.47A26.72,26.72,0,0,1,219.84,404.94Z" transform="translate(-36.22 -1.14)"/><path class="cls-7" d="M235.92,368.6c-1.55-.12-3-.44-3.59-2.13,0-.27,0-.55-.05-.82l-.05.05c1.62.47,2.43-.93,3.44-1.64,19.73-13.82,39.32-27.83,59.13-41.52,19.36-13.38,36.79-29.11,54.84-44.09l7.4.52c-27.11,23.21-55,45.37-84.85,65-1.15.76-2.83,1.14-3,3a17.54,17.54,0,0,0-8.73,3.14C252.25,356.21,244.1,362.43,235.92,368.6Z" transform="translate(-36.22 -1.14)"/><path class="cls-7" d="M219.11,366.48c-.61,1.68-2,2-3.57,2.12-8.19-6.17-16.34-12.39-24.57-18.49a17.54,17.54,0,0,0-8.74-3.14c-.15-1.82-1.82-2.21-3-3C149.43,324.33,121.5,302.17,94.38,279l7.43-.51C116.17,290.37,130.05,303,145,314.08c23.18,17.21,47.11,33.41,70.76,50,1,.71,1.81,2.11,3.43,1.63l0-.05Z" transform="translate(-36.22 -1.14)"/><path class="cls-7" d="M233.05,363.29c1-2.55,1.91-5.11,2.87-7.66a5.34,5.34,0,0,0,1-.41c33.88-24.39,68.74-47.49,100-75.33.81-.73,1.84-1.25,2.18-2.41l7.59.72C311.18,309.69,271.75,336,233.05,363.29Z" transform="translate(-36.22 -1.14)"/><path class="cls-7" d="M215.52,355.63c.84,2.13,2.19,4.1,2.07,6.53-1.43.22-2.2-.94-3.15-1.6-6.14-4.29-12.2-8.68-18.35-12.94-31.5-21.77-62.56-44.09-91.36-69.42l7.56-.72c.39,1.28,1.56,1.85,2.48,2.64a761.66,761.66,0,0,0,67,51.8C193.14,339.67,204.28,347.72,215.52,355.63Z" transform="translate(-36.22 -1.14)"/><path class="cls-4" d="M253.65,269H197.78a39.33,39.33,0,0,1,1.39-11.11h53.1A38.57,38.57,0,0,1,253.65,269Z" transform="translate(-36.22 -1.14)"/><path class="cls-8" d="M174.13,343.62c-5.2-.78-10-2.95-15-4.36-.4-1.67-1.93-2.17-3.14-2.9-25.92-15.42-47.52-36.39-70.86-55.11a13.12,13.12,0,0,1-1.31-1.63l7.69-.42a12.41,12.41,0,0,0,1,1.06c25.41,21.31,50.68,42.82,78.68,60.79C172.25,341.75,173.68,342.16,174.13,343.62Z" transform="translate(-36.22 -1.14)"/><path class="cls-8" d="M292,339.31c-4.87,1.51-9.6,3.51-14.68,4.31.38-1.35,1.7-1.67,2.66-2.36,13.6-9.9,28-18.61,41-29.45l39-32.6h6.72c.75,1.67-.3,2-.89,2.5-16,13.34-31.87,26.87-48.16,39.85-7,5.56-14.86,9.95-22.31,14.91-.88.58-2.07.86-2.41,2.08l.1-.08C292.47,338.53,292.07,338.73,292,339.31Z" transform="translate(-36.22 -1.14)"/><path class="cls-9" d="M104.73,278.2c28.8,25.33,59.86,47.65,91.36,69.42,6.15,4.26,12.21,8.65,18.35,12.94.95.66,1.72,1.82,3.15,1.6l0-.07c-.11.65.36.88.81,1.13a3.2,3.2,0,0,1,.85,2.48c-1.62.48-2.42-.92-3.43-1.63-23.65-16.58-47.58-32.78-70.76-50-15-11.11-28.85-23.71-43.21-35.64A4.58,4.58,0,0,1,104.73,278.2Z" transform="translate(-36.22 -1.14)"/><path class="cls-9" d="M233.05,363.29c38.7-27.29,78.13-53.6,113.68-85.09a4.48,4.48,0,0,1,2.91.25c-18.05,15-35.48,30.71-54.84,44.09-19.81,13.69-39.4,27.7-59.13,41.52-1,.71-1.82,2.11-3.44,1.64A3,3,0,0,1,233.05,363.29Z" transform="translate(-36.22 -1.14)"/><path class="cls-9" d="M215.52,355.63c-11.24-7.91-22.38-16-33.73-23.71a761.66,761.66,0,0,1-67-51.8c-.92-.79-2.09-1.36-2.48-2.64h2.88a825.2,825.2,0,0,0,71.46,55.16c7.88,5.46,15.58,11.17,23.4,16.72,1,.68,1.75,1.79,3.16,1.65l0,0c0,.64.43.88.87,1.14A6.54,6.54,0,0,1,215.52,355.63Z" transform="translate(-36.22 -1.14)"/><path class="cls-9" d="M339.14,277.48c-.34,1.16-1.37,1.68-2.18,2.41-31.29,27.84-66.15,50.94-100,75.33a5.34,5.34,0,0,1-1,.41,6.76,6.76,0,0,1,1.49-3.52c.45-.25.93-.49.87-1.13l0,0c1.28.18,2-.81,2.86-1.43,18.19-13,36.42-26,54.52-39.1,14.14-10.26,27.19-21.87,40.62-33Z" transform="translate(-36.22 -1.14)"/><path class="cls-9" d="M174.13,343.62c-.45-1.46-1.88-1.87-3-2.57-28-18-53.27-39.48-78.68-60.79a12.41,12.41,0,0,1-1-1.06,4.6,4.6,0,0,1,2.88-.25c27.12,23.22,55.05,45.38,84.89,65.06,1.14.75,2.81,1.14,3,3-2.2-.81-4.27-2-6.66-2.19-.25-.74-.66-1.27-1.55-1.21Z" transform="translate(-36.22 -1.14)"/><path class="cls-9" d="M359.94,279.21l-39,32.6c-12.93,10.84-27.37,19.55-41,29.45-1,.69-2.28,1-2.66,2.36l.1-.05a1.67,1.67,0,0,0-1.6.8l-6.61,2.6c.15-1.83,1.83-2.21,3-3C302,324.34,329.93,302.18,357,279A4.09,4.09,0,0,1,359.94,279.21Z" transform="translate(-36.22 -1.14)"/><polygon class="cls-1" points="132.7 220.01 132.87 220.1 132.75 219.96 132.7 220.01"/><path class="cls-1" d="M169,221.1l-.81-.76,0,0,.8.77Z" transform="translate(-36.22 -1.14)"/><path class="cls-10" d="M164.06,188.67a4,4,0,0,1,3.34,3c.67,2,1.6,3.86,2.27,5.83,3.59,10.64,10,19.35,18.39,26.64-1.11,1.92-2.2.74-3.31,0-7.8-5.3-13.93-12-17.68-20.76-.55-1.29-.82-3.28-2.7-3s-1.91,2.3-2.08,3.87c-.3,2.73.43,5.37.88,8,.13.81.58,1.79-.41,2.32s-1.62-.27-2.25-.82c-10.26-9-16.74-20.14-18.87-33.7a21.35,21.35,0,0,0-.42-2.54,1.94,1.94,0,0,0-1.78-1.61c-1.2,0-1.75.83-2.07,1.78a22.28,22.28,0,0,0-.53,11.29c.19,1.06.74,2.49-.37,3.06-1.34.68-1.81-.9-2.33-1.74a85.29,85.29,0,0,1-12.52-56.06c.19-1.59.35-3.06,2.38-3.69s.8-2.33.5-3.44c-2-7.2-3-14.44-1.32-21.85a25.26,25.26,0,0,1,7.61-13.21c.7-.65,1.44-1.57,2.54-.93s.8,1.71.68,2.67c-1.85,15.9,4.45,29,14.11,40.91l.87.81,0-.09c.06,3.62,1.77,6.8,2.77,10.17.53,1.8.35,2.78-1.47,3.78-6.37,3.52-8.74,9.49-7.49,16.18a27.43,27.43,0,0,0,16,20.63C159.67,188.85,161.46,189.64,164.06,188.67Z" transform="translate(-36.22 -1.14)"/><path class="cls-10" d="M297.12,183.57c6.53-4.75,10.9-11,11.71-19.08.64-6.47-1.73-12.08-7.95-15.25-1.56-.79-1.75-1.6-1.3-3.15.81-2.78,2.35-5.38,2.17-8.42l-.05.09.69-.74c1.83-1.28,2-4.82,4.12-4.71,1.88.1,1.84,3.42,3.12,5.08,3.05,3.94,6.51,7.37,11.14,9.42,1.51.66,2.91,1.31,3,3.27.76,11.41-1.73,30.79-9.72,42.93-1-2.85-.1-5.59-.79-8.09-.43-1.57-.2-4-2.48-4s-2.12,2.33-2.41,3.95c-1.44,8.08-3.84,15.76-9,22.34A25.6,25.6,0,0,1,297,210c-1.46,1.38-2.39,1.07-2.55-1-.09-1.11,0-2.22-.17-3.32-.18-1.36-.51-2.82-2-3.25-1.75-.49-2.31,1.06-2.93,2.22a55.3,55.3,0,0,1-13.6,16.29c-4.1,3.41-8.51,6.28-13.79,7.55-1.08.26-2.17.5-3.17-.29a5.72,5.72,0,0,1,.75-.8c11.94-9,19.83-20.85,24.31-35,.59-1.86,1.39-3.42,3.57-3.7,2.61,1,4.38.17,5.37-2.42a10.65,10.65,0,0,0,4.37-2.62Z" transform="translate(-36.22 -1.14)"/><path class="cls-2" d="M213.77,116.19C216.23,103.92,222,93.66,232.06,86c4.6-3.52,8.82-2.77,12.33,1.89a23,23,0,0,1,3.13,7c1.35.15,1.62-1,2.18-1.72,2.92-3.52,6.74-6.53,11.09-4.94,4.19,1.53,5.59,6.19,5.85,10.71-10.88,6.38-21.78,12.72-32.63,19.15-2,1.18-3.6,2.27-5.79.15a3.62,3.62,0,0,0-4.8-.11c-2.43,2.2-4.3,1.17-6.41-.29A26.76,26.76,0,0,0,213.77,116.19Z" transform="translate(-36.22 -1.14)"/><path class="cls-11" d="M267,100.86a26.26,26.26,0,0,1-.56,10.77q-14.28,8.39-28.57,16.76c-4.27,2.49-4.28,2.46-5-2.48a8.65,8.65,0,0,0-.51-2.15c-.87-2,.06-3.1,1.8-4.09,5-2.85,9.86-6,14.91-8.76C255.07,107.6,260.58,103.43,267,100.86Z" transform="translate(-36.22 -1.14)"/><path class="cls-12" d="M267,100.86c-6.41,2.57-11.92,6.74-17.92,10-5,2.78-9.9,5.91-14.91,8.76-1.74,1-2.67,2-1.8,4.09a8.65,8.65,0,0,1,.51,2.15c.71,4.94.72,5,5,2.48q14.31-8.35,28.57-16.76l-.12,1.7c-10.77,6.33-21.53,12.69-32.33,19a18.31,18.31,0,0,0-4.09,3.61c-2.34,2.53-5.69,3-7.76.47-2.78-3.34-6.65-4.92-10-7.3.06-.59.13-1.18.19-1.77,1,.7,2,1.39,3,2.11,2.08,1.5,3.5,2,3.19-1.59a11.18,11.18,0,0,1,.65-4.34,2.63,2.63,0,0,0-1.5-3.61c-1.41-.72-2.61-1.87-4.28-2.07.12-.54.24-1.09.37-1.63a26.76,26.76,0,0,1,3.24,1.67c2.11,1.46,4,2.49,6.41.29a3.62,3.62,0,0,1,4.8.11c2.19,2.12,3.8,1,5.79-.15,10.85-6.43,21.75-12.77,32.63-19.15C266.76,99.59,266.87,100.23,267,100.86Zm-35.82,27c0-4.94-2.4-8.73-5.55-8.65s-5.32,3.72-5.35,8.48c0,4.91,2.43,8.75,5.55,8.66S231.14,132.55,231.17,127.81Z" transform="translate(-36.22 -1.14)"/><path class="cls-13" d="M201.15,122.14c-4.81-1.92-9-4.94-13.37-7.59a48.13,48.13,0,0,1,3-11.62c2.81.91,5.1,2.77,7.65,4.15A54.34,54.34,0,0,0,201.15,122.14Z" transform="translate(-36.22 -1.14)"/><path class="cls-2" d="M198.44,107.08c-2.55-1.38-4.84-3.24-7.65-4.15,2.08-5.83,5.15-9.93,10-12.77A50.06,50.06,0,0,0,198.44,107.08Z" transform="translate(-36.22 -1.14)"/><path class="cls-11" d="M213.4,117.82c1.67.2,2.87,1.35,4.28,2.07a2.63,2.63,0,0,1,1.5,3.61,11.18,11.18,0,0,0-.65,4.34c.31,3.57-1.11,3.09-3.19,1.59-1-.72-2-1.41-3-2.11A33.83,33.83,0,0,1,213.4,117.82Z" transform="translate(-36.22 -1.14)"/><path class="cls-13" d="M167.62,102.48c-2-.48-3.58-1.81-5.25-2.92a19.31,19.31,0,0,1,4.73-4.76C167.29,97.6,167.45,100,167.62,102.48Z" transform="translate(-36.22 -1.14)"/><path class="cls-14" d="M149,135.55l-.87-.81A.83.83,0,0,1,149,135.55Z" transform="translate(-36.22 -1.14)"/><path class="cls-14" d="M302.39,137l-.69.74Z" transform="translate(-36.22 -1.14)"/><path class="cls-15" d="M166,32.86l.2.24-.46,0Z" transform="translate(-36.22 -1.14)"/><path class="cls-16" d="M164.06,188.67c-2.6,1-4.39.18-5.35-2.45.5-2.51,1.8-4.22,4.49-3S165.33,186.59,164.06,188.67Z" transform="translate(-36.22 -1.14)"/><path class="cls-16" d="M292.75,186.24c-1,2.59-2.76,3.44-5.37,2.42-1.26-2.08-1.81-4.27.88-5.46S292.25,183.74,292.75,186.24Z" transform="translate(-36.22 -1.14)"/><path class="cls-16" d="M297.12,183.57v.05a10,10,0,0,1-1.83-.15,2.28,2.28,0,1,1,1.12-4.41,2.12,2.12,0,0,1,1.54,2.88A10,10,0,0,1,297.12,183.57Z" transform="translate(-36.22 -1.14)"/><path class="cls-1" d="M253.69,141.34l.08,0Z" transform="translate(-36.22 -1.14)"/><polygon class="cls-1" points="123.8 141 123.85 141.16 123.87 140.96 123.8 141"/><path class="cls-8" d="M174,343.57c.89-.06,1.3.47,1.55,1.21Z" transform="translate(-36.22 -1.14)"/><path class="cls-8" d="M275.82,344.37a1.67,1.67,0,0,1,1.6-.8Z" transform="translate(-36.22 -1.14)"/><path class="cls-15" d="M292,339.31c.07-.58.47-.78,1-.84C293,339.1,292.44,339.16,292,339.31Z" transform="translate(-36.22 -1.14)"/><path class="cls-4" d="M214,352.12c-.44-.26-.92-.5-.87-1.14C213.89,351,214,351.56,214,352.12Z" transform="translate(-36.22 -1.14)"/><path class="cls-4" d="M238.28,351c.06.64-.42.88-.87,1.13C237.47,351.56,237.56,351,238.28,351Z" transform="translate(-36.22 -1.14)"/><path class="cls-7" d="M218.36,363.22c-.45-.25-.92-.48-.81-1.13C218.16,362.22,218.31,362.69,218.36,363.22Z" transform="translate(-36.22 -1.14)"/><path class="cls-9" d="M219.11,366.48l.06-.83c.51,0,.56.39.55.79h-.3Z" transform="translate(-36.22 -1.14)"/><path class="cls-9" d="M232.28,365.65c0,.27,0,.55.05.82l-.3,0-.3,0C231.71,366.06,231.76,365.69,232.28,365.65Z" transform="translate(-36.22 -1.14)"/><path class="cls-6" d="M231.17,127.81c0,4.74-2.34,8.4-5.35,8.49s-5.58-3.75-5.55-8.66c0-4.76,2.33-8.41,5.35-8.48S231.21,122.87,231.17,127.81Z" transform="translate(-36.22 -1.14)"/></g><g id="Capa_2" data-name="Capa 2"><rect class="cls-17" y="59.25" width="136.93" height="144.6"/><rect class="cls-17" x="182.99" y="240.96" width="92.14" height="92.14"/></g></svg>