<?xml version="1.0" encoding="utf-8"?>
<!-- Generator: Adobe Illustrator 24.2.3, SVG Export Plug-In . SVG Version: 6.00 Build 0)  -->
<svg version="1.1" id="Layer_1" xmlns="http://www.w3.org/2000/svg" xmlns:xlink="http://www.w3.org/1999/xlink" x="0px" y="0px"
	 viewBox="0 0 417 107" style="enable-background:new 0 0 417 107;" xml:space="preserve">
<style type="text/css">
	.st0{fill-rule:evenodd;clip-rule:evenodd;fill:#F2A5DD;}
	.st1{fill-rule:evenodd;clip-rule:evenodd;fill:#7B3799;}
	.st2{fill-rule:evenodd;clip-rule:evenodd;fill:#FFFFFF;}
	.st3{fill-rule:evenodd;clip-rule:evenodd;fill:#E17334;}
</style>
<desc>Created with Sketch.</desc>
<g id="Tablet_x2B_">
	<g id="_x30_0---App---Tablet_x2B_" transform="translate(-177.000000, -351.000000)">
		<g id="Group-4" transform="translate(175.000000, 348.000000)">
			<g id="Tarjetas-molonas">
				<g id="Group-2">
					
						<g id="Group" transform="translate(63.191223, 54.437060) rotate(-10.000000) translate(-63.191223, -54.437060) translate(7.318166, 11.294573)">
						<path id="Path" class="st0" d="M101.3,2.3c2.9,0,5.3,1,7.3,3c2,2,3,4.4,3,7.3l0,62c0,2.9-1,5.3-3,7.3c-2,2-4.4,3-7.3,3
							l-89.5,0c-2.9,0-5.3-1-7.3-3s-3-4.4-3-7.3l0-62c0-2.9,1-5.3,3-7.3s4.4-3,7.3-3L101.3,2.3z"/>
						<path id="Path-Copy" class="st1" d="M100.1,0.6c2.9,0,5.3,1,7.3,3c2,2,3,4.4,3,7.3l0,62c0,2.9-1,5.3-3,7.3c-2,2-4.4,3-7.3,3
							l-89.5,0c-2.9,0-5.3-1-7.3-3s-3-4.4-3-7.3l0-62c0-2.9,1-5.3,3-7.3s4.4-3,7.3-3L100.1,0.6z"/>
						<path id="Path_1_" class="st2" d="M103.6,72.9l0-62c0-1-0.3-1.8-1-2.5c-0.6-0.6-1.5-1-2.5-1l-89.5,0c-1,0-1.8,0.3-2.5,1
							s-1,1.5-1,2.5l0,62c0,1,0.3,1.8,1,2.5c0.6,0.6,1.5,1,2.5,1l89.5,0c1,0,1.8-0.3,2.5-1C103.3,74.8,103.6,73.9,103.6,72.9z"/>
						<path id="Combined-Shape" class="st3" d="M71.7,55.7c-0.7,0-1.3-0.3-1.8-0.8c-0.5-0.5-0.8-1.1-0.8-1.8v-1.7
							c0-0.7,0.3-1.3,0.8-1.8c0.5-0.5,1.1-0.8,1.8-0.8l22.4,0c0.7,0,1.3,0.3,1.8,0.8c0.5,0.5,0.8,1.1,0.8,1.8v1.7
							c0,0.7-0.3,1.3-0.8,1.8c-0.5,0.5-1.1,0.8-1.8,0.8L71.7,55.7z M71.7,42c-0.7,0-1.3-0.3-1.8-0.8c-0.5-0.5-0.8-1.1-0.8-1.8v-1.7
							c0-0.7,0.3-1.3,0.8-1.8c0.5-0.5,1.1-0.8,1.8-0.8l22.4,0c0.7,0,1.3,0.3,1.8,0.8c0.5,0.5,0.8,1.1,0.8,1.8v1.7
							c0,0.7-0.3,1.3-0.8,1.8c-0.5,0.5-1.1,0.8-1.8,0.8L71.7,42z M71.7,28.2c-0.7,0-1.3-0.3-1.8-0.8c-0.5-0.5-0.8-1.1-0.8-1.8v-1.7
							c0-0.7,0.3-1.3,0.8-1.8c0.5-0.5,1.1-0.8,1.8-0.8l22.4,0c0.7,0,1.3,0.3,1.8,0.8c0.5,0.5,0.8,1.1,0.8,1.8v1.7
							c0,0.7-0.3,1.3-0.8,1.8c-0.5,0.5-1.1,0.8-1.8,0.8L71.7,28.2z"/>
						<path id="Combined-Shape_1_" class="st0" d="M51.5,42.4c3.7,1.1,6.6,3.4,8.6,6.7c1.4,2.6,2.2,5.2,2.2,8v3
							c0,2.6-0.9,4.8-2.8,6.7s-4.1,2.8-6.7,2.8l-29.3,0c-2.6,0-4.8-0.9-6.7-2.8c-1.9-1.9-2.8-4.1-2.8-6.7l0-3c0-2.7,0.7-5.4,2.2-8
							c2-3.3,4.9-5.5,8.6-6.7c-2.6-3.2-3.9-6.7-3.9-10.8c0-4.7,1.7-8.8,5.1-12.2s7.4-5.1,12.2-5.1s8.8,1.7,12.2,5.1
							s5.1,7.4,5.1,12.2C55.4,35.6,54.1,39.2,51.5,42.4z M38.2,21.3c-2.9,0-5.3,1-7.3,3s-3,4.4-3,7.3c0,2.9,1,5.3,3,7.3
							c2,2,4.4,3,7.3,3s5.3-1,7.3-3c2-2,3-4.4,3-7.3s-1-5.3-3-7.3C43.5,22.3,41,21.3,38.2,21.3z M55.4,60v-3c0-1.9-0.6-3.5-1.7-5.1
							c-1.1-1.5-2.7-2.5-4.5-3.1l-4.5-1.3c-2,0.9-4.2,1.3-6.5,1.3c-2.3,0-4.4-0.4-6.5-1.3l-4.5,1.3c-1.9,0.6-3.4,1.6-4.5,3.1
							S21,55.1,21,57v3c0,0.7,0.3,1.3,0.8,1.8c0.5,0.5,1.1,0.8,1.8,0.8l29.3,0c0.7,0,1.3-0.3,1.8-0.8C55.1,61.3,55.4,60.7,55.4,60z"
							/>
					</g>
					<path id="Awesome" class="st0" d="M138.2,53.4c-1.4,0-2.6-0.1-3.7-0.3c-1.1-0.2-2-0.8-2.7-1.6s-1.2-2.2-1.2-4
						c0-2.5,0.8-5.9,2.3-10.2s3.5-8.5,6-12.8c-1.9,0.1-3.4,0.4-4.5,0.8c-1.1,0.5-1.8,1.2-2.2,2.1c0.2,0,0.3,0.2,0.5,0.6
						c0.2,0.4,0.3,0.8,0.3,1.2c0,0.7-0.3,1.2-0.9,1.6c-0.6,0.4-1.4,0.6-2.3,0.6c-1.1,0-1.9-0.3-2.5-0.8c-0.6-0.6-1-1.4-1-2.4
						c0-1.3,0.5-2.5,1.5-3.5c1-1.1,2.4-1.9,4.2-2.5c1.8-0.6,3.7-0.9,5.9-0.9c0.8,0,1.8,0.1,2.9,0.2c3.1-4.9,6.4-8.9,9.8-12
						s6.7-4.7,9.9-4.7c1.8,0,3.3,0.3,4.5,0.8l-8.9,41.6H148l4.4-20.5c-1.4-0.6-2.7-1.1-3.8-1.4c-1.2-0.3-2.4-0.5-3.7-0.6
						c-2.2,4.6-3.9,9.4-5.3,14.2c-1.4,4.8-2.1,8.7-2.1,11.6C137.4,51.6,137.7,52.7,138.2,53.4z M156.2,8.5c-1.6,0.9-3.3,2.5-5.1,4.8
						s-3.5,5.2-5.1,8.6c2.7,0.5,5,1.2,6.9,2L156.2,8.5z M169.3,47.3c-1.8,0-3.3-0.6-4.4-1.7c-1.1-1.1-1.7-2.8-1.7-5.1
						c0-0.9,0.2-2.2,0.5-3.7l3.8-18.2h8.1l-4.1,19.2c-0.1,0.5-0.2,0.9-0.2,1.4c0,1.7,0.6,2.5,1.7,2.5c1.1,0,2-0.4,2.7-1.3
						c0.8-0.9,1.4-2.1,1.8-3.6l3.8-18.2h8.1l-4.1,19.2c-0.2,0.9-0.3,1.6-0.3,2c0,1.2,0.6,1.9,1.9,1.9c1.7,0,3.3-1.1,4.8-3.3
						c1.5-2.2,2.7-4.8,3.6-7.8s1.4-5.6,1.4-7.8c-0.1,0.2-0.3,0.3-0.7,0.4c-0.4,0.1-0.8,0.1-1.1,0.1c-0.6,0-1.1-0.3-1.5-0.9
						c-0.4-0.6-0.5-1.3-0.5-2c0-0.9,0.3-1.6,0.9-2.2c0.6-0.6,1.5-0.8,2.6-0.8c1.2,0,2.2,0.5,2.7,1.4c0.6,0.9,0.8,2.1,0.8,3.5
						c0,3.4-0.6,7-1.8,10.9c-1.2,3.9-3,7.2-5.4,9.9c-2.4,2.7-5.4,4.1-9,4.1c-1.8,0-3.4-0.4-4.5-1.2c-1.2-0.8-1.9-2-2.3-3.6
						C175.2,45.7,172.5,47.3,169.3,47.3z M209.2,47.3c-2.8,0-5-0.7-6.5-2.2s-2.3-3.7-2.3-6.8c0-2.6,0.5-5.5,1.5-8.6
						c1-3.1,2.7-5.8,5-8.1c2.3-2.3,5.2-3.4,8.8-3.4c4.1,0,6.2,1.8,6.2,5.4c0,2.1-0.6,4.1-1.8,5.8c-1.2,1.8-2.8,3.2-4.8,4.3
						c-2,1.1-4.1,1.7-6.4,1.8c-0.1,1.1-0.1,1.9-0.1,2.3c0,1.8,0.3,3.1,1,3.8s1.7,1,3.1,1c2,0,3.8-0.5,5.2-1.4c1.5-0.9,3-2.4,4.8-4.3
						h1.9C220.6,43.8,215.4,47.3,209.2,47.3z M209.3,32.8c1.4-0.1,2.7-0.6,4-1.5c1.3-0.9,2.3-2.1,3.1-3.5s1.2-2.9,1.2-4.4
						c0-1.5-0.5-2.3-1.4-2.3c-1.4,0-2.7,1.2-4,3.6C210.8,27.1,209.9,29.8,209.3,32.8z M229.3,47.3c-1.8,0-3.3-0.3-4.6-1
						c-1.2-0.7-2.2-1.6-2.8-2.7c-0.6-1.1-0.9-2.3-0.9-3.5c0-1.2,0.3-2.3,0.9-3.3c0.6-0.9,1.3-1.6,2.1-2c1.5-2.6,2.8-5.3,3.8-8
						c1.1-2.7,2.1-5.6,3.1-8.7l8.4-1.1c0.2,4.8,0.5,10.1,1,15.7c0.2,2.3,0.3,3.9,0.3,4.9c0,0.9-0.1,1.6-0.2,2.2c1.8-1,3.1-2,4.1-2.8
						h2.4c-2.4,2.8-5.3,5.1-8.7,7.1c-1.1,1.2-2.4,2-4,2.6C232.5,47,230.9,47.3,229.3,47.3z M227.5,42.8c1.4,0,2.6-0.4,3.5-1.2
						s1.4-2.2,1.4-4c0-1.1-0.1-2.7-0.3-4.8c-0.4-4.3-0.6-7.2-0.7-8.7c-0.9,3-2.4,6.5-4.6,10.7c0.9,0.5,1.3,1.1,1.3,2
						c0,0.7-0.2,1.4-0.7,1.9c-0.5,0.6-1.1,0.8-1.8,0.8c-0.8,0-1.3-0.2-1.5-0.7c0,1.4,0.3,2.4,0.8,3
						C225.4,42.5,226.2,42.8,227.5,42.8z M252.7,47.1c-2.8,0-5-0.7-6.6-2.2c-1.6-1.4-2.4-3.7-2.4-6.8c0-2.6,0.5-5.4,1.6-8.5
						s2.8-5.8,5.1-8.1s5.3-3.4,8.8-3.4c4.8,0,7.2,3,7.2,9.1v0.1c0.1,0,0.3,0.1,0.6,0.1c1.2,0,2.7-0.3,4.3-1c1.6-0.7,3.1-1.5,4.4-2.4
						l0.5,1.5c-1.1,1.2-2.5,2.2-4.3,3c-1.8,0.8-3.7,1.4-5.7,1.7c-0.3,3.4-1.1,6.4-2.3,9s-2.8,4.5-4.8,5.9
						C257.1,46.5,255,47.1,252.7,47.1z M255,42.1c0.9,0,1.8-0.5,2.7-1.6c0.9-1,1.7-2.5,2.4-4.2c0.7-1.8,1.2-3.8,1.5-6
						c-1-0.2-1.5-1-1.5-2.4c0-1.5,0.6-2.6,1.8-3.1c-0.1-1.2-0.3-2.1-0.6-2.6c-0.3-0.5-0.8-0.7-1.6-0.7c-1.2,0-2.5,0.9-3.6,2.7
						s-2.1,4-2.8,6.5c-0.7,2.5-1.1,4.8-1.1,6.7c0,1.8,0.2,3,0.6,3.6C253.1,41.7,253.9,42.1,255,42.1z M303.7,47.3
						c-2.3,0-4-0.6-5.1-1.8c-1.1-1.2-1.6-2.7-1.6-4.6c0-0.8,0.1-1.7,0.3-2.7s0.4-2,0.6-2.9c0.2-0.9,0.3-1.5,0.4-1.8
						c0.3-1.3,0.6-2.6,0.8-3.9s0.4-2.3,0.4-3.1c0-1.9-0.7-2.9-2-2.9c-1,0-1.8,0.5-2.6,1.4c-0.8,1-1.4,2.2-1.8,3.8l-3.8,18.2h-8.1
						l4.1-19.5c0.1-0.5,0.2-0.9,0.2-1.4c0-1.7-0.6-2.5-1.7-2.5c-1.1,0-2,0.5-2.7,1.4c-0.8,1-1.4,2.2-1.8,3.8l-3.8,18.2h-8.1l6-28.3
						h8.1l-0.6,2.9c1.9-2.2,4.2-3.2,6.9-3.2c3.3,0,5.3,1.6,5.8,4.9c2.1-3.2,4.7-4.8,7.9-4.8c1.9,0,3.5,0.5,4.6,1.6
						c1.1,1.1,1.7,2.7,1.7,4.8c0,1.1-0.1,2.3-0.4,3.6c-0.3,1.3-0.6,3-1.1,4.9c-0.3,1.2-0.6,2.3-0.8,3.4c-0.2,1.1-0.4,2-0.4,2.6
						c0,0.8,0.2,1.3,0.5,1.8c0.3,0.4,0.9,0.6,1.8,0.6c1.1,0,2-0.4,2.7-1.2c0.7-0.8,1.4-2.1,2-3.8h2.4c-1.4,4.1-3,6.9-4.8,8.3
						C307.5,46.6,305.6,47.3,303.7,47.3z M319.8,47.3c-2.8,0-4.9-0.7-6.5-2.2s-2.3-3.7-2.3-6.8c0-2.6,0.5-5.5,1.5-8.6
						c1-3.1,2.7-5.8,5-8.1c2.3-2.3,5.2-3.4,8.8-3.4c4.1,0,6.2,1.8,6.2,5.4c0,2.1-0.6,4.1-1.8,5.8c-1.2,1.8-2.8,3.2-4.8,4.3
						s-4.1,1.7-6.4,1.8c-0.1,0.8-0.1,1.4-0.1,1.7c0,3.1,1.2,4.7,3.5,4.7c1.1,0,2.2-0.3,3.4-0.8c1.2-0.6,2.3-1.3,3.3-2.2
						C328.6,44.5,325.3,47.3,319.8,47.3z M319.9,32.8c1.4,0,2.8-0.5,4-1.4c1.3-0.9,2.3-2.1,3.1-3.5c0.8-1.4,1.2-2.9,1.2-4.4
						c0-1.5-0.5-2.3-1.4-2.3c-1.3,0-2.6,1.2-3.9,3.6S320.5,29.8,319.9,32.8z"/>
					<path id="profile-cards" class="st0" d="M147.2,64.6h8.1l-0.9,4.2c1.9-1.6,4.1-2.4,6.6-2.4c2.1,0,3.8,0.7,5,2.1
						c1.2,1.4,1.9,3.7,1.9,6.8c0,3-0.4,6-1.3,9s-2.3,5.6-4.4,7.8c-2.1,2.1-4.8,3.2-8.2,3.2c-2.4,0-4-0.7-4.8-2l-2.9,13.8l-8.5,2
						L147.2,64.6z M152.3,90.4c1.8,0,3.3-0.8,4.5-2.5c1.2-1.7,2.1-3.7,2.6-6.1c0.5-2.4,0.8-4.6,0.8-6.6c0-3.1-0.9-4.7-2.8-4.7
						c-0.7,0-1.4,0.2-2.1,0.7s-1.3,1.2-1.8,2l-3.3,15.8C150.4,90,151.1,90.4,152.3,90.4z M173.2,66.7h8.1l-0.7,3.5
						c1.3-1.1,2.4-2,3.5-2.6c1-0.6,2.2-0.9,3.4-0.9c1.2,0,2.2,0.4,2.9,1.2s1,1.8,1,3c0,1.1-0.4,2.1-1.1,2.9s-1.7,1.2-3,1.2
						c-0.8,0-1.4-0.2-1.7-0.6s-0.5-1-0.7-1.7c-0.1-0.5-0.2-0.8-0.3-1.1c-0.1-0.2-0.3-0.3-0.6-0.3c-0.8,0-1.5,0.2-2,0.5
						c-0.5,0.3-1.3,0.9-2.1,1.7L175.3,95h-8.1L173.2,66.7z M198.9,95.2c-2.8,0-5-0.7-6.6-2.2c-1.6-1.4-2.4-3.7-2.4-6.8
						c0-2.6,0.5-5.4,1.6-8.5c1.1-3.1,2.8-5.8,5.1-8.1s5.3-3.4,8.8-3.4c4.8,0,7.2,3,7.2,9.1v0.1c0.1,0,0.3,0.1,0.6,0.1
						c1.2,0,2.7-0.3,4.3-1c1.6-0.7,3.1-1.5,4.4-2.4l0.5,1.5c-1.1,1.2-2.5,2.2-4.3,3c-1.8,0.8-3.7,1.4-5.7,1.7
						c-0.3,3.4-1.1,6.4-2.3,9c-1.2,2.6-2.8,4.5-4.8,5.9C203.3,94.5,201.2,95.2,198.9,95.2z M201.1,90.1c0.9,0,1.8-0.5,2.7-1.6
						c0.9-1,1.7-2.5,2.4-4.2c0.7-1.8,1.2-3.8,1.5-6c-1-0.2-1.5-1-1.5-2.4c0-1.5,0.6-2.6,1.8-3.1c-0.1-1.2-0.3-2.1-0.6-2.6
						c-0.3-0.5-0.8-0.7-1.6-0.7c-1.2,0-2.5,0.9-3.6,2.7c-1.2,1.8-2.1,4-2.8,6.5c-0.7,2.5-1.1,4.8-1.1,6.7c0,1.8,0.2,3,0.6,3.6
						C199.3,89.8,200,90.1,201.1,90.1z M210.8,109.2c-2.1,0-3.8-0.6-5.1-1.7c-1.3-1.2-2-2.7-2-4.6c0-1.6,0.5-2.9,1.4-3.9
						s2-1.8,3.3-2.4c1.3-0.6,3-1.2,5.1-1.9l6.3-29.8c1-4.7,2.7-7.9,5.1-9.6s5.1-2.6,8.1-2.6c2.8,0,5.2,0.5,7.2,1.4
						c2,0.9,2.9,2.6,2.9,5.1c0,1.6-0.4,2.7-1.3,3.5c-0.8,0.7-1.9,1.1-3.2,1.1c-1,0-1.8-0.2-2.4-0.7c-0.6-0.5-1-1.3-1-2.3
						c0-0.7,0.2-1.4,0.5-1.9c0.4-0.6,0.8-0.8,1.4-0.8c0.3,0,0.4,0,0.5,0.1c0-0.8-0.3-1.3-0.9-1.7c-0.5-0.4-1.3-0.6-2.2-0.6
						c-1.7,0-3,0.6-4,1.8c-1,1.2-1.7,2.7-2,4.6l-1,4.6h4.5l-0.5,2.3h-4.5l-6.5,30.6c-0.8,3.5-2.1,6-3.9,7.5
						C215,108.4,212.9,109.2,210.8,109.2z M236.2,95.4c-1.8,0-3.3-0.6-4.4-1.7c-1.1-1.1-1.7-2.8-1.7-5.1c0-0.9,0.2-2.2,0.5-3.7
						l3.8-18.2h8.1L238.5,86c-0.2,0.6-0.2,1.2-0.2,1.8c0,0.8,0.2,1.3,0.5,1.6c0.4,0.3,1,0.5,1.8,0.5c1.1,0,2.1-0.5,3.1-1.4
						c0.9-0.9,1.6-2.1,2-3.6h2.4c-1.4,4.1-3.2,6.8-5.4,8.3C240.5,94.6,238.3,95.4,236.2,95.4z M209.2,104.1c0.6,0,1.3-0.4,1.9-1.1
						c0.6-0.7,1.1-1.8,1.4-3.3l0.7-3.3c-1.9,0.6-3.5,1.4-4.6,2.3c-1.1,0.9-1.7,2-1.7,3.1c0,0.8,0.3,1.4,0.8,1.8
						C208.2,104,208.7,104.1,209.2,104.1z M251.3,95.4c-1.8,0-3.3-0.6-4.4-1.7s-1.7-2.8-1.7-5.1c0-0.9,0.2-2.2,0.5-3.7l6.1-28.3
						l8.4-1.1L253.6,86c-0.2,0.6-0.2,1.2-0.2,1.8c0,0.8,0.2,1.3,0.5,1.6s1,0.5,1.8,0.5c1.1,0,2.1-0.5,3.1-1.4c0.9-0.9,1.6-2.1,2-3.6
						h2.4c-1.4,4.1-3.2,6.8-5.4,8.3C255.6,94.6,253.4,95.4,251.3,95.4z M268.8,95.4c-2.8,0-4.9-0.7-6.5-2.2
						c-1.5-1.5-2.3-3.7-2.3-6.8c0-2.6,0.5-5.5,1.5-8.6c1-3.1,2.7-5.8,5-8.1c2.3-2.3,5.2-3.4,8.8-3.4c4.1,0,6.2,1.8,6.2,5.4
						c0,2.1-0.6,4.1-1.8,5.8c-1.2,1.8-2.8,3.2-4.8,4.3c-2,1.1-4.1,1.7-6.4,1.8c-0.1,0.8-0.1,1.4-0.1,1.7c0,3.1,1.2,4.7,3.5,4.7
						c1.1,0,2.2-0.3,3.4-0.8c1.2-0.6,2.3-1.3,3.3-2.2C277.5,92.6,274.3,95.4,268.8,95.4z M268.9,80.9c1.4,0,2.8-0.5,4-1.4
						s2.3-2.1,3.1-3.5c0.8-1.4,1.2-2.9,1.2-4.4c0-1.5-0.5-2.3-1.4-2.3c-1.3,0-2.6,1.2-3.9,3.6C270.5,75.2,269.5,77.9,268.9,80.9z
						 M283.6,78h11.3l-1,4.5h-11.4L283.6,78z M306,95.4c-2.8,0-5-0.7-6.5-2.2c-1.5-1.5-2.3-3.7-2.3-6.8c0-2.6,0.5-5.5,1.6-8.6
						c1-3.1,2.7-5.8,5-8.1s5.2-3.4,8.7-3.4c2.3,0,3.9,0.5,4.8,1.5c1,1,1.4,2.2,1.4,3.7c0,1.3-0.3,2.3-0.8,3.1
						c-0.6,0.7-1.3,1.1-2.2,1.1c-0.6,0-1.3-0.2-2-0.7c0.5-1.2,0.7-2.4,0.7-3.3c0-0.7-0.1-1.3-0.4-1.7s-0.7-0.6-1.2-0.6
						c-1.1,0-2.3,0.9-3.4,2.8c-1.1,1.8-2.1,4.1-2.8,6.7s-1.1,5-1.1,7.1c0,1.8,0.3,3.1,1,3.8c0.6,0.7,1.7,1,3.1,1
						c2,0,3.8-0.5,5.2-1.4c1.5-0.9,3-2.4,4.8-4.3h1.9C317.4,91.9,312.2,95.4,306,95.4z M326.4,95.4c-2.2,0-3.9-0.7-5.4-2.2
						c-1.4-1.5-2.2-3.8-2.2-6.9c0-2.8,0.6-5.7,1.7-8.8s2.8-5.7,5-7.8s4.8-3.2,7.9-3.2c1.5,0,2.7,0.3,3.5,0.8
						c0.8,0.5,1.1,1.2,1.1,2.1v0.4l0.6-3h8.1L342.7,86c-0.2,0.6-0.2,1.2-0.2,1.8c0,1.6,0.8,2.4,2.3,2.4c1.1,0,2-0.5,2.7-1.5
						c0.8-1,1.4-2.3,1.8-3.8h2.4c-1.4,4.1-3.1,6.8-5.2,8.3c-2.1,1.5-4.1,2.2-6.2,2.2c-1.6,0-2.9-0.4-3.8-1.3c-1-0.9-1.5-2.2-1.7-3.9
						c-1.1,1.5-2.3,2.8-3.6,3.8C329.9,94.9,328.3,95.4,326.4,95.4z M330.1,89.9c0.9,0,1.9-0.4,2.8-1.3s1.6-2.1,1.9-3.6l2.7-12.8
						c0-0.5-0.2-1-0.6-1.4c-0.4-0.5-1-0.7-1.8-0.7c-1.5,0-2.9,0.9-4.1,2.6c-1.2,1.8-2.2,3.9-2.8,6.3c-0.7,2.5-1,4.6-1,6.5
						c0,1.9,0.3,3.1,0.8,3.6C328.6,89.6,329.3,89.9,330.1,89.9z M353.2,66.7h8.1l-0.7,3.5c1.3-1.1,2.4-2,3.5-2.6
						c1-0.6,2.2-0.9,3.4-0.9c1.2,0,2.2,0.4,2.9,1.2c0.7,0.8,1,1.8,1,3c0,1.1-0.4,2.1-1.1,2.9c-0.7,0.8-1.7,1.2-3,1.2
						c-0.8,0-1.4-0.2-1.7-0.6s-0.5-1-0.7-1.7c-0.1-0.5-0.2-0.8-0.3-1.1c-0.1-0.2-0.3-0.3-0.6-0.3c-0.8,0-1.5,0.2-2,0.5
						c-0.5,0.3-1.3,0.9-2.1,1.7L355.4,95h-8.1L353.2,66.7z M377.4,95.4c-2.2,0-3.9-0.7-5.4-2.2c-1.4-1.5-2.2-3.8-2.2-6.9
						c0-2.8,0.6-5.7,1.7-8.8c1.1-3.1,2.8-5.7,5-7.8c2.2-2.1,4.8-3.2,7.9-3.2c1.5,0,2.7,0.3,3.5,0.8s1.1,1.2,1.1,2.1v0.2l2.8-13
						l8.4-1.1L393.7,86c-0.2,0.6-0.2,1.2-0.2,1.8c0,0.8,0.2,1.3,0.5,1.6c0.4,0.3,1,0.5,1.8,0.5c1.1,0,2-0.5,2.7-1.4
						c0.8-0.9,1.4-2.1,1.8-3.6h2.4c-2.3,6.8-6.1,10.1-11.4,10.1c-1.5,0-2.8-0.4-3.8-1.2c-1-0.8-1.6-2-1.8-3.6
						c-1,1.5-2.2,2.8-3.5,3.7C380.9,94.9,379.3,95.4,377.4,95.4z M381.1,89.9c0.9,0,1.8-0.4,2.7-1.2c0.9-0.8,1.6-2,1.9-3.5v-0.3
						l2.8-13c-0.3-1.3-1.1-2-2.3-2c-1.5,0-2.9,0.9-4.1,2.6c-1.2,1.8-2.2,3.9-2.8,6.3c-0.7,2.5-1,4.6-1,6.5c0,1.9,0.3,3.1,0.8,3.6
						C379.7,89.6,380.3,89.9,381.1,89.9z M406.8,95.4c-1.8,0-3.3-0.3-4.6-1c-1.2-0.7-2.2-1.6-2.8-2.7c-0.6-1.1-0.9-2.3-0.9-3.5
						c0-1.2,0.3-2.3,0.9-3.3c0.6-0.9,1.3-1.6,2.1-2c1.5-2.6,2.8-5.3,3.8-8c1.1-2.7,2.1-5.6,3.1-8.7l8.4-1.1c0.2,4.8,0.5,10.1,1,15.7
						c0.2,2.3,0.3,3.9,0.3,4.9c0,2.3-0.6,4.2-1.8,5.7s-2.6,2.5-4.3,3.2C410.3,95,408.6,95.4,406.8,95.4z M405,90.9
						c1.4,0,2.6-0.4,3.5-1.2c0.9-0.8,1.4-2.2,1.4-4c0-1.1-0.1-2.7-0.3-4.8c-0.4-4.3-0.6-7.2-0.7-8.7c-0.9,3-2.4,6.5-4.6,10.7
						c0.9,0.5,1.3,1.1,1.3,2c0,0.7-0.2,1.4-0.7,1.9c-0.5,0.6-1.1,0.8-1.8,0.8c-0.8,0-1.3-0.2-1.5-0.7c0,1.4,0.3,2.4,0.8,3
						C402.9,90.6,403.8,90.9,405,90.9z"/>
					<path id="Awesome_1_" class="st1" d="M136.8,52c-1.4,0-2.6-0.1-3.7-0.3s-2-0.8-2.7-1.6s-1.2-2.2-1.2-4c0-2.5,0.8-5.9,2.3-10.2
						s3.5-8.5,6-12.8c-1.9,0.1-3.4,0.4-4.5,0.8c-1.1,0.5-1.8,1.2-2.2,2.1c0.2,0,0.3,0.2,0.5,0.6c0.2,0.4,0.3,0.8,0.3,1.2
						c0,0.7-0.3,1.2-0.9,1.6s-1.4,0.6-2.3,0.6c-1.1,0-1.9-0.3-2.5-0.8c-0.6-0.6-1-1.4-1-2.4c0-1.3,0.5-2.5,1.5-3.5
						c1-1.1,2.4-1.9,4.2-2.5s3.7-0.9,5.9-0.9c0.8,0,1.8,0.1,2.9,0.2c3.1-4.9,6.4-8.9,9.8-12s6.7-4.7,9.9-4.7c1.8,0,3.3,0.3,4.5,0.8
						l-8.9,41.6h-8.1L151,25c-1.4-0.6-2.7-1.1-3.8-1.4c-1.2-0.3-2.4-0.5-3.7-0.6c-2.2,4.6-3.9,9.4-5.3,14.2
						c-1.4,4.8-2.1,8.7-2.1,11.6C136,50.2,136.3,51.3,136.8,52z M154.7,7.1c-1.6,0.9-3.3,2.5-5.1,4.8s-3.5,5.2-5.1,8.6
						c2.7,0.5,5,1.2,6.9,2L154.7,7.1z M167.9,45.8c-1.8,0-3.3-0.6-4.4-1.7c-1.1-1.1-1.7-2.8-1.7-5.1c0-0.9,0.2-2.2,0.5-3.7l3.8-18.2
						h8.1l-4.1,19.2c-0.1,0.5-0.2,0.9-0.2,1.4c0,1.7,0.6,2.5,1.7,2.5c1.1,0,2-0.4,2.7-1.3s1.4-2.1,1.8-3.6l3.8-18.2h8.1l-4.1,19.2
						c-0.2,0.9-0.3,1.6-0.3,2c0,1.2,0.6,1.9,1.9,1.9c1.7,0,3.3-1.1,4.8-3.3s2.7-4.8,3.6-7.8s1.4-5.6,1.4-7.8
						c-0.1,0.2-0.3,0.3-0.7,0.4c-0.4,0.1-0.8,0.1-1.1,0.1c-0.6,0-1.1-0.3-1.5-0.9c-0.4-0.6-0.5-1.3-0.5-2c0-0.9,0.3-1.6,0.9-2.2
						s1.5-0.8,2.6-0.8c1.2,0,2.2,0.5,2.7,1.4c0.6,0.9,0.8,2.1,0.8,3.5c0,3.4-0.6,7-1.8,10.9c-1.2,3.9-3,7.2-5.4,9.9s-5.4,4.1-9,4.1
						c-1.8,0-3.4-0.4-4.5-1.2c-1.2-0.8-1.9-2-2.3-3.6C173.8,44.3,171.1,45.8,167.9,45.8z M207.8,45.8c-2.8,0-5-0.7-6.5-2.2
						s-2.3-3.7-2.3-6.8c0-2.6,0.5-5.5,1.5-8.6c1-3.1,2.7-5.8,5-8.1c2.3-2.3,5.2-3.4,8.8-3.4c4.1,0,6.2,1.8,6.2,5.4
						c0,2.1-0.6,4.1-1.8,5.8c-1.2,1.8-2.8,3.2-4.8,4.3c-2,1.1-4.1,1.7-6.4,1.8c-0.1,1.1-0.1,1.9-0.1,2.3c0,1.8,0.3,3.1,1,3.8
						s1.7,1,3.1,1c2,0,3.8-0.5,5.2-1.4s3-2.4,4.8-4.3h1.9C219.1,42.4,213.9,45.8,207.8,45.8z M207.9,31.4c1.4-0.1,2.7-0.6,4-1.5
						c1.3-0.9,2.3-2.1,3.1-3.5c0.8-1.4,1.2-2.9,1.2-4.4s-0.5-2.3-1.4-2.3c-1.4,0-2.7,1.2-4,3.6C209.4,25.6,208.4,28.3,207.9,31.4z
						 M227.8,45.8c-1.8,0-3.3-0.3-4.6-1c-1.2-0.7-2.2-1.6-2.8-2.7s-0.9-2.3-0.9-3.5c0-1.2,0.3-2.3,0.9-3.3c0.6-0.9,1.3-1.6,2.1-2
						c1.5-2.6,2.8-5.3,3.8-8s2.1-5.6,3.1-8.7l8.4-1.1c0.2,4.8,0.5,10.1,1,15.7c0.2,2.3,0.3,3.9,0.3,4.9c0,0.9-0.1,1.6-0.2,2.2
						c1.8-1,3.1-2,4.1-2.8h2.4c-2.4,2.8-5.3,5.1-8.7,7.1c-1.1,1.2-2.4,2-4,2.6C231.1,45.6,229.5,45.8,227.8,45.8z M226,41.4
						c1.4,0,2.6-0.4,3.5-1.2c0.9-0.8,1.4-2.2,1.4-4c0-1.1-0.1-2.7-0.3-4.8c-0.4-4.3-0.6-7.2-0.7-8.7c-0.9,3-2.4,6.5-4.6,10.7
						c0.9,0.5,1.3,1.1,1.3,2c0,0.7-0.2,1.4-0.7,1.9c-0.5,0.6-1.1,0.8-1.8,0.8c-0.8,0-1.3-0.2-1.5-0.7c0,1.4,0.3,2.4,0.8,3
						C224,41.1,224.8,41.4,226,41.4z M251.3,45.7c-2.8,0-5-0.7-6.6-2.2s-2.4-3.7-2.4-6.8c0-2.6,0.5-5.4,1.6-8.5
						c1.1-3.1,2.8-5.8,5.1-8.1s5.3-3.4,8.8-3.4c4.8,0,7.2,3,7.2,9.1v0.1c0.1,0,0.3,0.1,0.6,0.1c1.2,0,2.7-0.3,4.3-1s3.1-1.5,4.4-2.4
						l0.5,1.5c-1.1,1.2-2.5,2.2-4.3,3s-3.7,1.4-5.7,1.7c-0.3,3.4-1.1,6.4-2.3,9c-1.2,2.6-2.8,4.5-4.8,5.9
						C255.7,45,253.6,45.7,251.3,45.7z M253.5,40.6c0.9,0,1.8-0.5,2.7-1.6c0.9-1,1.7-2.5,2.4-4.2c0.7-1.8,1.2-3.8,1.5-6
						c-1-0.2-1.5-1-1.5-2.4c0-1.5,0.6-2.6,1.8-3.1c-0.1-1.2-0.3-2.1-0.6-2.6c-0.3-0.5-0.8-0.7-1.6-0.7c-1.2,0-2.5,0.9-3.6,2.7
						c-1.2,1.8-2.1,4-2.8,6.5s-1.1,4.8-1.1,6.7c0,1.8,0.2,3,0.6,3.6C251.7,40.3,252.4,40.6,253.5,40.6z M302.3,45.8
						c-2.3,0-4-0.6-5.1-1.8c-1.1-1.2-1.6-2.7-1.6-4.6c0-0.8,0.1-1.7,0.3-2.7c0.2-1,0.4-2,0.6-2.9c0.2-0.9,0.3-1.5,0.4-1.8
						c0.3-1.3,0.6-2.6,0.8-3.9s0.4-2.3,0.4-3.1c0-1.9-0.7-2.9-2-2.9c-1,0-1.8,0.5-2.6,1.4c-0.8,1-1.4,2.2-1.8,3.8l-3.8,18.2h-8.1
						l4.1-19.5c0.1-0.5,0.2-0.9,0.2-1.4c0-1.7-0.6-2.5-1.7-2.5c-1.1,0-2,0.5-2.7,1.4c-0.8,1-1.4,2.2-1.8,3.8l-3.8,18.2h-8.1l6-28.3
						h8.1l-0.6,2.9c1.9-2.2,4.2-3.2,6.9-3.2c3.3,0,5.3,1.6,5.8,4.9c2.1-3.2,4.7-4.8,7.9-4.8c1.9,0,3.5,0.5,4.6,1.6s1.7,2.7,1.7,4.8
						c0,1.1-0.1,2.3-0.4,3.6c-0.3,1.3-0.6,3-1.1,4.9c-0.3,1.2-0.6,2.3-0.8,3.4c-0.2,1.1-0.4,2-0.4,2.6c0,0.8,0.2,1.3,0.5,1.8
						s0.9,0.6,1.8,0.6c1.1,0,2-0.4,2.7-1.2c0.7-0.8,1.4-2.1,2-3.8h2.4c-1.4,4.1-3,6.9-4.8,8.3C306.1,45.1,304.2,45.8,302.3,45.8z
						 M318.4,45.8c-2.8,0-4.9-0.7-6.5-2.2s-2.3-3.7-2.3-6.8c0-2.6,0.5-5.5,1.5-8.6s2.7-5.8,5-8.1s5.2-3.4,8.8-3.4
						c4.1,0,6.2,1.8,6.2,5.4c0,2.1-0.6,4.1-1.8,5.8c-1.2,1.8-2.8,3.2-4.8,4.3c-2,1.1-4.1,1.7-6.4,1.8c-0.1,0.8-0.1,1.4-0.1,1.7
						c0,3.1,1.2,4.7,3.5,4.7c1.1,0,2.2-0.3,3.4-0.8c1.2-0.6,2.3-1.3,3.3-2.2C327.1,43.1,323.9,45.8,318.4,45.8z M318.5,31.4
						c1.4,0,2.8-0.5,4-1.4c1.3-0.9,2.3-2.1,3.1-3.5c0.8-1.4,1.2-2.9,1.2-4.4s-0.5-2.3-1.4-2.3c-1.3,0-2.6,1.2-3.9,3.6
						S319.1,28.4,318.5,31.4z"/>
					<path id="profile-cards_1_" class="st1" d="M145.8,63.2h8.1l-0.9,4.2c1.9-1.6,4.1-2.4,6.6-2.4c2.1,0,3.8,0.7,5,2.1
						c1.2,1.4,1.9,3.7,1.9,6.8c0,3-0.4,6-1.3,9s-2.3,5.6-4.4,7.8c-2.1,2.1-4.8,3.2-8.2,3.2c-2.4,0-4-0.7-4.8-2l-2.9,13.8l-8.5,2
						L145.8,63.2z M150.8,89c1.8,0,3.3-0.8,4.5-2.5c1.2-1.7,2.1-3.7,2.6-6.1c0.5-2.4,0.8-4.6,0.8-6.6c0-3.1-0.9-4.7-2.8-4.7
						c-0.7,0-1.4,0.2-2.1,0.7c-0.7,0.5-1.3,1.2-1.8,2l-3.3,15.8C149,88.6,149.7,89,150.8,89z M171.8,65.3h8.1l-0.7,3.5
						c1.3-1.1,2.4-2,3.5-2.6c1-0.6,2.2-0.9,3.4-0.9c1.2,0,2.2,0.4,2.9,1.2s1,1.8,1,3c0,1.1-0.4,2.1-1.1,2.9s-1.7,1.2-3,1.2
						c-0.8,0-1.4-0.2-1.7-0.6c-0.3-0.4-0.5-1-0.7-1.7c-0.1-0.5-0.2-0.8-0.3-1.1c-0.1-0.2-0.3-0.3-0.6-0.3c-0.8,0-1.5,0.2-2,0.5
						c-0.5,0.3-1.3,0.9-2.1,1.7l-4.5,21.5h-8.1L171.8,65.3z M197.5,93.8c-2.8,0-5-0.7-6.6-2.2c-1.6-1.4-2.4-3.7-2.4-6.8
						c0-2.6,0.5-5.4,1.6-8.5c1.1-3.1,2.8-5.8,5.1-8.1c2.3-2.3,5.3-3.4,8.8-3.4c4.8,0,7.2,3,7.2,9.1v0.1c0.1,0,0.3,0.1,0.6,0.1
						c1.2,0,2.7-0.3,4.3-1c1.6-0.7,3.1-1.5,4.4-2.4l0.5,1.5c-1.1,1.2-2.5,2.2-4.3,3s-3.7,1.4-5.7,1.7c-0.3,3.4-1.1,6.4-2.3,9
						c-1.2,2.6-2.8,4.5-4.8,5.9C201.9,93.1,199.8,93.8,197.5,93.8z M199.7,88.7c0.9,0,1.8-0.5,2.7-1.6c0.9-1,1.7-2.5,2.4-4.2
						s1.2-3.8,1.5-6c-1-0.2-1.5-1-1.5-2.4c0-1.5,0.6-2.6,1.8-3.1c-0.1-1.2-0.3-2.1-0.6-2.6s-0.8-0.7-1.6-0.7c-1.2,0-2.5,0.9-3.6,2.7
						c-1.2,1.8-2.1,4-2.8,6.5s-1.1,4.8-1.1,6.7c0,1.8,0.2,3,0.6,3.6C197.9,88.4,198.6,88.7,199.7,88.7z M209.3,107.7
						c-2.1,0-3.8-0.6-5.1-1.7c-1.3-1.2-2-2.7-2-4.6c0-1.6,0.5-2.9,1.4-3.9c0.9-1,2-1.8,3.3-2.4c1.3-0.6,3-1.2,5.1-1.9l6.3-29.8
						c1-4.7,2.7-7.9,5.1-9.6c2.4-1.7,5.1-2.6,8.1-2.6c2.8,0,5.2,0.5,7.2,1.4c2,0.9,2.9,2.6,2.9,5.1c0,1.6-0.4,2.7-1.3,3.5
						c-0.8,0.7-1.9,1.1-3.2,1.1c-1,0-1.8-0.2-2.4-0.7s-1-1.3-1-2.3c0-0.7,0.2-1.4,0.5-1.9c0.4-0.6,0.8-0.8,1.4-0.8
						c0.3,0,0.4,0,0.5,0.1c0-0.8-0.3-1.3-0.9-1.7c-0.5-0.4-1.3-0.6-2.2-0.6c-1.7,0-3,0.6-4,1.8c-1,1.2-1.7,2.7-2,4.6l-1,4.6h4.5
						l-0.5,2.3h-4.5l-6.5,30.6c-0.8,3.5-2.1,6-3.9,7.5S211.5,107.7,209.3,107.7z M234.8,93.9c-1.8,0-3.3-0.6-4.4-1.7
						c-1.1-1.1-1.7-2.8-1.7-5.1c0-0.9,0.2-2.2,0.5-3.7l3.8-18.2h8.1l-4.1,19.2c-0.2,0.6-0.2,1.2-0.2,1.8c0,0.8,0.2,1.3,0.5,1.6
						c0.4,0.3,1,0.5,1.8,0.5c1.1,0,2.1-0.5,3.1-1.4s1.6-2.1,2-3.6h2.4c-1.4,4.1-3.2,6.8-5.4,8.3C239.1,93.2,236.9,93.9,234.8,93.9z
						 M207.8,102.7c0.6,0,1.3-0.4,1.9-1.1c0.6-0.7,1.1-1.8,1.4-3.3l0.7-3.3c-1.9,0.6-3.5,1.4-4.6,2.3s-1.7,2-1.7,3.1
						c0,0.8,0.3,1.4,0.8,1.8C206.8,102.5,207.3,102.7,207.8,102.7z M249.9,93.9c-1.8,0-3.3-0.6-4.4-1.7c-1.1-1.1-1.7-2.8-1.7-5.1
						c0-0.9,0.2-2.2,0.5-3.7l6.1-28.3l8.4-1.1l-6.5,30.6c-0.2,0.6-0.2,1.2-0.2,1.8c0,0.8,0.2,1.3,0.5,1.6c0.4,0.3,1,0.5,1.8,0.5
						c1.1,0,2.1-0.5,3.1-1.4c0.9-0.9,1.6-2.1,2-3.6h2.4c-1.4,4.1-3.2,6.8-5.4,8.3S252,93.9,249.9,93.9z M267.3,93.9
						c-2.8,0-4.9-0.7-6.5-2.2s-2.3-3.7-2.3-6.8c0-2.6,0.5-5.5,1.5-8.6c1-3.1,2.7-5.8,5-8.1c2.3-2.3,5.2-3.4,8.8-3.4
						c4.1,0,6.2,1.8,6.2,5.4c0,2.1-0.6,4.1-1.8,5.8s-2.8,3.2-4.8,4.3c-2,1.1-4.1,1.7-6.4,1.8c-0.1,0.8-0.1,1.4-0.1,1.7
						c0,3.1,1.2,4.7,3.5,4.7c1.1,0,2.2-0.3,3.4-0.8c1.2-0.6,2.3-1.3,3.3-2.2C276.1,91.1,272.8,93.9,267.3,93.9z M267.5,79.5
						c1.4,0,2.8-0.5,4-1.4c1.3-0.9,2.3-2.1,3.1-3.5c0.8-1.4,1.2-2.9,1.2-4.4c0-1.5-0.5-2.3-1.4-2.3c-1.3,0-2.6,1.2-3.9,3.6
						S268.1,76.5,267.5,79.5z M282.2,76.6h11.3l-1,4.5h-11.4L282.2,76.6z M304.6,93.9c-2.8,0-5-0.7-6.5-2.2
						c-1.5-1.5-2.3-3.7-2.3-6.8c0-2.6,0.5-5.5,1.6-8.6c1-3.1,2.7-5.8,5-8.1c2.3-2.3,5.2-3.4,8.7-3.4c2.3,0,3.9,0.5,4.8,1.5
						c1,1,1.4,2.2,1.4,3.7c0,1.3-0.3,2.3-0.8,3.1c-0.6,0.7-1.3,1.1-2.2,1.1c-0.6,0-1.3-0.2-2-0.7c0.5-1.2,0.7-2.4,0.7-3.3
						c0-0.7-0.1-1.3-0.4-1.7c-0.3-0.4-0.7-0.6-1.2-0.6c-1.1,0-2.3,0.9-3.4,2.8c-1.1,1.8-2.1,4.1-2.8,6.7c-0.7,2.6-1.1,5-1.1,7.1
						c0,1.8,0.3,3.1,1,3.8c0.6,0.7,1.7,1,3.1,1c2,0,3.8-0.5,5.2-1.4s3-2.4,4.8-4.3h1.9C315.9,90.5,310.8,93.9,304.6,93.9z M325,93.9
						c-2.2,0-3.9-0.7-5.4-2.2c-1.4-1.5-2.2-3.8-2.2-6.9c0-2.8,0.6-5.7,1.7-8.8c1.1-3.1,2.8-5.7,5-7.8c2.2-2.1,4.8-3.2,7.9-3.2
						c1.5,0,2.7,0.3,3.5,0.8c0.8,0.5,1.1,1.2,1.1,2.1v0.4l0.6-3h8.1l-4.1,19.2c-0.2,0.6-0.2,1.2-0.2,1.8c0,1.6,0.8,2.4,2.3,2.4
						c1.1,0,2-0.5,2.7-1.5c0.8-1,1.4-2.3,1.8-3.8h2.4c-1.4,4.1-3.1,6.8-5.2,8.3s-4.1,2.2-6.2,2.2c-1.6,0-2.9-0.4-3.8-1.3
						s-1.5-2.2-1.7-3.9c-1.1,1.5-2.3,2.8-3.6,3.8C328.4,93.5,326.8,93.9,325,93.9z M328.7,88.5c0.9,0,1.9-0.4,2.8-1.3
						c0.9-0.9,1.6-2.1,1.9-3.6l2.7-12.8c0-0.5-0.2-1-0.6-1.4s-1-0.7-1.8-0.7c-1.5,0-2.9,0.9-4.1,2.6c-1.2,1.8-2.2,3.9-2.8,6.3
						c-0.7,2.5-1,4.6-1,6.5s0.3,3.1,0.8,3.6C327.2,88.2,327.9,88.5,328.7,88.5z M351.8,65.3h8.1l-0.7,3.5c1.3-1.1,2.4-2,3.5-2.6
						c1-0.6,2.2-0.9,3.4-0.9s2.2,0.4,2.9,1.2s1,1.8,1,3c0,1.1-0.4,2.1-1.1,2.9s-1.7,1.2-3,1.2c-0.8,0-1.4-0.2-1.7-0.6
						s-0.5-1-0.7-1.7c-0.1-0.5-0.2-0.8-0.3-1.1c-0.1-0.2-0.3-0.3-0.6-0.3c-0.8,0-1.5,0.2-2,0.5c-0.5,0.3-1.3,0.9-2.1,1.7L354,93.6
						h-8.1L351.8,65.3z M376,93.9c-2.2,0-3.9-0.7-5.4-2.2c-1.4-1.5-2.2-3.8-2.2-6.9c0-2.8,0.6-5.7,1.7-8.8c1.1-3.1,2.8-5.7,5-7.8
						c2.2-2.1,4.8-3.2,7.9-3.2c1.5,0,2.7,0.3,3.5,0.8c0.8,0.5,1.1,1.2,1.1,2.1v0.2l2.8-13l8.4-1.1l-6.5,30.6
						c-0.2,0.6-0.2,1.2-0.2,1.8c0,0.8,0.2,1.3,0.5,1.6c0.4,0.3,1,0.5,1.8,0.5c1.1,0,2-0.5,2.7-1.4c0.8-0.9,1.4-2.1,1.8-3.6h2.4
						c-2.3,6.8-6.1,10.1-11.4,10.1c-1.5,0-2.8-0.4-3.8-1.2c-1-0.8-1.6-2-1.8-3.6c-1,1.5-2.2,2.8-3.5,3.7S377.9,93.9,376,93.9z
						 M379.7,88.5c0.9,0,1.8-0.4,2.7-1.2c0.9-0.8,1.6-2,1.9-3.5v-0.3l2.8-13c-0.3-1.3-1.1-2-2.3-2c-1.5,0-2.9,0.9-4.1,2.6
						c-1.2,1.8-2.2,3.9-2.8,6.3c-0.7,2.5-1,4.6-1,6.5s0.3,3.1,0.8,3.6C378.2,88.2,378.9,88.5,379.7,88.5z M405.4,93.9
						c-1.8,0-3.3-0.3-4.6-1c-1.2-0.7-2.2-1.6-2.8-2.7c-0.6-1.1-0.9-2.3-0.9-3.5c0-1.2,0.3-2.3,0.9-3.3c0.6-0.9,1.3-1.6,2.1-2
						c1.5-2.6,2.8-5.3,3.8-8c1.1-2.7,2.1-5.6,3.1-8.7l8.4-1.1c0.2,4.8,0.5,10.1,1,15.7c0.2,2.3,0.3,3.9,0.3,4.9
						c0,2.3-0.6,4.2-1.8,5.7c-1.2,1.5-2.6,2.5-4.3,3.2C408.9,93.6,407.2,93.9,405.4,93.9z M403.6,89.5c1.4,0,2.6-0.4,3.5-1.2
						s1.4-2.2,1.4-4c0-1.1-0.1-2.7-0.3-4.8c-0.4-4.3-0.6-7.2-0.7-8.7c-0.9,3-2.4,6.5-4.6,10.7c0.9,0.5,1.3,1.1,1.3,2
						c0,0.7-0.2,1.4-0.7,1.9c-0.5,0.6-1.1,0.8-1.8,0.8c-0.8,0-1.3-0.2-1.5-0.7c0,1.4,0.3,2.4,0.8,3
						C401.5,89.2,402.4,89.5,403.6,89.5z"/>
				</g>
			</g>
		</g>
	</g>
</g>
</svg>
