<svg id="Capa_1" enable-background="new 0 0 512 512" height="512" viewBox="0 0 512 512" width="512" xmlns="http://www.w3.org/2000/svg"><g><path d="m441.897 497.415c-1.942-40.225-20.097-75.07-51.099-101.199-1.428-1.203-3.291-3.341-4.725-4.489-.713-.571-.394-2.636-1.108-3.193-32.474-25.338-65.846-36.902-78.218-40.592-2.321-.692-4.684-1.189-7.05-1.706-17.628-3.846-14.714-32.794-14.714-32.794h-28.984-28.984s2.914 28.948-14.714 32.794c-2.366.516-4.729 1.013-7.05 1.706-12.371 3.689-45.743 15.254-78.217 40.591-.714.557-.62 2.624-1.333 3.194-1.435 1.149-3.534 3.286-4.962 4.489-31.002 26.129-47.267 60.969-49.209 101.194-.228 4.725-.226 3.616.064 8.604l370.237.005c.291-4.987.294-3.878.066-8.604z" fill="#ffcebf"/><path d="m443.78 512h-21.774c-.031-1.656-.082-3.291-.154-4.906-1.944-40.226-21.445-77.532-52.446-103.657-11.674-9.843-24.438-18.37-37.922-25.518-13.844-7.354-28.09-12.024-42.798-16.93-6.902-2.304-14.173-2.726-18.637-9.144-3.003-4.33-4.515-9.627-5.523-14.739-.175-.874-1.245-14.688-1.635-23.667h22.093s-2.918 28.96 14.72 32.8c2.362.514 4.721 1.012 7.038 1.702 13.189 3.932 50.263 16.817 84.656 45.807 31.011 26.135 50.512 63.441 52.456 103.667.225 4.721.225 9.597-.074 14.585z" fill="#ffb09e"/><path d="m443.784 511.99h-375.571c-.292-4.977-.292-9.861-.063-14.58 1.939-40.227 21.443-77.527 52.445-103.658 2.137-1.803 4.284-3.545 6.442-5.214 21.318 12.159 60.065 25.358 128.96 27.594 68.895-2.236 107.642-15.435 128.96-27.594 2.158 1.669 4.305 3.411 6.442 5.214 31.002 26.131 50.506 63.431 52.445 103.658.232 4.719.232 9.603-.06 14.58z" fill="#6bd9e7"/><path d="m443.78 512s-21.774 0-21.774-.01c-.031-1.656-.082-3.281-.154-4.896-1.944-40.226-21.445-77.532-52.446-103.657-2.006-1.687-4.032-3.332-6.099-4.937 8.691-3.24 15.829-6.644 21.651-9.967.288.226.566.442.854.669 1.9 1.492 3.741 2.992 5.585 4.546 21.322 17.969 37.203 41.214 45.668 67.052 4.391 13.402 6.595 25.829 6.911 39.937.082 3.672.031 7.437-.196 11.263z" fill="#2ed1e2"/><g fill="#ef4424"><path d="m101.258 236.178c-7.56 12.557-9.588 27.561-14.202 41.473-2.307 6.957-5.94 13.54-10.625 19.078-6.036 7.136-3.048 18.038 5.874 20.82.228.071.448.138.66.201 26.991 8.046 54.517 5.035 77.39-9.598 19.46-12.449 31.801-36.703 26.073-59.744-5.526-22.231-27.747-41.948-51.704-36.371-13.546 3.154-26.278 12.201-33.466 24.141z"/><path d="m410.739 236.178c7.56 12.557 9.588 27.561 14.202 41.473 2.307 6.957 5.94 13.54 10.625 19.078 6.036 7.136 3.048 18.038-5.874 20.82-.228.071-.448.138-.66.201-26.991 8.046-54.517 5.035-77.39-9.598-19.46-12.449-31.801-36.703-26.073-59.744 5.526-22.231 27.747-41.948 51.704-36.371 13.546 3.154 26.278 12.201 33.466 24.141z"/></g><g><path d="m429.689 317.553c-.226.062-.442.134-.658.195-3.61 1.08-7.231 1.954-10.851 2.633 3.106-4.587 3.096-11.036-.936-15.798-4.68-5.544-8.311-12.127-10.625-19.08-4.608-13.916-6.634-28.923-14.194-41.471-7.19-11.941-19.923-20.993-33.469-24.15-4.731-1.101-9.391-1.214-13.865-.525 9.133-6.716 20.458-10.049 32.183-7.323 13.546 3.158 26.279 12.199 33.469 24.14 7.56 12.558 9.586 27.565 14.194 41.471 2.314 6.963 5.945 13.546 10.625 19.079 6.038 7.14 3.055 18.042-5.873 20.829z" fill="#d73d24"/></g><g fill="#ffcebf"><path d="m141.646 231.531h-5.135c-15.487 0-28.042-12.555-28.042-28.042 0-15.487 12.555-28.042 28.042-28.042h5.135z"/><path d="m370.351 231.531h5.135c15.487 0 28.042-12.555 28.042-28.042 0-15.487-12.555-28.042-28.042-28.042h-5.135z"/></g><path d="m372.825 106.793.012 3.842-.116 39.825.002 4.674-.078 34.612-4.534 12.237s-.732 25.677-1.121 29.548c-2.757 27.525-14.784 41.786-33.302 60.304-21.117 21.117-45.45 30.55-77.688 30.279-56.418-.474-102.947-39.568-114.059-97.883-.728-3.823-.589-7.807-.589-11.784v-14.515l-2.195-8.186v-39.266-43.687z" fill="#ffeee6"/><path d="m360.11 106.735 12.611 47.757s-.203 64.199-.597 68.069c-2.751 27.531-15.077 52.235-33.597 70.745-21.112 21.122-50.284 34.184-82.527 34.184-3.593 0-7.155-.16-10.662-.491 27.989-2.516 53.11-14.927 71.865-33.693 18.521-18.51 30.846-43.215 33.597-70.745.395-3.87.597-7.805.597-11.782v-104.044z" fill="#ffdfcf"/><g><g><path d="m208.292 210.989c-4.143 0-7.5-3.358-7.5-7.5v-14.345c0-4.142 3.357-7.5 7.5-7.5s7.5 3.358 7.5 7.5v14.345c0 4.142-3.357 7.5-7.5 7.5z" fill="#596c76"/></g><g><path d="m303.705 210.989c-4.143 0-7.5-3.358-7.5-7.5v-14.345c0-4.142 3.357-7.5 7.5-7.5s7.5 3.358 7.5 7.5v14.345c0 4.142-3.357 7.5-7.5 7.5z" fill="#596c76"/></g></g><path d="m372.716 189.746v21.033c0 3.977-.2 7.912-.589 11.784-2.757 27.525-15.078 52.23-33.596 70.748-21.117 21.117-50.294 34.185-82.532 34.185-60.489 0-110.225-46.011-116.128-104.933-.389-3.872-.589-7.807-.589-11.784v-21.033s24.124 36.744 87.456 46.782c19.378 3.071 39.144 3.071 58.522 0 63.332-10.038 87.456-46.782 87.456-46.782z" fill="#f5f8f9"/><path d="m372.721 189.742v21.037c0 3.977-.203 7.912-.597 11.782-2.751 27.531-15.077 52.235-33.597 70.745-21.112 21.122-50.284 34.184-82.527 34.184-2.683 0-5.345-.061-8.018-.277-.885-.053-1.77-.128-2.644-.213 27.989-2.516 53.11-14.927 71.865-33.693 18.521-18.51 30.846-43.215 33.597-70.745.395-3.87.597-7.805.597-11.782v-.416c14.905-10.844 21.324-20.622 21.324-20.622z" fill="#d9e7ec"/><path d="m372.832 100.686c0-19.46-6.485-38.428-18.699-53.494-23.354-28.805-58.868-47.192-98.642-47.192-38.056 0-72.214 16.834-95.55 43.521-13.5 15.438-20.78 35.417-20.78 56v50.887s52.358 4.017 74.118-21.378c1.661-1.939 4.734-1.717 6.089.447 5.58 8.907 20.079 26.651 47.101 26.828 3.04.02 4.817-3.41 3.122-5.931-3.179-4.727-6.781-11.969-5.956-19.704.315-2.953 3.691-4.467 6.072-2.689 12.956 9.679 53.155 35.803 103.129 30.118z" fill="#ef4424"/><path d="m372.841 158.098c-7.385.843-14.564.987-21.466.597v-58.01c0-19.46-6.49-38.426-18.699-53.495-21.239-26.187-52.518-43.765-87.92-46.737 3.539-.298 7.118-.453 10.739-.453 39.774 0 75.279 18.39 98.637 47.19 12.219 15.068 18.699 34.035 18.699 53.495z" fill="#d73d24"/></g></svg>