<?xml version="1.0" encoding="iso-8859-1"?>
<!-- Generator: Adobe Illustrator 19.0.0, SVG Export Plug-In . SVG Version: 6.00 Build 0)  -->
<svg version="1.1" id="Capa_1" xmlns="http://www.w3.org/2000/svg" xmlns:xlink="http://www.w3.org/1999/xlink" x="0px" y="0px"
	 viewBox="0 0 512 512" style="enable-background:new 0 0 512 512;" xml:space="preserve">
<g>
	<g>
		<path d="M436,150c-4.142,0-7.5,3.357-7.5,7.5V437h-75V157.5c0-4.143-3.358-7.5-7.5-7.5c-4.142,0-7.5,3.357-7.5,7.5V437h-75V157.5
			c0-4.143-3.358-7.5-7.5-7.5c-4.142,0-7.5,3.357-7.5,7.5V437h-75V157.5c0-4.143-3.358-7.5-7.5-7.5c-4.142,0-7.5,3.357-7.5,7.5V437
			h-75V157.5c0-4.143-3.358-7.5-7.5-7.5c-4.142,0-7.5,3.357-7.5,7.5v317c0,20.678,16.822,37.5,37.5,37.5h300
			c20.678,0,37.5-16.822,37.5-37.5v-317C443.5,153.357,440.142,150,436,150z M428.5,474.5c0,12.406-10.093,22.5-22.5,22.5H106
			c-12.407,0-22.5-10.094-22.5-22.5V452h345V474.5z"/>
	</g>
</g>
<g>
	<g>
		<path d="M446,120h-2.5V82.5c0-20.678-16.822-37.5-37.5-37.5h-82.5v-7.5C323.5,16.822,306.678,0,286,0h-60
			c-20.678,0-37.5,16.822-37.5,37.5V45H106c-20.678,0-37.5,16.822-37.5,37.5V120H66c-4.142,0-7.5,3.357-7.5,7.5s3.358,7.5,7.5,7.5
			h380c4.142,0,7.5-3.357,7.5-7.5S450.142,120,446,120z M203.5,37.5c0-12.406,10.093-22.5,22.5-22.5h60
			c12.407,0,22.5,10.094,22.5,22.5V45h-105V37.5z M428.5,120h-345V82.5C83.5,70.094,93.593,60,106,60h300
			c12.407,0,22.5,10.094,22.5,22.5V120z"/>
	</g>
</g>
<g>
</g>
<g>
</g>
<g>
</g>
<g>
</g>
<g>
</g>
<g>
</g>
<g>
</g>
<g>
</g>
<g>
</g>
<g>
</g>
<g>
</g>
<g>
</g>
<g>
</g>
<g>
</g>
<g>
</g>
</svg>
