<svg id="Capa_1" data-name="Capa 1" xmlns="http://www.w3.org/2000/svg" viewBox="0 0 451.5 541.91"><defs><style>.cls-1{fill:#ffd6cf;}.cls-2{fill:#c99956;}.cls-3{fill:#dc5050;}.cls-4{fill:#4477cb;}.cls-5{fill:#bb2f2f;}.cls-6{fill:#f9c768;}.cls-7{fill:#4879cc;}.cls-8{fill:#ecf1f9;}.cls-9{fill:#62c3ee;}.cls-10{fill:#fdecc9;}.cls-11{fill:#cfceca;}.cls-12{fill:#28415a;}.cls-13{fill:#fedc66;}.cls-14{fill:#fcfcfc;}.cls-15{fill:#333;}.cls-16{fill:#f0c368;}.cls-17{fill:#63b575;}</style></defs><path class="cls-1" d="M199.75,257.09c0-6.62-.12-13.23,0-19.85a7.53,7.53,0,0,0-3.21-6.71c-6-4.77-12.09-9.51-16.91-15.6s-7.66-13.3-10.28-20.53c-1.09-3-2.52-5.19-6.09-5-.11-3.21-1.46-4.22-4.38-2.49-9.3-6.18-15.34-14.26-15.15-26l.19.09-.06.21.73-1.18c2.08-3.16,5.14-5.36,7.69-8.06a3.66,3.66,0,0,1,4.47-1,25.12,25.12,0,0,0,10.89,1.76c-12.47-17.16-14.22-29.79-4.9-36,.7,7.64,2.82,14.54,9.25,19.26,6.27,4.61,13.47,5.57,21.68,5.67-2.57-2.33-4.65-4-6.42-5.87-5.12-5.56-8.16-11.91-6.72-19.72.18-1,0-2.46,1.46-2.5a3,3,0,0,1,2.57,1.77c.41.73.66,1.55,1.09,2.27a28.16,28.16,0,0,0,18.42,13.17l.14.29-.21-.23-2.4-4.85.59-.73c6.72,4.36,14.4,7.19,20.13,13.12,2.22,2.29,5.3,1.83,7.65-.72a14.62,14.62,0,0,1,3.41-3.15c5.32-3.05,10.6-6.16,15.9-9.25l.58.72q-1.19,2.43-2.39,4.86l-.07-.06c8.3-2,14.86-6.44,18.88-14.15.76-1.45,1.55-3.2,3.18-3,2,.22,1.59,2.47,1.71,3.85.8,9.17-3.7,15.87-10.32,21.55-.83.72-2.27.95-2.36,2.64,7.54-.1,14.74-1.06,21-5.63,6.45-4.74,8.63-11.71,9.3-19.84,3.51,3.07,5.18,6.23,5.7,9.88,1.51,10.75-4.21,18.8-10.87,26.84a33.17,33.17,0,0,0,11.49-2c1.2-.41,2.24-.72,3.3.34,2.87,2.89,6.18,5.36,8.49,8.79l.74,1.17-.07-.19.18-.1c.12,11.67-5.71,19.86-15.13,26-2.91-1.72-4.26-.69-4.39,2.48-2.89-.07-4.44,1.29-5.61,4-3.24,7.59-5.72,15.6-11.19,22.08-4.92,5.82-10.83,10.55-16.76,15.24a6.62,6.62,0,0,0-2.91,5.77c.12,6.85,0,13.71,0,20.56l-18,0c-.45-.52-.9-.68-1.33,0l-13.32,0c-.43-.7-.87-.51-1.31,0Z"/><path class="cls-2" d="M201.63,126l2.4,4.85.08-.06a28.15,28.15,0,0,1-18.43-13.17c-.43-.72-.68-1.54-1.09-2.27a3,3,0,0,0-2.57-1.77c-1.49,0-1.28,1.55-1.46,2.5-1.44,7.81,1.6,14.16,6.72,19.72,1.77,1.92,3.85,3.54,6.42,5.87-8.21-.1-15.41-1.06-21.68-5.67-6.43-4.72-8.55-11.62-9.25-19.26-9.32,6.23-7.57,18.86,4.9,36A25.12,25.12,0,0,1,156.78,151a3.66,3.66,0,0,0-4.47,1c-2.55,2.7-5.61,4.9-7.69,8.06a1,1,0,0,0-.73,1.18l.06-.21-.19-.09c-7.22,7.06-13.29,15-17.1,24.4s-2.12,15.74,5.32,22.43c4.79,4.3,10.43,7.36,15.92,10.63,4.66,2.78,9.48,5.35,13.38,9.22,6.3,6.25,5.32,12.6-2.67,16.39-3.36,1.59-7,2.7-10.46,4-2.48.93-5,1.74-7.45,2.79-8.24,3.57-9.81,6.58-8,15-4.8-4.9-4.59-10.71.61-14.92,3.61-2.92,7.93-4.55,12.17-6.28,3.57-1.46,7.27-2.65,10.54-4.75,4-2.55,4.41-5.81,1.2-9.3a31.22,31.22,0,0,0-7.58-5.52c-6.57-3.82-13.45-7.13-19.41-11.91-4.5-3.61-8.24-7.8-10.09-13.4-1.8-5.43-1.13-10.72.94-15.91a93,93,0,0,1,18.52-28.75c1.86-2,2.33-3.38-.07-5.1a5.81,5.81,0,0,1-1.7-1.86c-4.2-7.53-10.4-13.43-15.89-19.93-2-2.4-2.55-2.14-4,.28a666.8,666.8,0,0,0-43.8,86.85C54.94,261.16,40,308.22,31.43,357.17c-5.48,31.25-8.23,62.68-5.51,94.41,2.16,25.24,7.71,49.56,20.33,71.86a1.55,1.55,0,0,1,.2,2c-1.64-1.4-3.28-2.72-4.82-4.15-18.35-17-28.47-38.66-34.49-62.47-7.54-29.82-8.3-60.15-6-90.62C5.8,307.61,21.24,249.6,43,193.15,59,151.72,78.35,112,103.44,75.21a285.8,285.8,0,0,1,17.42-23.12c1.31-1.55,1.38-2.57.26-4.35-7.07-11.29-6.66-24.65.88-35A30.83,30.83,0,0,1,154.71,1c12.36,3.16,21.21,13.21,22.95,26.46.35,2.63,1,2.82,3.31,2a79.08,79.08,0,0,1,42-3.65,15.43,15.43,0,0,0,5.38,0,78.81,78.81,0,0,1,42,3.58c2.49.93,3.11.57,3.47-2.14a30.87,30.87,0,0,1,55.55-14.63c7.6,10.29,8,23.82,1.08,35-.88,1.41-1.54,2.39-.17,4.06,29.22,35.73,50.59,76,68.71,118.2,21.08,49.07,36.73,99.81,45.7,152.52,5.8,34.14,8.67,68.47,5.31,103.08-2.49,25.57-8.23,50.23-21.52,72.62a98.57,98.57,0,0,1-23.45,27.24c-.63-.78-.19-1.29.1-1.79,11.54-20.29,17.22-42.37,19.75-65.36,4.51-41-.1-81.46-8.87-121.48A695.65,695.65,0,0,0,334.4,130c-.78-1.33-1.62-2.62-2.73-4.41-4.26,7.38-12.1,11.22-15.3,19a16.56,16.56,0,0,1-3,4.07c-3.47,4.09-3.47,4,.19,8.27a93.36,93.36,0,0,1,16.54,26.2c4.43,11,2.46,19.73-6.21,27.88-4.79,4.51-10.49,7.69-16.17,10.89-4.2,2.37-8.59,4.46-12.24,7.67-4.78,4.19-4.45,8.2,1.15,11,4.29,2.17,8.86,3.79,13.28,5.73,3.65,1.6,7.3,3.25,10,6.31,3.25,3.67,3.12,8.42-.68,11.72,2.17-8.77-3.75-11.53-9.79-14-4.23-1.74-8.64-3.05-12.92-4.69a33.18,33.18,0,0,1-5.86-2.8c-5-3.16-5.91-8.25-2.36-13,2.51-3.35,5.92-5.67,9.41-7.83,4.83-3,9.73-5.83,14.56-8.8a54.81,54.81,0,0,0,7.8-5.86c6.53-5.82,8.26-12.83,5.14-21-3.78-9.86-10-18.09-17.5-25.39l-.18.09.07.19a1,1,0,0,0-.74-1.17c-2.31-3.43-5.62-5.9-8.49-8.79-1.06-1.06-2.1-.75-3.3-.34a33.17,33.17,0,0,1-11.49,2c6.66-8,12.38-16.09,10.87-26.84-.52-3.65-2.19-6.81-5.7-9.88-.67,8.13-2.85,15.1-9.3,19.84-6.23,4.57-13.43,5.53-21,5.63.09-1.69,1.53-1.92,2.36-2.64,6.62-5.68,11.12-12.38,10.32-21.55-.12-1.38.27-3.63-1.71-3.85-1.63-.18-2.42,1.57-3.18,3-4,7.71-10.58,12.11-18.88,14.15l.07.06q1.2-2.43,2.39-4.86c.1-.2.33-.45.28-.6-.18-.46-.54-.29-.86-.12-5.3,3.09-10.58,6.2-15.9,9.25a14.62,14.62,0,0,0-3.41,3.15c-2.35,2.55-5.43,3-7.65.72-5.73-5.93-13.41-8.76-20.13-13.12-.32-.16-.68-.34-.86.13C201.31,125.58,201.53,125.84,201.63,126Zm-65.55,15.58h-.43l.16.27c.84,2.73,2.81,4.69,4.56,6.83s3.26,2.45,5.51.27,1-3.37-.61-4.86a30.66,30.66,0,0,1-8.87-16.59c-.73-3.58-.14-7.24-.79-11.77a21,21,0,0,0-1.05,2.45c-1.71,6.9-.84,13.59,1.56,20.19C136.47,139.37,138.23,140.6,136.08,141.62Zm179.37,0c-1.66-.41-.82-1.43-.49-2.22a31.68,31.68,0,0,0,2.47-8.28c.56-4.87,1.08-9.8-1.56-14.4.52,11.2-2.3,21-10.87,28.7-1.74,1.56-.3,2.56.75,3.49s2.12,3,4.1,1.06c2.4-2.38,4.78-4.76,5.87-8.08C316,141.46,315.89,141.36,315.45,141.62ZM152,244.69a19.9,19.9,0,0,0,8.25-3.49c3.64-2.51,4.29-5.91,2-9.74a17.09,17.09,0,0,0-5.66-5.5c-6.89-4.43-13.91-8.67-20.78-13.13a32,32,0,0,1-10.27-10c-4.43-7.24-2.37-14.19.87-21,5.2-11,13.3-19.73,21.84-28.13.94-.93,1.9-1.85,2.81-2.81.42-.44.78-1,.4-1.62a1.57,1.57,0,0,0-1.83-.83,7.13,7.13,0,0,0-2.47,1.41c-11,10.1-19.75,21.77-25,35.83C119,194.07,121,201.43,127.06,208s13.65,10.22,21.08,14.44c3.9,2.2,7.85,4.32,10.77,7.82,3.29,3.92,2.49,8.38-1.89,11-1.75,1-3.53,2-5.3,3.07-.95.27-2.18,0-2.76,1.42A4,4,0,0,0,152,244.69Zm147.48,0c.9.63,1.78,1.32,3.13,1-.71-1.33-1.88-1.08-2.82-1.36-1.45-.85-2.88-1.72-4.36-2.53-5.64-3.08-6.34-8-1.79-12.68,3-3.06,6.8-5,10.45-7.05,7.41-4.26,15.1-8.09,20.91-14.67,5.48-6.22,7.26-13.13,4.55-21.1s-7-14.8-11.75-21.49a98.37,98.37,0,0,0-13.78-15.27c-1.13-1-2.58-2-3.82-.76-1.43,1.43.43,2.3,1.24,3.15,2.66,2.79,5.52,5.4,8.12,8.24,7.09,7.78,13.75,15.89,17.26,26,3.29,9.51,1.08,16.76-6.61,23.19-6.52,5.45-14.09,9.24-21.2,13.76-3.55,2.26-7.23,4.43-9.61,8.07-2.67,4.1-1.82,8,2.39,10.47A20.63,20.63,0,0,0,299.51,244.7ZM311.14,53.61a1.8,1.8,0,0,1-1,1.54c-4.75.22-8.13-2.1-11.06-5.61a38.73,38.73,0,0,0-5.58-5.11c-19.37-15.58-41.37-20.9-65.77-16.77a12.87,12.87,0,0,1-4.29-.08c-27.85-4.4-52,2.92-72,23.05a14.14,14.14,0,0,1-10.07,4.55,1.75,1.75,0,0,1-1-1.58c2.23-.89,5.05.36,6.92-1.88a160.1,160.1,0,0,1,19.77-16,7.74,7.74,0,0,0,4-2.38c5.09-1.62,5.66-2.65,4.58-8.27C173,11.25,160.84,1.6,146.16,1.88c-12.22.23-20.92,6.4-25.81,17.25-5,11.08-3.1,21.65,4.69,31.06,3.68,4.45,7.73,7.66,13.76,4l-.41,1.94A30.64,30.64,0,0,0,123,67c-8.79,11.36-11.11,24.37-9.08,38.26a46,46,0,0,0,19,31.58c.49.27.54.09.33-.34-.22-1.18-.41-2.37-.66-3.54-1.3-6-1.33-12,1.21-17.73.68-1.52,1.06-4.19,3.33-3.56,2.6.72.89,3.13.63,4.66-2,12,3.59,24.58,14,30.67a23.94,23.94,0,0,0,11.93,3.73c-4.23-5.85-7.37-11.37-8.45-17.81A18.51,18.51,0,0,1,160.58,116c.74-.75,1.47-1.82,2.72-1.4,1.41.47,1.31,1.87,1.46,3,.08.6.07,1.21.12,1.81a22.22,22.22,0,0,0,21.5,20.12c.48,0,1-.1,1.07-1-.7-.76-1.52-1.63-2.31-2.52C178,128,176.5,117.27,181.44,109c.6-1,1.07-2.44,2.56-2.13s1.23,1.87,1.31,3c.53,8,5.43,12.84,11.91,16.53.6.34,1.3.94,2,.32s.11-1.38-.12-2a20.75,20.75,0,0,1-.76-9.31c.7-6.28,3.75-11.16,9.55-14s11.13-1.49,15.77,2.52c1.92,1.65,2.9,1,4.52-.25,8.13-6.41,18.36-4,23.14,5.17,2.6,5,2.54,10.18,1.24,15.49-.19.77-.91,1.68-.15,2.37s1.57-.1,2.25-.5c6.51-3.73,11.23-8.71,11.62-16.71.05-1-.09-2.37,1.3-2.65s1.87.91,2.39,1.84c4.24,7.6,4.09,15.24-.25,22.69a91.39,91.39,0,0,1-5.69,7.83c8.46,1.14,18.12-5.23,21.26-13.79a25.61,25.61,0,0,0,1.57-8.12c0-1.07.17-2.28,1.43-2.69,1.09-.35,1.76.52,2.46,1.17a17.94,17.94,0,0,1,4.32,6.17c3,7,1.31,13.51-1.73,19.88-1.41,3-3.27,5.71-5.23,9.09,9.57-1.63,16.87-5.68,21.55-13.75a30.57,30.57,0,0,0,3.76-22.63c-.23-1-.69-2.27.62-2.87,1.51-.7,2.18.53,2.77,1.59a26.47,26.47,0,0,1,2.37,6.42c1.48,5.72,0,11.25-.9,16.82-.21.44-.14.6.34.34,1.15-.86,2.39-1.63,3.45-2.59,17.07-15.47,20.37-39.09,11.79-58.57-4.11-9.31-10.64-16.57-20.92-19.53l-.18-2c4.55,2.37,8.2,1.89,12.07-2.07,12.54-12.82,12.07-32-1.82-43.75-8.42-7.11-18.29-8.45-28.54-4.74S277.92,15,275.8,25.76c-1,5.22-.38,5.95,4.65,7.54a7.65,7.65,0,0,0,4,2.39c3.38,2.48,6.78,4.92,10.13,7.43s5.87,6.34,9.63,8.58C306.06,54,308.91,52.69,311.14,53.61ZM40.14,517l.65.48-.23-.83c-14.29-30.82-18-63.56-17.36-97,.13-7,.8-13.95,1.27-20.92,1.37-20.49,4.74-40.68,9-60.74a657,657,0,0,1,28.2-95.69c15.08-40.19,33.25-78.89,55.56-115.59a4.57,4.57,0,0,0,.2-5.24,51.29,51.29,0,0,1-5.52-31.9c1.82-12.36,6.84-23.06,17.18-30.7,1.33-1,1.53-1.61.1-2.65-6.8-4.91-4.56-6-10,.53-.46.56-.9,1.13-1.35,1.7-22,28.33-39.52,59.38-54.71,91.81a698.12,698.12,0,0,0-50,148.09A483.57,483.57,0,0,0,2.18,377.74c-1,20.85-.61,41.72,2.82,62.4,3.51,21.23,9.42,41.65,21.21,59.94C30.18,506.24,34.32,512.34,40.14,517Zm371.26,0a7.7,7.7,0,0,0,3-2.52,114.3,114.3,0,0,0,15.85-22.83c13-24.91,17.69-51.89,19.12-79.54a374,374,0,0,0-2.95-67.47c-5.14-39.83-14.65-78.67-27.21-116.78a670.88,670.88,0,0,0-47.94-111.53c-11.35-20.79-24-40.77-38.74-59.3-5.56-7-3.23-5.84-10.16-.84-1.42,1-1.29,1.68.08,2.65a28.48,28.48,0,0,1,6.67,6.06c13.13,17.69,14.4,36.51,5.16,56.22-1,2.07-1.26,3.5,0,5.58a647.18,647.18,0,0,1,43.78,86c18.82,44.32,33.43,90,42.42,137.32a440,440,0,0,1,7.42,61.66,292.6,292.6,0,0,1-2.36,54.8A180.52,180.52,0,0,1,411,516.67l-.24.82ZM213.94,101.76c-5,0-8.59,2.54-11.44,6.47-1.2,1.66-1,2.66.82,3.69q7.55,4.27,14.93,8.79c1.66,1,2.92,1.57,4.72,0s4.12-1.31,6,.21a2.55,2.55,0,0,0,3.47.32q7.84-4.8,15.85-9.35c1.9-1.08,1.77-2.1.71-3.72-4.87-7.46-14-8.63-20.84-2.31-2,1.86-3,1.82-4.82-.07A12.79,12.79,0,0,0,213.94,101.76ZM251.83,118c0-1.68.18-3.72-1.3-4.68-1.66-1.07-3.1.67-4.51,1.45-2.53,1.39-4.87,3.19-7.49,4.37-4.95,2.24-7.84,5.07-5.76,11.13.73,2.15,1,2.65,2.91,1.51,4.22-2.56,8.4-5.22,12.73-7.58A6.08,6.08,0,0,0,251.83,118Zm-32.29,7.28c.56-1.52-.16-2.25-1.18-2.85-5.19-3.06-10.37-6.15-15.58-9.19-.79-.46-1.62-1-2.4.3-1.81,3.14-.55,8.57,2.62,10.51,3.6,2.2,7.25,4.32,10.87,6.49,4.1,2.45,4.08,2.45,4.9-2.33C219,127.1,219.32,126.06,219.54,125.23Zm11.39,4.52c0-4.94-2-8.24-5.09-8.3s-5.2,3.22-5.24,8.15,2,8.39,4.88,8.5C228.72,138.22,230.93,134.84,230.93,129.75Zm73.83,116.47-.26.13.26.13Zm1.93.84.22.15,0-.23ZM147,246.38l-.25-.16,0,.25Zm-2.29.83,0-.23-.26.1Z"/><path class="cls-3" d="M291.65,336.55c1.4.38,2.59-.33,3.83-.73q17.24-5.46,34.45-11c3.91-1.24,4-1.17,3.27,2.76q-5.85,33.11-11.69,66.21c-.21,1.18-.29,2.39-.42,3.58-.16.58-.37,1.15-.48,1.73q-4.59,25.75-9.16,51.51c-.73,4.08-.84,4.17-4,1.56-13.9-11.31-27.73-22.71-41.63-34-8.77-7.13-17.64-14.13-26.47-21.18,9-10.64,7.6-22.11-3.72-30.82,10.71-7.36,19.64-17.37,32.33-21.79.52-.1,1.23.17,1.34-.7l-.09.06c2.15.29,3.89-.9,5.77-1.59a139.15,139.15,0,0,0,15.59-5,1.16,1.16,0,0,0,1.17-.71Zm-38,39.81a6.64,6.64,0,0,0-6.84,6.76,6.79,6.79,0,1,0,6.84-6.76Z"/><path class="cls-3" d="M130.44,397.41q-4.6-26.71-9.22-53.43c-1-5.58-1.86-11.17-3-16.72-.67-3.2.28-3.45,3.07-2.54,11.56,3.79,23.18,7.43,34.78,11.1,1.24.4,2.44,1.12,3.83.73l0,0a1.17,1.17,0,0,0,1.17.71,137.71,137.71,0,0,0,15.59,5c1.88.7,3.62,1.9,5.77,1.6l-.09-.06c.11.87.82.61,1.34.7,2.4,1.39,5.37,1.39,7.63,3.1q12.36,9.33,24.7,18.68c-11.32,8.72-12.71,20.25-3.71,30.83-3.56,2.08-6.49,5-9.65,7.54Q182,421.3,161.46,438.07c-6.16,5-12.35,10-18.49,15-1.63,1.33-2.36,1.23-2.7-1-.59-3.93-1.4-7.82-2.11-11.72Q134.31,418.87,130.44,397.41ZM198.11,390a6.91,6.91,0,0,0,6.74-7,6.76,6.76,0,0,0-7.22-6.82,6.85,6.85,0,0,0-6.6,7.13A7,7,0,0,0,198.11,390Z"/><path class="cls-1" d="M196.28,271.33l2.16-3.12c7.35-.52,14.73.35,22.07-.48a10.72,10.72,0,0,0,10.51,0c7.34.8,14.73-.05,22.08.47l2.27,2.85c.88,4.15,2.81,7.94,4.48,11.78a9.12,9.12,0,0,1,0,7.55q-10.43,26.78-20.6,53.65c-.59,1.53-1.68,3-1.17,4.8l0,0c-.6,0-.73.45-.8.92a5.72,5.72,0,0,0-1.52,3.5c-.91,2.48-1.82,5-2.74,7.45-.56,1.1-1.55,2-1.46,3.39l-.22.11a51.15,51.15,0,0,0-11.2,0l-.21-.12c-.23-.28-.46-.57-.7-.85l.08.07a3.49,3.49,0,0,0-.83-2.57l-2.77-7.32c-.5-1.21-1-2.43-1.49-3.64-.08-.48-.21-.91-.81-.93l0,0c.52-1.54-.4-2.8-.9-4.11q-10.35-27.11-20.8-54.16c-1.06-2.73-1.33-5.1,0-7.86C193.52,279,194.79,275.13,196.28,271.33Zm29.63,20.32a11.58,11.58,0,0,0-1.63.77c-1.82,1.26-2.18,2.94-.75,4.61a2.7,2.7,0,0,0,4.41.07c1.48-1.65,1.16-3.32-.61-4.63a10.49,10.49,0,0,0-1.6-.82c.76-.3,1.54-.57,2.28-.9a5.89,5.89,0,0,0,3.71-7c-.57-3.17-2.79-4.7-5.83-4.93a6.19,6.19,0,0,0-2.28,12C224.36,291.11,225.14,291.36,225.91,291.65Zm6.92,63.65a7.07,7.07,0,1,0-7.19,7.05A7.18,7.18,0,0,0,232.83,355.3ZM215.57,282c-1.8.24-2.9,1.23-2.81,3.09a2.76,2.76,0,0,0,3.07,2.84,2.66,2.66,0,0,0,2.79-3.06C218.56,283,217.43,282.12,215.57,282Zm23.28,2.9c-.23-1.54-1-2.81-2.9-2.87a3,3,0,0,0-.25,5.91C237.54,288,238.55,286.94,238.85,284.93Zm-13-6.89c1.77-.22,2.95-1.13,3-3a3.06,3.06,0,1,0-6.1.14C222.82,277,224.05,277.91,225.84,278Z"/><path class="cls-4" d="M238.08,348.84c-.51-1.82.58-3.27,1.17-4.8q10.23-26.85,20.6-53.65a9.12,9.12,0,0,0,0-7.55c-1.67-3.84-3.6-7.63-4.48-11.78Q283.29,273,311.19,275c7.57.54,15.12,1.14,22.68,1.72C321.71,287,309.78,297.54,297,307c-18.53,13.69-37.38,26.94-56.1,40.36C240,348,239.31,348.92,238.08,348.84Z"/><path class="cls-4" d="M196.28,271.33c-1.49,3.8-2.76,7.7-4.53,11.37-1.33,2.76-1.06,5.13,0,7.86q10.5,27,20.8,54.16c.5,1.31,1.42,2.57.9,4.11-1.36.06-2.14-1-3.09-1.68-7.37-5.24-14.65-10.62-22.07-15.8-24.44-17.06-48.23-35-70.64-54.63C143.84,274.68,170,272.65,196.28,271.33Z"/><path class="cls-5" d="M239.31,397c8.83,7.05,17.7,14.05,26.47,21.18,13.9,11.29,27.73,22.69,41.63,34,3.2,2.61,3.31,2.52,4-1.56q4.59-25.75,9.16-51.51c.11-.58.32-1.15.48-1.73,5.82,1,11.64,2,17.48,2.87,2.26.34,2.84,1.12,1.74,3.31q-18.1,36-36.08,72.14c-1.69,3.39-2.76.69-3.74-.36q-22.2-23.55-44.31-47.21Q243.82,415,231.5,401.72A29.67,29.67,0,0,0,239.31,397Z"/><path class="cls-5" d="M130.44,397.41q3.87,21.46,7.72,42.94c.71,3.9,1.52,7.79,2.11,11.72.34,2.25,1.07,2.35,2.7,1,6.14-5,12.33-10,18.49-15q20.56-16.74,41.12-33.5c3.16-2.57,6.09-5.46,9.65-7.54a29,29,0,0,0,7.81,4.69L161.71,464c-4.27,4.56-8.55,9.11-13,13.86-.73-1.19-1.28-2-1.7-2.81q-17.64-35.26-35.24-70.53c-1.86-3.72-1.82-3.74,2.28-4.42Z"/><path class="cls-6" d="M220,401.72a29,29,0,0,1-7.81-4.69c-9-10.58-7.61-22.11,3.71-30.83a12.58,12.58,0,0,0,4.22-2,51.15,51.15,0,0,1,11.2,0,13.55,13.55,0,0,0,4.23,2c11.32,8.71,12.71,20.18,3.72,30.82a29.67,29.67,0,0,1-7.81,4.69A25.92,25.92,0,0,1,220,401.72Zm10-12.39a6.52,6.52,0,0,0,4.21-7.32c-.42-3.2-3.48-6.75-6-7-1.58-.16-2,.53-1.47,1.92.64,1.84,1.66,3.12,3.83,3.26.89.06,2.84.43,1.22,1.83-2.52,2.17-1.55,4.84-1.73,7.37a6.67,6.67,0,0,0-8.73,0c-.3-2.39.18-4.61-1.33-7.15-2.25-3.81,4.3-.88,4.07-4,0-.42.41-.86.57-1.31.51-1.38.12-2.08-1.46-1.9-2.55.28-5.58,3.8-6,7a6.49,6.49,0,0,0,4.2,7.32A5.15,5.15,0,0,0,230.08,389.33Zm-19.54-5.06a15.44,15.44,0,0,0,1.79.09,2.07,2.07,0,0,0,2.15-2,2,2,0,0,0-1.57-2.15,2.06,2.06,0,0,0-2.65,1.26,8.8,8.8,0,0,0-.41,2.09c-.67-.1-1.81-2.53-1.87.36-.2,8.89,8.73,17.21,18.16,16.94,10.07-.3,18-8.9,17.13-18.75l-1.59,1.45a10.35,10.35,0,0,0-.61-2.39,1.91,1.91,0,0,0-2.45-.95,2.05,2.05,0,0,0-1.58,2.14,2,2,0,0,0,1.81,1.93,14,14,0,0,0,2.14,0c.08,1.5-.89,2.48-1.85,3.36-5.86,5.31-12.61,6.92-20.06,4.14C215.41,390.4,211.7,388.68,210.54,384.27Zm15.13,1.4a2.51,2.51,0,0,0,2.68-2.35,2.33,2.33,0,0,0-2.3-2.67,2.41,2.41,0,0,0-2.89,2.46C223.12,384.63,224.16,385.45,225.67,385.67Zm.07-20c-.85,1.63-1.69,2.81-.6,4.23a.83.83,0,0,0,1.28,0C227.44,368.4,226.67,367.23,225.74,365.63Z"/><path class="cls-7" d="M220.16,364.17a12.58,12.58,0,0,1-4.22,2q-12.34-9.33-24.7-18.68c-2.26-1.71-5.23-1.71-7.63-3.1l-1.34-.7.09.06c-.8-1.45-2.31-2.06-3.58-2.9-28.69-18.94-55.49-40.33-81.48-62.77l7.46-.76a4,4,0,0,0,.64,1.24c13.72,11.37,27,23.35,41.28,33.94,22.82,16.91,46.32,32.9,69.56,49.24.92.65,1.66,1.83,3.09,1.5l-.08-.07c-.08.54.27.73.7.85Z"/><path class="cls-7" d="M235.59,366.21a13.55,13.55,0,0,1-4.23-2l.22-.11a7.69,7.69,0,0,0,1.3-.59c38.09-27,77.24-52.67,112.15-84,.7-.63,1.61-1.08,1.75-2.16l7.44.75c-21,17.41-41.44,35.63-64.28,50.79-7.09,4.7-14.24,9.37-20.77,14.88l.09-.06c-.44.24-.89.47-1.34.7C255.23,348.84,246.3,358.85,235.59,366.21Z"/><path class="cls-7" d="M233,360.68c.92-2.48,1.83-5,2.74-7.45a3.48,3.48,0,0,0,1-.35c33.36-24,67.62-46.84,98.4-74.28.62-.56,1.4-1,1.5-1.92l7.34.71c-15.95,13.23-31.37,27.12-48.34,39.09Q264.35,338.57,233,360.68Z"/><path class="cls-7" d="M215.73,353.38l2.77,7.32c-15.17-10.7-30.21-21.6-45.56-32-23-15.62-44.37-33.24-65.44-51.27l7.35-.7c.11.95.87,1.38,1.51,1.91,17.9,14.88,35.52,30.08,54.79,43.23C186.19,332.09,200.88,342.84,215.73,353.38Z"/><path class="cls-4" d="M290.53,337.22a139.65,139.65,0,0,1-15.58,5c1.14-.88,2.26-1.79,3.44-2.63,12.24-8.73,25.06-16.67,36.78-26.1,13.23-10.62,26.13-21.65,39.14-32.54,1-.82,2.31-1.38,2.6-2.85l7.82.85c-1.53,2.49-3.67,3.68-5.45,5.17-14.15,11.84-28.19,23.83-42.64,35.3-6.78,5.37-14.39,9.69-21.6,14.53-1.19.79-2.6,1.32-3.39,2.63l.05,0Z"/><path class="cls-4" d="M176.59,342.18a137.71,137.71,0,0,1-15.59-5l-1.17-.71,0,0c-2.54-2.63-5.76-4.35-8.84-6.18-15.56-9.23-28.73-21.52-42.64-32.87-6.35-5.18-12.63-10.46-18.92-15.73-.86-.72-2.14-1.16-2.28-2.89l7.43-.81c1,2.34,3.28,3.44,5.11,4.91,16.75,13.52,32.45,28.34,50.29,40.52C159,329.61,167.74,336,176.59,342.18Z"/><path class="cls-2" d="M52.85,540.57c-30.66,7.06-53.94-18.5-48.23-41.38C13.34,521.35,28.72,535.46,52.85,540.57Z"/><path class="cls-8" d="M233,360.68q31.32-22.1,62.64-44.2c17-12,32.39-25.86,48.34-39.09l2.76,0c-.14,1.08-1,1.53-1.75,2.16-34.91,31.29-74.06,56.92-112.15,84a7.69,7.69,0,0,1-1.3.59C231.49,362.69,232.48,361.78,233,360.68Z"/><path class="cls-8" d="M107.5,277.39c21.07,18,42.46,35.65,65.44,51.27,15.35,10.44,30.39,21.34,45.56,32a3.49,3.49,0,0,1,.83,2.57c-1.43.33-2.17-.85-3.09-1.5-23.24-16.34-46.74-32.33-69.56-49.24-14.3-10.59-27.56-22.57-41.28-33.94a4,4,0,0,1-.64-1.24Z"/><path class="cls-8" d="M215.73,353.38c-14.85-10.54-29.54-21.29-44.58-31.55-19.27-13.15-36.89-28.35-54.79-43.23-.64-.53-1.4-1-1.51-1.91l2.8,0c22.41,19.68,46.2,37.57,70.64,54.63,7.42,5.18,14.7,10.56,22.07,15.8.95.67,1.73,1.74,3.09,1.68l0,0c0,.57.38.76.81.93C214.73,351,215.23,352.17,215.73,353.38Z"/><path class="cls-8" d="M336.68,276.68c-.1,1-.88,1.36-1.5,1.92-30.78,27.44-65,50.26-98.4,74.28a3.48,3.48,0,0,1-1,.35,5.72,5.72,0,0,1,1.52-3.5c.43-.16.83-.35.8-.92l0,0c1.23.08,1.95-.87,2.8-1.48C259.6,333.94,278.45,320.69,297,307c12.8-9.46,24.73-20,36.89-30.29Z"/><path class="cls-2" d="M447.08,499.41c2.41,12.6-1.26,23.22-10.39,31.8-10.63,10-23.37,12.55-37.57,9.48C422.52,535.49,438.11,521.38,447.08,499.41Zm-38.82,40.48c20.95,1.5,39.15-16.33,37.63-34.56C437.84,522.23,425.54,533.75,408.26,539.89Z"/><path class="cls-8" d="M356.91,278.07c-.29,1.47-1.62,2-2.6,2.85-13,10.89-25.91,21.92-39.14,32.54-11.72,9.43-24.54,17.37-36.78,26.1-1.18.84-2.3,1.75-3.44,2.63-1.89.69-3.63,1.88-5.78,1.59,6.53-5.51,13.68-10.18,20.77-14.88,22.84-15.16,43.24-33.38,64.28-50.78Z"/><path class="cls-8" d="M176.59,342.18C167.74,336,159,329.61,150,323.5c-17.84-12.18-33.54-27-50.29-40.52-1.83-1.47-4.09-2.57-5.11-4.91l2.67,0c26,22.44,52.79,43.83,81.48,62.77,1.27.84,2.78,1.45,3.58,2.9C180.21,344.08,178.47,342.88,176.59,342.18Z"/><path class="cls-3" d="M253.1,268.21c-7.35-.52-14.74.33-22.08-.47,2.85-3,4.09-6.49,2.73-10.61l18,0C252.62,260.76,253.56,264.4,253.1,268.21Z"/><path class="cls-3" d="M220.51,267.73c-7.34.83-14.72,0-22.07.48-.48-3.82.48-7.46,1.31-11.12l18,0C216.42,261.24,217.65,264.7,220.51,267.73Z"/><path class="cls-9" d="M232.75,411a7,7,0,1,1-6.83-7A7,7,0,0,1,232.75,411Z"/><path class="cls-10" d="M283.4,205.82c1.56,5,3.78,7,7.44,6.91,3.5-.1,5.64-2.21,7-6.88a7.74,7.74,0,0,1-1.59,10.23,8.4,8.4,0,0,1-10.9.24C282,213.65,281.29,209.68,283.4,205.82Z"/><path class="cls-10" d="M153.61,205.9c1.6,4.83,3.78,6.86,7.33,6.83s5.75-2.13,7.12-6.82A7.63,7.63,0,0,1,166.57,216a8.44,8.44,0,0,1-10.91.35C152.33,213.75,151.55,209.77,153.61,205.9Z"/><path class="cls-10" d="M290.54,193.07c.82,3.58,3,4.9,7.38,4.23-3.73,2.17-5.5,4.18-3.11,7.77-2.91-2.29-5.39-2.68-8.54,1,1.41-4.06,2-6.91-2.25-8.19C287.44,197.69,290.07,197.08,290.54,193.07Z"/><path class="cls-10" d="M154.38,197.72c4,.53,5.66-1.53,6.59-5.52.83,4.16,2.35,6.3,6.43,5.2-2.82,2.09-4.81,4-2.34,7.63-2.91-2.2-5.39-2.66-8.48,1C157.83,202,158.7,199.1,154.38,197.72Z"/><path class="cls-11" d="M158.91,187c2.92-1.73,4.27-.72,4.38,2.49-1.06,1-2.1,2.06-3.69.95C158.29,189.48,158.27,188.27,158.91,187Z"/><path class="cls-11" d="M288.23,189.42c.13-3.17,1.48-4.2,4.39-2.48.64,1.33.63,2.54-.7,3.46C290.32,191.5,289.28,190.42,288.23,189.42Z"/><path class="cls-6" d="M220.51,267.73c-2.86-3-4.09-6.49-2.72-10.61.44-.5.88-.69,1.31,0,.64,4.26,2.87,6.42,6.65,6.43s6-2.15,6.67-6.41c.43-.7.88-.54,1.33,0,1.36,4.12.12,7.57-2.73,10.61A10.72,10.72,0,0,1,220.51,267.73Z"/><path class="cls-3" d="M232.42,257.15c-.63,4.26-2.88,6.42-6.67,6.41s-6-2.17-6.65-6.43Z"/><path class="cls-12" d="M306.9,160.1a1,1,0,0,1,.74,1.17Z"/><path class="cls-12" d="M143.89,161.28a1,1,0,0,1,.73-1.18Z"/><path class="cls-2" d="M247.43,130.83l.07.06Z"/><path class="cls-2" d="M204,130.89l.21.23-.14-.29Z"/><path class="cls-13" d="M133,136.82a46,46,0,0,1-19-31.58c-2-13.89.29-26.9,9.08-38.26a30.64,30.64,0,0,1,15.38-10.87,27.19,27.19,0,0,0,3.77,16c3.79,6.5,9.25,11.4,15.32,15.64a7.4,7.4,0,0,1,3.58,5,6.65,6.65,0,0,0,9.21,4.89c1.91-.76,3-.53,4.36.9A6.11,6.11,0,0,0,182,99.85c1.55-.71,2.55-.41,3.89.56,3.7,2.66,8.26,1.74,10.34-1.86s.81-7.81-3.39-10a6.6,6.6,0,0,1-3.05-2.88c-5.15-9.44-12.1-17.72-17.57-27-.05-.09-.39,0-.69,0C170,63.91,171,69,171.8,74.13l-.62.51c-4-5.69-7.94-11.39-12-17.06-.51-.71-1-1.9-2.14-1.52-.91.31-.68,1.43-.85,2.22-1.12,5,.3,9.74,1.73,14.45l-.66.63L141.39,55.18a14.14,14.14,0,0,0,10.07-4.55c19.93-20.13,44.12-27.45,72-23.05a12.87,12.87,0,0,0,4.29.08c24.4-4.13,46.4,1.19,65.77,16.77a38.73,38.73,0,0,1,5.58,5.11c2.93,3.51,6.31,5.83,11.05,5.61L293.28,74.59l-.45-.45c2-5.1,3.37-10.3,2.42-15.84-.15-.89.11-2.16-1.11-2.37-.91-.15-1.38.88-1.84,1.54-3.38,4.84-6.7,9.72-10.08,14.55-.68,1-1.08,2.33-2.86,2.69,1.08-5.56,2.29-10.86.3-16.94C274,68.14,266.61,76.39,261.53,86.13a5.86,5.86,0,0,1-2.94,2.48c-4.16,2.07-5.48,6.2-3.3,9.93s6.61,4.55,10.31,1.9c1.31-1,2.29-1.34,3.86-.62A6.31,6.31,0,0,0,277.31,98c1.27-1.5,2.13-1.18,3.61-.53,3.62,1.59,8.18.22,8.92-3.47.9-4.5,4.18-6.14,7.12-8.44a54.47,54.47,0,0,0,8.61-8.22c5.07-6.14,8.24-13,7.33-21.22,10.28,3,16.81,10.22,20.92,19.53,8.58,19.48,5.28,43.1-11.79,58.57-1.06,1-2.3,1.73-3.45,2.59l-.34-.34c.92-5.57,2.38-11.1.9-16.82a26.47,26.47,0,0,0-2.37-6.42c-.59-1.06-1.26-2.29-2.77-1.59-1.31.6-.85,1.83-.62,2.87a30.57,30.57,0,0,1-3.76,22.63c-4.68,8.07-12,12.12-21.55,13.75,2-3.38,3.82-6.13,5.23-9.09,3-6.37,4.71-12.92,1.73-19.88a17.94,17.94,0,0,0-4.32-6.17c-.7-.65-1.37-1.52-2.46-1.17-1.26.41-1.4,1.62-1.43,2.69a25.61,25.61,0,0,1-1.57,8.12c-3.14,8.56-12.8,14.93-21.26,13.79a91.39,91.39,0,0,0,5.69-7.83c4.34-7.45,4.49-15.09.25-22.69-.52-.93-1.06-2.11-2.39-1.84s-1.25,1.6-1.3,2.65c-.39,8-5.11,13-11.62,16.71-.68.4-1.46,1.22-2.25.5s0-1.6.15-2.37c1.3-5.31,1.36-10.48-1.24-15.49-4.78-9.21-15-11.58-23.14-5.17-1.62,1.28-2.6,1.9-4.52.25-4.64-4-10-5.32-15.77-2.52s-8.85,7.7-9.55,14a20.75,20.75,0,0,0,.76,9.31c.23.64.76,1.41.12,2s-1.36,0-2-.32c-6.48-3.69-11.38-8.53-11.91-16.53-.08-1.14.25-2.68-1.31-3s-2,1.13-2.56,2.13c-4.94,8.3-3.47,19,3.7,27.12.79.89,1.61,1.76,2.31,2.52-.1.87-.59,1-1.07,1a22.22,22.22,0,0,1-21.5-20.12c0-.6,0-1.21-.12-1.81-.15-1.17,0-2.57-1.46-3-1.25-.42-2,.65-2.72,1.4a18.51,18.51,0,0,0-5.31,16.89c1.08,6.44,4.22,12,8.45,17.81A23.94,23.94,0,0,1,151.79,147c-10.4-6.09-16-18.66-14-30.67.26-1.53,2-3.94-.63-4.66-2.27-.63-2.65,2-3.33,3.56-2.54,5.73-2.51,11.7-1.21,17.73.25,1.17.44,2.36.66,3.54Z"/><path class="cls-13" d="M411,516.67a180.52,180.52,0,0,0,14.6-50.18,292.6,292.6,0,0,0,2.36-54.8A440,440,0,0,0,420.52,350c-9-47.35-23.6-93-42.42-137.32a647.18,647.18,0,0,0-43.78-86c-1.28-2.08-1-3.51,0-5.58,9.24-19.71,8-38.53-5.16-56.22a28.48,28.48,0,0,0-6.67-6.06c-1.37-1-1.5-1.63-.08-2.65,6.93-5,4.6-6.13,10.16.84,14.79,18.53,27.39,38.51,38.74,59.3a670.88,670.88,0,0,1,47.94,111.53c12.56,38.11,22.07,76.95,27.21,116.78a374,374,0,0,1,2.95,67.47c-1.43,27.65-6.1,54.63-19.12,79.54a114.3,114.3,0,0,1-15.85,22.83,7.7,7.7,0,0,1-3,2.52Z"/><path class="cls-13" d="M40.14,517c-5.82-4.67-10-10.77-13.93-16.93C14.42,481.79,8.51,461.37,5,440.14c-3.43-20.68-3.83-41.55-2.82-62.4A483.57,483.57,0,0,1,13.1,298.33a698.12,698.12,0,0,1,50-148.09c15.19-32.43,32.67-63.48,54.71-91.81.45-.57.89-1.14,1.35-1.7,5.39-6.54,3.15-5.44,10-.53,1.43,1,1.23,1.67-.1,2.65-10.34,7.64-15.36,18.34-17.18,30.7a51.29,51.29,0,0,0,5.52,31.9,4.57,4.57,0,0,1-.2,5.24c-22.31,36.7-40.48,75.4-55.56,115.59A657,657,0,0,0,33.43,338c-4.22,20.06-7.59,40.25-9,60.74-.47,7-1.14,13.94-1.27,20.92-.61,33.47,3.07,66.21,17.36,97Z"/><path class="cls-3" d="M304.21,51.7c-3.76-2.24-6.18-6-9.63-8.58s-6.75-4.95-10.13-7.43c0-.72.05-1.45,0-2.17-.7-10,9.62-22.16,24.07-17.93,8.45,2.47,13.64,10.49,12.89,19.48S314.1,50.3,304.21,51.7Z"/><path class="cls-3" d="M167.08,35.69a160.1,160.1,0,0,0-19.77,16c-.72-.11-1.43-.2-2.15-.33a18.46,18.46,0,0,1,2.1-36.58C159,14.07,167,22.51,167.08,35.69Z"/><path class="cls-13" d="M280.45,33.3c-5-1.59-5.68-2.32-4.65-7.54C277.92,15,284.09,7.33,294.43,3.6S314.55,1.23,323,8.34c13.89,11.71,14.36,30.93,1.82,43.75-3.87,4-7.52,4.44-12.07,2.07a2.86,2.86,0,0,1-.11-.64c10.31-5.71,14.95-15.93,12-26.37a22.53,22.53,0,0,0-22.91-16.33C290.05,11.42,282,19.91,280.45,33.3Z"/><path class="cls-13" d="M138.8,54.17c-6,3.68-10.08.47-13.76-4-7.79-9.41-9.67-20-4.69-31.06,4.89-10.85,13.59-17,25.81-17.25C160.84,1.6,173,11.25,175.66,25c1.08,5.62.51,6.65-4.58,8.26-1.59-13.5-9.81-22.07-21.6-22.5a22.56,22.56,0,0,0-22.55,16.35c-3,10.43,1.66,20.61,12,26.37C138.89,53.74,138.85,54,138.8,54.17Z"/><path class="cls-1" d="M213.94,101.76a12.79,12.79,0,0,1,9.39,4c1.83,1.89,2.8,1.93,4.82.07,6.87-6.32,16-5.15,20.84,2.31,1.06,1.62,1.19,2.64-.71,3.72q-8,4.55-15.85,9.35a2.55,2.55,0,0,1-3.47-.32c-1.87-1.52-4.19-1.8-6-.21s-3.06,1-4.72,0q-7.4-4.51-14.93-8.79c-1.8-1-2-2-.82-3.69C205.35,104.3,208.92,101.78,213.94,101.76Z"/><path class="cls-11" d="M138.8,54.17c0-.21.09-.43.12-.65l1.47.08a1.75,1.75,0,0,0,1,1.58L157.3,73.36l.94,1.24.55.17-.13-.58L158,72.73c-1.44-4.71-2.86-9.43-1.74-14.45.17-.79-.06-1.91.85-2.22,1.14-.38,1.63.81,2.14,1.52,4,5.67,8,11.37,12,17.06l.94,1.29.39.21-.16-.44c-.19-.52-.37-1-.55-1.57C171,69,170,63.91,171.49,58.75c.3,0,.64-.08.69,0,5.47,9.24,12.42,17.52,17.57,27a6.6,6.6,0,0,0,3.05,2.88c4.2,2.14,5.52,6.24,3.39,10s-6.64,4.52-10.34,1.86c-1.34-1-2.34-1.27-3.89-.56a6.11,6.11,0,0,1-7.33-1.36c-1.38-1.43-2.45-1.66-4.36-.9a6.65,6.65,0,0,1-9.21-4.89,7.4,7.4,0,0,0-3.58-5c-6.07-4.24-11.53-9.14-15.32-15.64a27.19,27.19,0,0,1-3.77-16C138.53,55.46,138.66,54.82,138.8,54.17Zm2.5,3.31-.93.47a18.29,18.29,0,0,0,.55,7.09c3.11,10,10.51,16.47,18.71,22.21,1.81,1.27,2.54-.41,3.55-1.32,1.21-1.07.82-2-.12-3.06-3.87-4.45-7.67-9-11.51-13.44Q146.43,63.44,141.3,57.48Zm16.62,2.29a19.9,19.9,0,0,0,1.47,11.54,34.56,34.56,0,0,0,14.29,16.1,2,2,0,0,0,2.59-.3c1.36-1,.37-1.9-.28-2.72-5.5-6.88-10-14.48-15-21.68C160.25,61.67,159.76,60.35,157.92,59.77Zm14.88,3.31c-1.5,8.77,4.85,21.94,11.79,25.68,1.4.75,2.31.12,3.27-.52,1.35-.91.37-1.93-.13-2.8C183.37,77.84,178,70.91,172.8,63.08Zm17.55,26.63a5.84,5.84,0,0,0-5.58,5.13,5.77,5.77,0,0,0,5.2,5.51,5.32,5.32,0,0,0,.38-10.64ZM168,86a4.94,4.94,0,0,0-5.26,5.15,5.14,5.14,0,0,0,5.07,5.41c2.93,0,4.92-2.26,5.06-5.85A4.72,4.72,0,0,0,168,86Zm12.11,2.25a5.06,5.06,0,0,0-5.78,5,5.38,5.38,0,0,0,4.92,5.65c2.79.13,4.08-1.75,4.45-6.51C183.88,89.5,182,88.66,180.06,88.2Z"/><path class="cls-11" d="M312.61,53.52a2.86,2.86,0,0,0,.11.64l.18,2c.91,8.23-2.26,15.08-7.33,21.22A54.47,54.47,0,0,1,297,85.57c-2.94,2.3-6.22,3.94-7.12,8.44-.74,3.69-5.3,5.06-8.92,3.47-1.48-.65-2.34-1-3.61.53a6.31,6.31,0,0,1-7.85,1.81c-1.57-.72-2.55-.33-3.86.62-3.7,2.65-8.19,1.73-10.31-1.9s-.86-7.86,3.3-9.93a5.86,5.86,0,0,0,2.94-2.48c5.08-9.74,12.48-18,18.13-28.36,2,6.08.78,11.38-.3,16.94,1.78-.36,2.18-1.71,2.86-2.69,3.38-4.83,6.7-9.71,10.08-14.55.46-.66.93-1.69,1.84-1.54,1.22.21,1,1.48,1.11,2.37.95,5.54-.42,10.74-2.42,15.85-.17.3-.34.6-.52.9s-.21.5-.31.74l.53-.52.75-.68,16.84-19.44a1.79,1.79,0,0,0,1-1.54ZM311.13,58l-1-.46L288.09,83.27c-1.31,1.53.09,2.32.82,3.36,1,1.45,2,1.31,3.34.39,5.35-3.78,10.42-7.87,14.1-13.38C309.51,68.89,311.86,63.84,311.13,58Zm-17.65,1.62A7.74,7.74,0,0,0,292,60.63c-5.78,8-10.8,16.52-16.94,24.27-.58.73-.82,1.52.09,2.18s1.78,1.2,2.84.08a10.63,10.63,0,0,1,2.79-2.22C288.77,80.84,294.83,69.11,293.48,59.58Zm-14.67,4.17a216.71,216.71,0,0,0-15,21.6c-.58,1-1.48,2.09.07,3.1,1,.69,1.92,1.12,3.22.18C275.57,82.49,278.69,73.84,278.81,63.75Zm4.8,32.75a5.15,5.15,0,0,0,5.22-5.26A5,5,0,0,0,283.69,86a4.72,4.72,0,0,0-5,4.57C278.73,94,280.71,96.45,283.61,96.5ZM266.4,94.9a5.2,5.2,0,0,0-5.32-5.2,5.43,5.43,0,0,0-5,5.25,5.15,5.15,0,1,0,10.28,0Zm5.21-6.72c-1.93.36-4,.92-3.81,3.87.29,4.87,1.66,6.94,4.51,6.82a5.4,5.4,0,0,0,4.92-5.6C277.12,90.16,275,88.08,271.61,88.18Z"/><path class="cls-14" d="M140.39,53.6l-1.47-.08c-10.33-5.76-15-15.94-12-26.37A22.56,22.56,0,0,1,149.48,10.8c11.79.43,20,9,21.6,22.5a7.69,7.69,0,0,1-4,2.39C167,22.51,159,14.07,147.26,14.81a18.46,18.46,0,0,0-2.1,36.58c.72.13,1.43.22,2.15.33C145.44,54,142.62,52.71,140.39,53.6Z"/><path class="cls-14" d="M312.61,53.52l-1.47.09c-2.23-.92-5.08.39-6.93-1.91,9.89-1.4,16.46-7.75,17.2-16.63s-4.44-17-12.89-19.48c-14.45-4.23-24.77,7.89-24.07,17.93.05.72,0,1.45,0,2.17a7.65,7.65,0,0,1-4-2.39c1.58-13.39,9.6-21.88,21.24-22.48A22.53,22.53,0,0,1,324.6,27.15C327.56,37.59,322.92,47.81,312.61,53.52Z"/><path class="cls-13" d="M299.5,244.7a20.65,20.65,0,0,1-7.68-3c-4.21-2.51-5.06-6.37-2.39-10.47,2.38-3.64,6.06-5.81,9.61-8.07,7.11-4.52,14.68-8.31,21.2-13.76,7.69-6.43,9.9-13.68,6.61-23.19-3.51-10.14-10.17-18.25-17.26-26-2.6-2.84-5.46-5.45-8.12-8.24-.81-.85-2.67-1.72-1.24-3.15,1.24-1.24,2.69-.27,3.82.76a98.37,98.37,0,0,1,13.78,15.27c4.78,6.69,9.08,13.64,11.75,21.49s.93,14.88-4.55,21.1c-5.81,6.58-13.5,10.41-20.91,14.67-3.65,2.1-7.45,4-10.45,7.05-4.55,4.65-3.85,9.6,1.79,12.68,1.48.81,2.91,1.68,4.36,2.53Z"/><path class="cls-13" d="M151.72,244.31c1.77-1,3.55-2,5.3-3.07,4.38-2.63,5.18-7.09,1.89-11-2.92-3.5-6.87-5.62-10.77-7.82-7.43-4.22-15.13-8-21.08-14.44s-8-13.9-4.87-22.32c5.28-14.06,14.05-25.73,25-35.83a7.13,7.13,0,0,1,2.47-1.41,1.57,1.57,0,0,1,1.83.83c.38.64,0,1.18-.4,1.62-.91,1-1.87,1.88-2.81,2.81-8.54,8.4-16.64,17.17-21.84,28.13-3.24,6.83-5.3,13.78-.87,21a32,32,0,0,0,10.27,10c6.87,4.46,13.89,8.7,20.78,13.13a17.09,17.09,0,0,1,5.66,5.5c2.26,3.83,1.61,7.23-2,9.74a19.9,19.9,0,0,1-8.25,3.49C151.92,244.57,151.82,244.44,151.72,244.31Z"/><path class="cls-6" d="M251.83,118a6.08,6.08,0,0,1-3.42,6.2c-4.33,2.36-8.51,5-12.73,7.58-1.89,1.14-2.18.64-2.91-1.51-2.08-6.06.81-8.89,5.76-11.13,2.62-1.18,5-3,7.49-4.37,1.41-.78,2.85-2.52,4.51-1.45C252,114.23,251.79,116.27,251.83,118Z"/><path class="cls-6" d="M219.54,125.23c-.22.83-.59,1.87-.77,2.93-.82,4.78-.8,4.78-4.9,2.33-3.62-2.17-7.27-4.29-10.87-6.49-3.17-1.94-4.43-7.37-2.62-10.51.78-1.35,1.61-.76,2.4-.3,5.21,3,10.39,6.13,15.58,9.19C219.38,123,220.1,123.71,219.54,125.23Z"/><path class="cls-3" d="M230.93,129.75c0,5.09-2.21,8.47-5.45,8.35-2.92-.11-4.91-3.58-4.88-8.5s2.14-8.2,5.24-8.15S230.92,124.81,230.93,129.75Z"/><path class="cls-13" d="M315.72,141.89c-1.09,3.32-3.47,5.7-5.87,8.08-2,1.95-3,0-4.1-1.06s-2.49-1.93-.75-3.49c8.57-7.67,11.39-17.5,10.87-28.7,2.64,4.6,2.12,9.53,1.56,14.4A31.68,31.68,0,0,1,315,139.4c-.33.79-1.17,1.81.49,2.22Z"/><path class="cls-13" d="M136.08,141.62c2.15-1,.39-2.25,0-3.2-2.4-6.6-3.27-13.29-1.56-20.19a21,21,0,0,1,1.05-2.45c.65,4.53.06,8.19.79,11.77a30.66,30.66,0,0,0,8.87,16.59c1.57,1.49,3,2.58.61,4.86s-3.68,1.94-5.51-.27-3.72-4.1-4.56-6.83Z"/><path class="cls-13" d="M299.82,244.3c.94.28,2.11,0,2.82,1.36-1.35.36-2.23-.33-3.14-1Z"/><path class="cls-13" d="M152,244.69a4,4,0,0,1-3.07,1c.58-1.39,1.81-1.15,2.76-1.42C151.82,244.44,151.92,244.57,152,244.69Z"/><polygon class="cls-13" points="304.76 246.22 304.76 246.48 304.5 246.35 304.76 246.22"/><path class="cls-13" d="M411.4,517l-.66.48.24-.82Z"/><polygon class="cls-13" points="306.69 247.06 306.95 246.98 306.91 247.21 306.69 247.06"/><path class="cls-13" d="M40.56,516.66l.23.83-.65-.48Z"/><polygon class="cls-13" points="147.01 246.38 146.74 246.47 146.78 246.22 147.01 246.38"/><polygon class="cls-13" points="144.73 247.21 144.5 247.07 144.75 246.98 144.73 247.21"/><path class="cls-13" d="M315.45,141.62c.44-.26.51-.16.27.27Z"/><path class="cls-13" d="M135.81,141.9l-.16-.27h.43Z"/><path class="cls-13" d="M318.58,136.82c-.48.26-.55.1-.34-.34Z"/><path class="cls-15" d="M249.31,125.31c.32-.17.68-.34.86.12.05.15-.18.4-.28.6Z"/><path class="cls-15" d="M201.63,126c-.1-.2-.32-.46-.27-.6.18-.47.54-.29.86-.13Z"/><path class="cls-13" d="M133.29,136.48c.21.43.16.61-.33.34Z"/><path class="cls-16" d="M253.67,376.36a6.78,6.78,0,1,1-6.84,6.76A6.64,6.64,0,0,1,253.67,376.36Z"/><path class="cls-8" d="M267.92,344.42c.45-.23.9-.46,1.34-.7C269.15,344.59,268.44,344.32,267.92,344.42Z"/><path class="cls-12" d="M290.53,337.22l1.17-.71A1.16,1.16,0,0,1,290.53,337.22Z"/><path class="cls-17" d="M198.11,390a7,7,0,0,1-7.08-6.7,6.85,6.85,0,0,1,6.6-7.13,6.76,6.76,0,0,1,7.22,6.82A6.91,6.91,0,0,1,198.11,390Z"/><path class="cls-8" d="M182.27,343.72l1.34.7C183.09,344.33,182.38,344.59,182.27,343.72Z"/><path class="cls-12" d="M159.83,336.51l1.17.71A1.17,1.17,0,0,1,159.83,336.51Z"/><path class="cls-3" d="M232.83,355.3a7.07,7.07,0,1,1-7.12-7.09A7.22,7.22,0,0,1,232.83,355.3Z"/><path class="cls-6" d="M225.91,291.65c-.77-.29-1.55-.54-2.3-.87a6.19,6.19,0,0,1,2.28-12c3,.23,5.26,1.76,5.83,4.93a5.89,5.89,0,0,1-3.71,7c-.74.33-1.52.6-2.28.9Z"/><path class="cls-9" d="M225.91,291.65h-.18a10.49,10.49,0,0,1,1.6.82c1.77,1.31,2.09,3,.61,4.63a2.7,2.7,0,0,1-4.41-.07c-1.43-1.67-1.07-3.35.75-4.61A11.58,11.58,0,0,1,225.91,291.65Z"/><path class="cls-17" d="M215.57,282c1.86.09,3,1,3.05,2.87a2.66,2.66,0,0,1-2.79,3.06,2.76,2.76,0,0,1-3.07-2.84C212.67,283.26,213.77,282.27,215.57,282Z"/><path class="cls-16" d="M238.85,284.93c-.3,2-1.31,3.11-3.15,3a3,3,0,0,1,.25-5.91C237.86,282.12,238.62,283.39,238.85,284.93Z"/><path class="cls-3" d="M225.84,278c-1.79-.13-3-1-3.12-2.84a3.06,3.06,0,1,1,6.1-.14C228.79,276.91,227.61,277.82,225.84,278Z"/><path class="cls-8" d="M220,364.05c-.43-.12-.78-.31-.7-.85C219.49,363.48,219.72,363.77,220,364.05Z"/><path class="cls-4" d="M238.1,348.81c0,.57-.37.76-.8.92C237.37,349.26,237.5,348.83,238.1,348.81Z"/><path class="cls-4" d="M214.24,349.74c-.43-.17-.84-.36-.81-.93C214,348.83,214.16,349.26,214.24,349.74Z"/><path class="cls-10" d="M241.68,383.58l1.59-1.45c.89,9.85-7.06,18.45-17.13,18.75-9.43.27-18.36-8.05-18.16-16.94.06-2.89,1.2-.46,1.87-.36l0,0,.76.77,0,0c1.16,4.41,4.87,6.13,8.54,7.5,7.45,2.78,14.2,1.17,20.06-4.14,1-.88,1.93-1.86,1.85-3.36l0,0,.77-.77Z"/><path class="cls-10" d="M221.45,389.33a6.49,6.49,0,0,1-4.2-7.32c.42-3.21,3.45-6.73,6-7,1.58-.18,2,.52,1.46,1.9-.16.45-.6.89-.57,1.31.23,3.14-6.32.21-4.07,4,1.51,2.54,1,4.76,1.33,7.15Z"/><path class="cls-10" d="M230.13,389.38c.18-2.53-.79-5.2,1.73-7.37,1.62-1.4-.33-1.77-1.22-1.83-2.17-.14-3.19-1.42-3.83-3.26-.49-1.39-.11-2.08,1.47-1.92,2.53.26,5.59,3.81,6,7a6.52,6.52,0,0,1-4.21,7.32Z"/><path class="cls-10" d="M221.4,389.38a6.67,6.67,0,0,1,8.73,0l0-.05a5.15,5.15,0,0,1-8.63,0Z"/><path class="cls-10" d="M225.67,385.67c-1.51-.22-2.55-1-2.51-2.56a2.41,2.41,0,0,1,2.89-2.46,2.33,2.33,0,0,1,2.3,2.67A2.51,2.51,0,0,1,225.67,385.67Z"/><path class="cls-10" d="M209.85,383.58a8.8,8.8,0,0,1,.41-2.09,2.06,2.06,0,0,1,2.65-1.26,2,2,0,0,1,1.57,2.15,2.07,2.07,0,0,1-2.15,2,15.44,15.44,0,0,1-1.79-.09l0,0-.76-.77Z"/><path class="cls-10" d="M241,384.27a14,14,0,0,1-2.14,0,2,2,0,0,1-1.81-1.93,2.05,2.05,0,0,1,1.58-2.14,1.91,1.91,0,0,1,2.45.95,10.35,10.35,0,0,1,.61,2.39l0,0-.77.77Z"/><path class="cls-10" d="M225.74,365.63c.93,1.6,1.7,2.77.68,4.19a.83.83,0,0,1-1.28,0C224.05,368.44,224.89,367.26,225.74,365.63Z"/><path class="cls-13" d="M408.26,539.89c17.28-6.14,29.58-17.66,37.63-34.56C447.41,523.56,429.21,541.39,408.26,539.89Z"/><path class="cls-13" d="M43,539.89c-17.28-6.14-29.58-17.66-37.63-34.56C3.8,523.56,22,541.39,43,539.89Z"/><path class="cls-14" d="M141.3,57.48q5.13,6,10.25,12c3.84,4.48,7.64,9,11.51,13.44.94,1.07,1.33,2,.12,3.06-1,.91-1.74,2.59-3.55,1.32C151.43,81.51,144,75.09,140.92,65a18.29,18.29,0,0,1-.55-7.09Z"/><path class="cls-14" d="M157.92,59.77c1.84.58,2.33,1.9,3.06,2.94,5.05,7.2,9.51,14.8,15,21.68.65.82,1.64,1.71.28,2.72a2,2,0,0,1-2.59.3,34.56,34.56,0,0,1-14.29-16.1A19.9,19.9,0,0,1,157.92,59.77Z"/><path class="cls-14" d="M172.8,63.08c5.21,7.83,10.57,14.76,14.93,22.36.5.87,1.48,1.89.13,2.8-1,.64-1.87,1.27-3.27.52C177.65,85,171.3,71.85,172.8,63.08Z"/><path class="cls-14" d="M190.35,89.71a5.32,5.32,0,0,1-.38,10.64,5.77,5.77,0,0,1-5.2-5.51A5.84,5.84,0,0,1,190.35,89.71Z"/><path class="cls-14" d="M168,86a4.72,4.72,0,0,1,4.87,4.71c-.14,3.59-2.13,5.89-5.06,5.85a5.14,5.14,0,0,1-5.07-5.41A4.94,4.94,0,0,1,168,86Z"/><path class="cls-14" d="M180.06,88.2c1.91.46,3.82,1.3,3.59,4.15-.37,4.76-1.66,6.64-4.45,6.51a5.38,5.38,0,0,1-4.92-5.65A5.06,5.06,0,0,1,180.06,88.2Z"/><path class="cls-13" d="M158.24,74.61l-.94-1.25.66-.63c.24.48.47,1,.7,1.46Z"/><path class="cls-13" d="M171.8,74.13c.18.52.36,1.05.55,1.57l-.23.23-.94-1.29Z"/><path class="cls-13" d="M172.35,75.7l.16.44-.39-.21Z"/><path class="cls-13" d="M158.66,74.19l.13.58-.55-.17Z"/><path class="cls-14" d="M311.13,58c.73,5.88-1.62,10.93-4.78,15.68-3.68,5.51-8.75,9.6-14.1,13.38-1.29.92-2.33,1.06-3.34-.39-.73-1-2.13-1.83-.82-3.36L310.15,57.5Z"/><path class="cls-14" d="M293.48,59.58c1.35,9.53-4.71,21.26-12.66,25.36A10.63,10.63,0,0,0,278,87.16c-1.06,1.12-1.93.58-2.84-.08s-.67-1.45-.09-2.18c6.14-7.75,11.16-16.28,16.94-24.27A7.74,7.74,0,0,1,293.48,59.58Z"/><path class="cls-14" d="M278.81,63.75c-.12,10.09-3.24,18.74-11.74,24.88-1.3.94-2.17.51-3.22-.18-1.55-1-.65-2.12-.07-3.1A216.71,216.71,0,0,1,278.81,63.75Z"/><path class="cls-14" d="M283.61,96.5c-2.9,0-4.88-2.46-4.92-6a4.72,4.72,0,0,1,5-4.57,5,5,0,0,1,5.14,5.29A5.15,5.15,0,0,1,283.61,96.5Z"/><path class="cls-14" d="M266.4,94.9a5.15,5.15,0,1,1-10.28,0,5.43,5.43,0,0,1,5-5.25A5.2,5.2,0,0,1,266.4,94.9Z"/><path class="cls-14" d="M271.61,88.18c3.35-.1,5.51,2,5.62,5.09a5.4,5.4,0,0,1-4.92,5.6c-2.85.12-4.22-2-4.51-6.82C267.62,89.1,269.68,88.54,271.61,88.18Z"/><path class="cls-13" d="M292.53,75.27l-.53.52.31-.73Z"/><path class="cls-13" d="M293.28,74.59l-.75.68-.22-.21.52-.91Z"/><path class="cls-6" d="M209.82,383.54l.76.77Z"/><path class="cls-6" d="M241,384.31l.77-.77Z"/></svg>