<svg xmlns="http://www.w3.org/2000/svg" viewBox="0 0 362.7 461.92"><defs><style>.cls-1{fill:#ffd6cf;}.cls-2{fill:#fdafc6;}.cls-3{fill:#8d564a;}.cls-4{fill:#4ea460;}.cls-5{fill:#fc9eb5;}.cls-6{fill:#62b676;}.cls-7{fill:#51a663;}.cls-8{fill:#eef5ef;}.cls-9{fill:#de799a;}.cls-10{fill:#ab756a;}.cls-11{fill:#d1993e;}.cls-12{fill:#28415a;}.cls-13{fill:#ac766b;}.cls-14{fill:#fdc868;}.cls-15{fill:none;}</style></defs><g id="Capa_1" data-name="Capa 1"><path class="cls-1" d="M284.56,190.09c-2.19,2.82-3.16,6.23-4.26,9.49-4.6,13.77-14.49,23.24-25.55,31.74a7.43,7.43,0,0,0-3.23,6.7c.15,6.6.06,13.21.06,19.81h-52c0-6.74-.06-13.49.06-20.23a6.68,6.68,0,0,0-3-6.1c-12.74-9.3-22.74-20.7-27.36-36.17-.51-1.72-1.17-3.44-2.83-4.49.89-2.53-.13-4.26-2.3-5.53h0c-1.89-3.24-4.41-3.37-7.35-1.48-.69.16-1.22.91-2.06.62-3.7-2.31-5.81-5.93-8-9.53-4.67-7.72-3.66-19.37,6.84-24.18,2.62.17,4.17,2.82,6.83,2.91h.34l-.15-.19c-.5-1.09-1-2.2-1.5-3.28-5.81-11.8-6.05-23.84-1.45-36a14.93,14.93,0,0,1,4.36-6.61c2.1,20.51,12.38,36.81,24,38.24.24-1.57-.86-2.68-1.37-4-3.44-8.72-4.91-17.56-1.62-26.69l9.35,5.07a46.36,46.36,0,0,0,7.1,10.76c3.81,4,8,7.58,13.9,8.09l-.05,0c-1.39-3-4.63-5.06-4.32-8.87,4.48,2.92,9.56,4.88,13.25,9.08,2.09,2.38,5.25,1.86,7.6-.68a15.18,15.18,0,0,1,3.4-3.14q14.3-8.33,28.55-16.71c.2,7.8-3.65,13.93-8.16,20A47.94,47.94,0,0,0,282,118.15c.93,3.25.23,5.75-.11,8.18-1,7.22-4.78,13.16-9.33,18.75,9.34-2.85,16.31-8.61,21.64-16.69,2,11.54-2.1,20.38-12.29,27.14,7.59,1.61,13.92.05,20.16-2.25,9.05,10.62,4.38,19.76-1.57,27.53-.94,1.23-2,2.37-3,3.56a32.68,32.68,0,0,1-4.07-1.15c-2.83-1.19-5-.63-6.42,2.15C285.4,186.51,283.74,187.65,284.56,190.09Z" transform="translate(-2.23 -16.08)"/><path class="cls-2" d="M130.51,397.24q-6.19-35-12.43-69.92c-.52-2.86.37-2.95,2.69-2.19,11.32,3.69,22.66,7.28,34,10.87,1.1.35,2.16,1.1,3.43.65l0-.13c.17.9.93.86,1.58,1,5.26,1.68,10.35,3.94,15.88,4.69l0-.09.92.76c1.85.64,3.59,1.73,5.68,1.43l-.07,0,1.37.79c2.48,1.17,5.36,1.38,7.6,3.06q12.33,9.25,24.6,18.59c-11.38,9.09-12.64,19.89-3.61,30.93a12.21,12.21,0,0,0-2.22,1.14q-16.08,13.08-32.11,26.2c-11.24,9.21-22.46,18.46-33.74,27.62-3.18,2.58-3.25,2.44-3.93-1.41Q135.37,424.22,130.51,397.24Z" transform="translate(-2.23 -16.08)"/><path class="cls-2" d="M292.94,336.65c2.84.11,5.32-1.26,7.91-2.07,10.68-3.32,21.32-6.78,32.77-10.44-4.46,24.82-8.82,49.11-13.19,73.39q-4.79,27.54-9.56,55.07c-.28,1.63-.83,2.23-2.32,1.11-.68-.5-1.39-1-2-1.49-17.75-14.55-35.44-29.15-53.25-43.61-4.65-3.77-9-7.9-14.24-10.95,9-11.23,7.74-21.77-3.63-31,4.94-3.76,9.85-7.57,14.83-11.27,5.44-4,10.45-8.82,17.37-10.37l1.37-.79-.07,0c2.1.31,3.84-.78,5.69-1.42l.91-.75,0,.09c5.54-.75,10.62-3,15.88-4.7.64-.15,1.41-.09,1.58-1Z" transform="translate(-2.23 -16.08)"/><path class="cls-1" d="M196.15,272.05l2.21-3.22H252.8l2.32,3c1.53,4,2.92,8.13,4.63,12.1a7.93,7.93,0,0,1,0,6.52q-10.46,26.88-20.67,53.86c-.63,1.65-1.66,3.25-1.22,5.17l0-.06-.85.86c-.5,1.17-1,2.33-1.51,3.5l-2.7,7.39c-.45.82-1.18,1.54-.91,2.61l.09-.07c-.55,0-.59.44-.64.85l-.05-.08H219.8l-.05.08c0-.42-.09-.83-.64-.86l.09.07c.27-1.06-.46-1.78-.91-2.6l-2.7-7.41-1.53-3.5-.83-.85,0,.06c.44-2.18-.77-4-1.48-5.85Q201.54,316.79,191.18,290a6.79,6.79,0,0,1,0-5.53C193,280.37,194.51,276.19,196.15,272.05Z" transform="translate(-2.23 -16.08)"/><path class="cls-3" d="M208.94,130.2c-.31,3.81,2.93,5.89,4.32,8.87l.05,0c-5.91-.51-10.09-4.07-13.9-8.09a46.36,46.36,0,0,1-7.1-10.76c-.28-.74-.57-1.48-.86-2.22l-.58-.63.06,0q-1.1-5.28-2.2-10.56c-.12-.56,0-1.32-.7-1.53-.86-.25-1.36.52-1.66,1.08-1.18,2.18-2.24,4.42-3.34,6.64,0,.71-.05,1.41-.07,2.12-3.29,9.13-1.82,18,1.62,26.69.51,1.3,1.61,2.41,1.37,4-11.58-1.43-21.86-17.73-24-38.24a14.93,14.93,0,0,0-4.36,6.61c-4.6,12.2-4.36,24.24,1.45,36,.53,1.08,1,2.19,1.5,3.28l-.2.2c-2.65-.09-4.2-2.74-6.82-2.91a92.08,92.08,0,0,1-7.18-7.06c-8.38-10.15-8.9-21.68-5.61-33.82.34-1.26,1.31-2.55.43-4.07-1.89.74-2.66,2.27-3.52,3.69-5.26,8.61-7,18.09-6.86,28,0,1,.42,2.41-.67,3-1.32.71-2.2-.58-3.07-1.32a28.61,28.61,0,0,1-9.93-17.15c-.42-2.43-.71-4.89-1.05-7.32-1.4.06-1.89,1-2.41,1.73-2.9,4.19-7.09,6.13-12,6.56a59.86,59.86,0,0,1-12.62-.21c-12.91-1.58-25.54-4.94-38.54-5.83s-25.39.26-34.47,11.36C12,133.42,9.82,139.4,8.35,145.66c-1,4.42-.41,5,3.9,3.73,10.17-3,19.76-2,28.66,4,1.07.72,2.53,1.39,2.09,3s-2,1.41-3.34,1.46A66.46,66.46,0,0,0,24,160.14c-20.29,5.69-26.92,30.22-12.51,45.78,6.65,7.18,14.74,11.87,23.72,15.37,6.72,2.62,13.71,4.58,20.16,7.91a15,15,0,0,1,7.71,8.21C66,245.49,63,254,55,259.7c-1.4,1-2.84,1.93-4.87,3.31,13,2.29,24.84,1.42,36-4.05a17.59,17.59,0,0,0,9.57-11.22c1.4-4.86-.33-8.81-4.74-11.25-3.26-1.81-6.62-3.48-9.71-5.56-8.55-5.73-11.89-15.49-8.3-24.25,3.37-8.2,10.32-11.9,18.5-13.31,12.16-2.1,24.24-.86,36.17,2,5.56,1.33,10.82,1.46,16-1.83,2.67-1.71,5.52-3.47,8.87-3.8V191c-.73.3-1.72.53-1.35,1.57.31.89,1.35.58,2.09.76l.64,1.19a49.08,49.08,0,0,0-17.54,9.78c-5.46,4.9-5.11,9,.88,13.18,4.88,3.39,10.4,5.57,15.7,8.16a96.5,96.5,0,0,1,12.34,6.76,22.56,22.56,0,0,1,5.62,5.05c3.59,4.83,2.23,10-3.3,12.4-3.69,1.6-7.68,2-11.6,2.57-2.86.44-5.73.82-8.55,1.42-6.89,1.45-8.25,3.31-7.61,10.05-3.82-3.86-3.38-8.28,1.27-10.85,4.39-2.44,9.37-3,14.19-4a38.57,38.57,0,0,0,8.34-2.28c3.38-1.56,4.1-3.7,2.42-7a13,13,0,0,0-4.41-4.68c-4.38-3.08-9.36-4.95-14.19-7.1a72.39,72.39,0,0,1-12.78-6.71c-8.78-6.24-9.32-13.49-1.55-20.93.43-.41.94-.74,2.19-1.71-6.42-1.26-12-2.47-17.55-3.43a73.23,73.23,0,0,0-24.8-.48,34.93,34.93,0,0,0-10.21,3.47c-12.17,6.24-11.92,23.73-1.79,30.54,3.31,2.22,6.84,4,10.34,5.9,5.94,3.21,8,8.67,5.62,15-1.39,3.71-3.51,7-6.9,9-14.18,8.45-29.29,8.88-45.85,4.83,2.95-1.45,5.07-2.41,7.12-3.51A21.28,21.28,0,0,0,61,250.13c3.66-7.95,1-16.13-7-19.72-6.14-2.77-12.55-4.92-18.85-7.33-8.75-3.34-17-7.49-23.47-14.47C3,199.29.07,188.33,3.84,176.19c3.7-11.9,13.39-16.75,24.75-18.91,3.73-.72,7.57-.91,11.33-1.34.2-1.53-.94-1.76-1.67-2.21-9.32-5.72-19-5.25-28.81-1.56-4.14,1.55-4.26,1.5-3.46-2.88a75.19,75.19,0,0,1,2-8.79c5-16.2,16.44-24.76,33.37-25.34,12.16-.42,24,2,35.82,4a169.83,169.83,0,0,0,20.39,2.58c8.77.42,13.94-4.88,18.93-10.76a1.45,1.45,0,0,0,.33-.64c1-5.58,2.78-10.88,7-15.89-6.74.17-10.4,3.32-12.46,8.3-1.25,3-2.19,2.6-4.1.64-12.08-12.36-10.76-31.3,3.16-43.12,8.25-7,17.85-9.7,28.57-8.52,1.17.12,2.71,1,3.43.06.92-1.22-.68-2.34-1.2-3.47-3.22-7-3.25-13.91,1.68-20.09,5.14-6.43,12.18-8.47,20.2-7.77.23,1.51-.82,1.95-1.4,2.64-7.27,8.6-4,19.91,6.81,23.25a19.67,19.67,0,0,0,9.64.5c5.34-1,10.44-2.87,15.67-4.31,2.1-.58,3-2.23,4.11-3.81C206,27.12,216.49,19,230.82,16.54c12-2,23,2.69,26.62,12.38,1.92,5.09,3.81,9.61,7.95,13.46,2.38,2.22,4.08,5.08,7.27,6.55a8.69,8.69,0,0,1,4.13,4.44c1.54,3.59,4.37,5.82,7.27,8.23,11.85,9.86,20.45,22.06,22.49,37.54a60.45,60.45,0,0,0,6.1,19.45c5.34,10.81,4.11,26.28-10.54,34.69-6.24,2.3-12.57,3.86-20.16,2.25,10.19-6.76,14.26-15.6,12.29-27.14-5.33,8.08-12.3,13.84-21.64,16.69,4.55-5.59,8.31-11.53,9.33-18.75.34-2.43,1-4.93.11-8.18a47.94,47.94,0,0,1-28.46,20.6c4.51-6.07,8.36-12.2,8.16-20,.35-.93,1.76-1.84.05-2.81-.24-3-.66-6-2.78-8.35l-1-.65c-.6-3.65-3.67-4.13-6.42-4.64a15,15,0,0,0-10.36,2.19c-2,1.17-3.39,1-5-.77A15.1,15.1,0,0,0,227,98.58l0-1.51a10.71,10.71,0,0,1,7.26,2.82c3.12,3,6,3.15,10.16,1.64,9.17-3.32,16.52,1.31,18.67,10.76,1.56,6.81,0,13.08-2.88,19.19-.53,1.12-1.74,2-1.07,4.1,8.24-4.38,15.83-9.13,20.5-17.45.68-1.22,1.08-3,3-2.49s1.36,2.3,1.48,3.69c.64,7.38-2,13.92-5.19,20.31-.14.36,0,.46.32.32,5.7-2.39,9.56-6.69,12.48-12,.62-1.12,1-2.76,2.71-2.36,1.56.35,1.67,1.93,1.87,3.21,1.34,8.47-.67,16-6.53,22.36-.69.75-1.81,1.26-1.78,2.54,7.56,1.86,18-3.13,22.33-10.54,5.37-9.22,4.29-18.43-.78-27.11a28.66,28.66,0,0,1-4.31-13.2c-1.05-15.62-8.86-28.11-20.2-38.32-9.77-8.79-21.26-13.55-34.77-11.7-2,.28-3.36-.76-4.8-2-8-6.6-16.8-11-27.55-11-8.59,0-16.63,2.3-24.72,4.7-6.67,2-13.21,4.45-20.41,4.2-13-.45-20.21-12.26-14.37-23.94.36-.72,1.28-1.46.68-2.26s-1.77-.35-2.69-.17c-13.95,2.71-19.51,15.1-12.3,27.37.69,1.18,2.24,2.34,1.12,3.84s-2.66.55-4,.31c-13.34-2.37-24.45,1.63-33.44,11.69-8.59,9.63-9.21,24.28-1.49,33.92,1.75,2.19,3,3.14,5,0,2.52-4,6.16-6.79,11.3-6.69,1.09,0,2.27,0,2.83,1.17s-.27,1.78-.82,2.58c-7.68,11.06-8.09,22.6-2,34.41,1.31,2.54,2.86,5.17,5.92,6.58.36-3.52.52-6.77,1.07-10,1.53-8.87,3.93-17.41,10.58-24,1-1,2-2.52,3.62-1.43,1.41.93.61,2.38.29,3.64-.85,3.26-1.93,6.48-2.5,9.79-2.2,12.75,1.06,23.63,11.43,31.89.73.58,1.48,1.7,2.88.9-.75-3-1.64-6-2.22-9.07-2.13-11.21-.68-21.81,5.68-31.49.83-1.27,1.81-3,3.64-2.37s1.19,2.45,1.16,3.8a38.68,38.68,0,0,0,7.18,23.08,33.65,33.65,0,0,0,10.92,10.27c.54-2.05-.34-3.17-.72-4.4-3.63-11.54-2.71-22.57,3.71-33,.86-1.38,1.71-3.38,3.62-3.06s1.41,2.56,1.59,4a40.43,40.43,0,0,0,2.78,11.16c3.24,7.53,7.28,14.42,15,18.24l.21.07-.06-.22c-1.07-3.18-2.43-6.24-3.19-9.55-2.44-10.49,4-27.5,19-29.25,0,.65,0,1.3.07,2-8.15.65-15.28,7.77-16.85,16.8-.15.67-.3,1.35-.46,2-.37,3.63-.51,7.24.86,10.74C207.67,129,208.46,129.52,208.94,130.2ZM164.15,234.45l-.13-.1.09.13c.19.09.26.61.58.16Zm-8.7-5,.52.26-.49-.29-.52-.27Zm13.05,15.17c0,.65-.16,1.52.76,1.61s1.16-.87,1.42-1.6a2.78,2.78,0,0,0,.06-2.9c-.27-1.34-.47-3.31-2.12-3s-.08,1.92-.09,3Zm-34.25-42.15a8.27,8.27,0,0,0-4.81,8.89,4.74,4.74,0,0,0,2,4l-.65-5.4c.55-2.76,2.6-4.69,3.89-7,.61-.31,1.3-.56,1.48-1.32a.47.47,0,0,0-.61-.59C134.82,201.15,134.56,201.84,134.25,202.44ZM253.8,35.71c4.16,1,3.78-1.21,3-3.8-2.37-8-8.77-13-17.62-13.62C223,17.17,211.11,24.86,201.44,37c-.51.65-1.23,1.35-.72,2.25.62,1.1,1.7.66,2.59.44a52.13,52.13,0,0,1,14.27-1.82c2,.07,2.94-1.22,4-2.58,6.55-8.21,17.38-8.51,24.39-.64a4.2,4.2,0,0,0,4.43,1.59C251.6,36,252.8,35.85,253.8,35.71Zm-5.92,9.11a14,14,0,0,0-9.29-13.28c-5.33-1.88-11.74-.14-15,4.1-.93,1.19-2.08,2.43.64,2.9A44.9,44.9,0,0,1,244.59,48c2.21,1.75,2.85.77,3.14-1.39C247.82,45.91,247.85,45.19,247.88,44.82Zm5.54-7c-4.22,0-4.59.43-4.07,4.67a14.5,14.5,0,0,1-.27,5.72c-.63,2.19.28,2.81,2.33,2.68a41.14,41.14,0,0,1,13.23.91c2.39.63,2.67-.38,2.38-2.4A13.89,13.89,0,0,0,253.42,37.77ZM143.32,223.64a10.17,10.17,0,0,0,5.62,2.58A10.78,10.78,0,0,0,143.32,223.64Zm-2-25.55c.07-.57-.21-.81-.57-.71a1.15,1.15,0,0,0-.69.64.46.46,0,0,0,.58.58C140.88,198.53,141.11,198.22,141.28,198.09Zm-2.91,1.6-.24-.2-.21.46c.11,0,.24.07.31,0S138.32,199.79,138.37,199.69Zm-2.27,20.1a.89.89,0,0,0,.32,0s0-.19,0-.29a1.1,1.1,0,0,0-.31,0S136.11,219.7,136.1,219.79ZM162.29,233c0-.09-.06-.22-.12-.26s-.18.05-.27.08.06.22.12.26S162.2,233,162.29,233Z" transform="translate(-2.23 -16.08)"/><path class="cls-4" d="M196.15,272.05c-1.64,4.14-3.2,8.32-4.94,12.42a6.79,6.79,0,0,0,0,5.53q10.38,26.78,20.59,53.64c.71,1.87,1.92,3.67,1.48,5.85-7.95-4.72-15.09-10.6-22.66-15.87-25.25-17.56-49.88-35.94-73-56.26,17.54-1.27,35.07-2.6,52.6-3.79C178.84,273,187.46,271.93,196.15,272.05Z" transform="translate(-2.23 -16.08)"/><path class="cls-4" d="M237.9,349.49c-.44-1.92.59-3.52,1.22-5.17q10.27-27,20.67-53.86a7.93,7.93,0,0,0,0-6.52c-1.71-4-3.1-8.06-4.63-12.1l78.45,5.52c-24.16,21.34-50.14,40.32-76.51,58.78C250.68,340.6,244.68,345.6,237.9,349.49Z" transform="translate(-2.23 -16.08)"/><path class="cls-5" d="M239,397.66c5.2,3,9.58,7.18,14.23,10.95,17.81,14.46,35.5,29.06,53.25,43.61.65.53,1.36,1,2,1.49,1.49,1.12,2,.52,2.32-1.11q4.75-27.54,9.56-55.07c5.93,1.66,12.07,2.14,18.09,3.27,1.44.27,2.93.22,1.76,2.55Q321.56,440.6,302.91,478c-.45-.19-.82-.24-1-.45q-35.29-37.67-70.58-75.36A36.47,36.47,0,0,0,239,397.66Z" transform="translate(-2.23 -16.08)"/><path class="cls-5" d="M130.51,397.24q4.83,27,9.64,54c.68,3.85.75,4,3.93,1.41,11.28-9.16,22.5-18.41,33.74-27.62q16-13.12,32.11-26.2a12.21,12.21,0,0,1,2.22-1.14,35.83,35.83,0,0,0,7.68,4.55l-70.32,75.11a7,7,0,0,1-.85.65c-1.08-.58-1.28-1.72-1.74-2.64-11.81-23.55-23.55-47.15-35.44-70.65-1.52-3-.94-3.74,2.2-4.07,4.54-.48,9-1.39,13.55-2.15C128.38,398.25,129.66,398.31,130.51,397.24Z" transform="translate(-2.23 -16.08)"/><path class="cls-6" d="M219.83,402.2a35.83,35.83,0,0,1-7.68-4.55c-9-11-7.77-21.84,3.61-30.93,1.44-.58,3.29-.39,4-2.22h11.55c.75,1.84,2.6,1.66,4,2.22,11.37,9.18,12.61,19.72,3.63,31a36.15,36.15,0,0,1-7.71,4.52A27.26,27.26,0,0,1,219.83,402.2Z" transform="translate(-2.23 -16.08)"/><path class="cls-4" d="M252.8,268.82H198.36c-.6-3.77.39-7.37,1.2-11h52C252.42,261.45,253.37,265.05,252.8,268.82Z" transform="translate(-2.23 -16.08)"/><path class="cls-7" d="M235.39,366.71c-1.44-.56-3.29-.38-4-2.22l.05.08c.44-.12.77-.31.64-.85l-.09.07c1,.5,1.56-.37,2.19-.81,37.43-26.58,75.89-51.8,110.19-82.55.78-.7,1.91-1.11,2.1-2.34l7.31.69c-20.12,16.73-39.66,34.18-61.44,48.84-7.94,5.34-16,10.61-23.41,16.68l.07,0a1.44,1.44,0,0,0-1.37.79c-6.92,1.55-11.93,6.33-17.37,10.37C245.24,359.14,240.33,363,235.39,366.71Z" transform="translate(-2.23 -16.08)"/><path class="cls-7" d="M219.8,364.5c-.75,1.83-2.6,1.64-4,2.22q-12.3-9.3-24.6-18.59c-2.24-1.68-5.12-1.89-7.6-3.06a1.49,1.49,0,0,0-1.37-.79l.07,0c-4.58-4.08-9.76-7.35-14.84-10.7-24.83-16.37-47.37-35.63-70-54.82l7.29-.7c.13.33.17.77.41,1C119,290.55,132.5,302.64,147,313.37c22.7,16.82,46.07,32.72,69.18,49,.9.64,1.61,1.89,3.06,1.45l-.09-.07c-.14.55.21.74.64.86Z" transform="translate(-2.23 -16.08)"/><path class="cls-7" d="M232.86,361.18l2.7-7.39a4.29,4.29,0,0,0,1-.35c33.32-24,67.52-46.78,98.25-74.18.61-.55,1.42-.93,1.49-1.91l7.36.73c-16.71,13.77-32.81,28.27-50.61,40.69C272.91,332.81,252.91,347,232.86,361.18Z" transform="translate(-2.23 -16.08)"/><path class="cls-7" d="M215.59,353.78l2.7,7.41c-15.14-10.67-30.14-21.55-45.46-31.95-22.94-15.58-44.25-33.19-65.31-51.15l7.36-.74c.39,1.72,2,2.29,3.15,3.29,23.84,21.12,49.65,39.67,75.7,57.88C201,343.61,208,349.16,215.59,353.78Z" transform="translate(-2.23 -16.08)"/><path class="cls-3" d="M299.19,189.66a70.45,70.45,0,0,1,18,9.83c8.9,7,8.7,15.33-.58,21.85-5.85,4.11-12.61,6.47-19.06,9.44-3.73,1.71-7.42,3.49-10.31,6.51-4.29,4.48-3.43,8.46,2.44,10.19,4.25,1.25,8.68,1.94,13,3a44.84,44.84,0,0,1,4.85,1.4c7.54,2.71,8.72,7.62,3.32,13.69l.05.05c.17-.82.32-1.65.53-2.45,1.18-4.38,0-6.85-4.37-8.39-5.14-1.83-10.59-2.08-15.93-2.92a27.89,27.89,0,0,1-7.93-2.29c-4.8-2.34-6-6.94-3.06-11.4,2.19-3.3,5.43-5.38,8.72-7.4,6.27-3.84,13.18-6.42,19.64-9.88a35.66,35.66,0,0,0,7.56-4.85c3.4-3.12,3.65-6.09.66-9.78-3.42-4.22-8.14-6.68-12.85-9.1-2-1-4.15-1.9-6.23-2.84C299.07,193,299.87,191.59,299.19,189.66Z" transform="translate(-2.23 -16.08)"/><path class="cls-4" d="M291.34,337.52c-5.26,1.69-10.34,4-15.88,4.7.84-.67,1.65-1.38,2.52-2,12-8.46,24.34-16.47,35.92-25.47,13.78-10.7,26.91-22.23,40.3-33.42.88-.75,2.13-1.22,2.35-2.59l8.38.82c-2.11,1.83-3.67,3.22-5.27,4.55C345.4,296,331.3,308,316.81,319.56c-6.57,5.23-13.94,9.46-20.91,14.19-1.14.77-2.73,1.16-3,2.9l0-.13C292.07,336.35,291.65,336.85,291.34,337.52Z" transform="translate(-2.23 -16.08)"/><path class="cls-4" d="M175.69,342.21c-5.53-.75-10.62-3-15.88-4.69-.31-.67-.73-1.17-1.58-1l0,.13c-.63-2.27-2.81-2.86-4.46-3.87-23.93-14.61-43.93-34.21-65.68-51.58a10.19,10.19,0,0,1-1.25-1.64l7.75-.82c.23.41.36.94.7,1.21,18,14.41,34.84,30.39,53.89,43.56C158.06,329.66,166.85,336,175.69,342.21Z" transform="translate(-2.23 -16.08)"/><path class="cls-8" d="M107.52,278.09c21.06,18,42.37,35.57,65.31,51.15,15.32,10.4,30.32,21.28,45.46,31.95.45.82,1.18,1.54.91,2.6-1.45.44-2.16-.81-3.06-1.45-23.11-16.25-46.48-32.15-69.18-49-14.46-10.73-27.92-22.82-41.82-34.31-.24-.2-.28-.64-.41-1Z" transform="translate(-2.23 -16.08)"/><path class="cls-8" d="M232.86,361.18c20-14.14,40.05-28.37,60.18-42.41,17.8-12.42,33.9-26.92,50.61-40.69h2.78c-.19,1.23-1.32,1.64-2.1,2.34-34.3,30.75-72.76,56-110.19,82.55-.63.44-1.18,1.31-2.19.81C231.68,362.72,232.41,362,232.86,361.18Z" transform="translate(-2.23 -16.08)"/><path class="cls-8" d="M336.29,277.35c-.07,1-.88,1.36-1.49,1.91-30.73,27.4-64.93,50.2-98.25,74.18a4.29,4.29,0,0,1-1,.35c.5-1.17,1-2.33,1.51-3.5.44-.13.83-.32.85-.86l0,.06c6.78-3.89,12.78-8.89,19.16-13.35,26.37-18.46,52.35-37.44,76.51-58.78Z" transform="translate(-2.23 -16.08)"/><path class="cls-8" d="M215.59,353.78c-7.61-4.62-14.57-10.17-21.86-15.26-26-18.21-51.86-36.76-75.7-57.88-1.12-1-2.76-1.57-3.15-3.29h2.71c23.12,20.32,47.75,38.7,73,56.26,7.57,5.27,14.71,11.15,22.66,15.87l0-.06c0,.54.39.72.83.85Z" transform="translate(-2.23 -16.08)"/><path class="cls-8" d="M175.69,342.21c-8.84-6.23-17.63-12.55-26.53-18.7-19-13.17-35.84-29.15-53.89-43.56-.34-.27-.47-.8-.7-1.21l2.87.05c22.61,19.19,45.15,38.45,70,54.82,5.08,3.35,10.26,6.62,14.84,10.7-2.09.3-3.83-.79-5.68-1.43l-.92-.76Z" transform="translate(-2.23 -16.08)"/><path class="cls-8" d="M356.55,278.74c-.22,1.37-1.47,1.84-2.35,2.59-13.39,11.19-26.52,22.72-40.3,33.42-11.58,9-23.92,17-35.92,25.47-.87.62-1.68,1.33-2.52,2l0-.09-.91.75c-1.85.64-3.59,1.73-5.69,1.42,7.44-6.07,15.47-11.34,23.41-16.68,21.78-14.66,41.32-32.11,61.44-48.84Z" transform="translate(-2.23 -16.08)"/><path class="cls-9" d="M152.44,191v-1.3c-.38-2.25,1-3.73,2.27-5.28.84.29,1.37-.46,2.06-.62l7.35,1.48h0c.17,2.66,1.61,5.23-.29,8-2.71,4-6.05,2.18-9.34,1.5a1.15,1.15,0,0,1-.67-.23l-.64-1.19C152.93,192.59,152.68,191.81,152.44,191Zm7.53,2.82c1.82-6.08,1.81-6.09-3.31-5.18Z" transform="translate(-2.23 -16.08)"/><path class="cls-5" d="M154.49,194.79c3.29.68,6.63,2.45,9.34-1.5,1.9-2.74.46-5.31.29-8,2.17,1.27,3.19,3,2.3,5.53-.63,3.41-2.18,5.53-6,6.24C157.54,197.62,155.85,197.14,154.49,194.79Z" transform="translate(-2.23 -16.08)"/><path class="cls-5" d="M284.56,190.09c-.82-2.44.84-3.58,2.49-4.72v0c.14,2.5-2.26,4.71-.2,7.54,2.79,3.82,6,3.13,9.56,1.81l.14.16c-1.13,1.47-2,3.37-4.47,2.43-2.68-1-6.52-.36-6.78-4.83A10.14,10.14,0,0,0,284.56,190.09Z" transform="translate(-2.23 -16.08)"/><path class="cls-5" d="M299.19,189.66c.68,1.93-.12,3.37-1.54,4.61l-1.1.59-.14-.16c1.83-6.24,1.54-7.59-1.74-9.81-2.72-1.83-5.08.43-7.62.46v0c1.45-2.78,3.59-3.34,6.42-2.15a32.68,32.68,0,0,0,4.07,1.15Z" transform="translate(-2.23 -16.08)"/><polygon class="cls-3" points="308.63 249.45 308.54 249.56 308.67 249.49 308.63 249.45"/><path class="cls-10" d="M154.71,184.46c-1.23,1.55-2.65,3-2.27,5.28-3.35.33-6.2,2.09-8.87,3.8-5.14,3.29-10.4,3.16-16,1.83-11.93-2.86-24-4.1-36.17-2-8.18,1.41-15.13,5.11-18.5,13.31-3.59,8.76-.25,18.52,8.3,24.25,3.09,2.08,6.45,3.75,9.71,5.56,4.41,2.44,6.14,6.39,4.74,11.25A17.59,17.59,0,0,1,86.12,259c-11.19,5.47-23,6.34-36,4.05,2-1.38,3.47-2.31,4.87-3.31,8-5.67,11.07-14.21,8.1-22.29a15,15,0,0,0-7.71-8.21c-6.45-3.33-13.44-5.29-20.16-7.91-9-3.5-17.07-8.19-23.72-15.37C-2.94,190.36,3.69,165.83,24,160.14a66.46,66.46,0,0,1,15.68-2.31c1.29-.05,2.89.19,3.34-1.46s-1-2.29-2.09-3c-8.9-6-18.49-7-28.66-4-4.31,1.28-4.93.69-3.9-3.73,1.47-6.26,3.6-12.24,7.76-17.32,9.08-11.1,21.45-12.25,34.47-11.36s25.63,4.25,38.54,5.83a59.86,59.86,0,0,0,12.62.21c4.86-.43,9.05-2.37,12-6.56.52-.75,1-1.67,2.41-1.73.34,2.43.63,4.89,1.05,7.32a28.61,28.61,0,0,0,9.93,17.15c.87.74,1.75,2,3.07,1.32,1.09-.59.68-2,.67-3-.12-9.94,1.6-19.42,6.86-28,.86-1.42,1.63-2.95,3.52-3.69.88,1.52-.09,2.81-.43,4.07-3.29,12.14-2.77,23.67,5.61,33.82a92.08,92.08,0,0,0,7.18,7.06c-10.5,4.81-11.51,16.46-6.84,24.18C148.9,178.53,151,182.15,154.71,184.46Z" transform="translate(-2.23 -16.08)"/><path class="cls-11" d="M206.84,117.33c.16-.67.31-1.35.46-2,3.73,2.18,7.45,4.37,11.2,6.52,2.82,1.62,5.47.18,5.53-3.16.14-6.72.09-13.44.12-20.16,0-.65-.05-1.3-.07-2,.37-9.47-.15-19,.68-28.41a7.54,7.54,0,0,0-1.43-5.77,2.84,2.84,0,0,1,.5-4.18,2.48,2.48,0,0,1,3.32-.12c1.48,1.11,1.85,2.77.77,4.11-1.79,2.22-1.73,4.71-1.5,7.19.87,9.22.28,18.46.59,27.69l0,1.51c0,6.62,0,13.24.08,19.85.06,3.78,2.67,5.09,6,3.15q12.47-7.31,24.91-14.64l1,.65c-7.18,5-14.9,9.09-22.45,13.45-3.42,2-6.12,3.63-4.07,8.18.49,1.1.12,2.59.15,3.91-.15.39,0,.49.35.35a7.83,7.83,0,0,0,1.7-.53q12.52-7.32,25-14.67a4,4,0,0,0,2.08-2.34c1.71,1,.3,1.88-.05,2.81q-14.28,8.35-28.55,16.71a15.18,15.18,0,0,0-3.4,3.14c-2.35,2.54-5.51,3.06-7.6.68-3.69-4.2-8.77-6.16-13.25-9.08-.48-.68-1.27-1.17-1.24-2.13l10.68,5.86a29.3,29.3,0,0,1,1-8.21,1.73,1.73,0,0,0-.82-2.18C214.67,121.42,211.26,118.43,206.84,117.33Zm24,13.27c0-4.87-2.14-8.17-5.26-8.17s-5.25,3.29-5.27,8.17c0,4.7,2.15,8.31,5.08,8.45C228.49,139.2,230.86,135.53,230.84,130.6Z" transform="translate(-2.23 -16.08)"/><path class="cls-11" d="M191.45,118c.29.74.58,1.48.86,2.22L183,115.1c0-.71,0-1.41.07-2.12a16.17,16.17,0,0,0,7.9,4.37l-.06,0Z" transform="translate(-2.23 -16.08)"/><path class="cls-5" d="M164.12,185.32l-7.35-1.48C159.71,182,162.23,182.08,164.12,185.32Z" transform="translate(-2.23 -16.08)"/><path class="cls-3" d="M213.26,139.07l.05,0Z" transform="translate(-2.23 -16.08)"/><path class="cls-3" d="M160.58,153.46l.15.19h-.34Z" transform="translate(-2.23 -16.08)"/><path class="cls-8" d="M182.19,344.28a1.49,1.49,0,0,1,1.37.79Z" transform="translate(-2.23 -16.08)"/><path class="cls-12" d="M158.23,336.52c.85-.17,1.27.33,1.58,1C159.16,337.38,158.4,337.42,158.23,336.52Z" transform="translate(-2.23 -16.08)"/><path class="cls-4" d="M175.66,342.12l.92.76Z" transform="translate(-2.23 -16.08)"/><path class="cls-8" d="M267.59,345.07a1.44,1.44,0,0,1,1.37-.79Z" transform="translate(-2.23 -16.08)"/><path class="cls-12" d="M291.34,337.52c.31-.67.73-1.17,1.58-1C292.75,337.43,292,337.37,291.34,337.52Z" transform="translate(-2.23 -16.08)"/><path class="cls-4" d="M274.58,342.88l.91-.75Z" transform="translate(-2.23 -16.08)"/><path class="cls-4" d="M214.06,350.28c-.44-.13-.81-.31-.83-.85Z" transform="translate(-2.23 -16.08)"/><path class="cls-4" d="M237.92,349.43c0,.54-.41.73-.85.86Z" transform="translate(-2.23 -16.08)"/><path class="cls-8" d="M219.75,364.58c-.43-.12-.78-.31-.64-.86C219.66,363.75,219.71,364.16,219.75,364.58Z" transform="translate(-2.23 -16.08)"/><path class="cls-8" d="M232,363.72c.13.54-.2.73-.64.85C231.45,364.16,231.49,363.75,232,363.72Z" transform="translate(-2.23 -16.08)"/><path class="cls-13" d="M227,97.07c-.31-9.23.28-18.47-.59-27.69-.23-2.48-.29-5,1.5-7.19,1.08-1.34.71-3-.77-4.11a2.48,2.48,0,0,0-3.32.12,2.84,2.84,0,0,0-.5,4.18,7.54,7.54,0,0,1,1.43,5.77c-.83,9.46-.31,18.94-.68,28.41-14.91,1.75-21.39,18.76-19,29.25.76,3.31,2.12,6.37,3.19,9.55l-.15.15c-7.74-3.82-11.78-10.71-15-18.24a40.43,40.43,0,0,1-2.78-11.16c-.18-1.42.43-3.63-1.59-4s-2.76,1.68-3.62,3.06c-6.42,10.4-7.34,21.43-3.71,33,.38,1.23,1.26,2.35.72,4.4a33.65,33.65,0,0,1-10.92-10.27,38.68,38.68,0,0,1-7.18-23.08c0-1.35.62-3.23-1.16-3.8s-2.81,1.1-3.64,2.37c-6.36,9.68-7.81,20.28-5.68,31.49.58,3,1.47,6,2.22,9.07-1.4.8-2.15-.32-2.88-.9-10.37-8.26-13.63-19.14-11.43-31.89.57-3.31,1.65-6.53,2.5-9.79.32-1.26,1.12-2.71-.29-3.64-1.65-1.09-2.65.46-3.62,1.43-6.65,6.64-9.05,15.18-10.58,24-.55,3.18-.71,6.43-1.07,10-3.06-1.41-4.61-4-5.92-6.58-6.1-11.81-5.69-23.35,2-34.41.55-.8,1.32-1.54.82-2.58s-1.74-1.15-2.83-1.17c-5.14-.1-8.78,2.72-11.3,6.69-2,3.19-3.21,2.24-5,0-7.72-9.64-7.1-24.29,1.49-33.92,9-10.06,20.1-14.06,33.44-11.69,1.38.24,3,1.11,4-.31s-.43-2.66-1.12-3.84c-7.21-12.27-1.65-24.66,12.3-27.37.92-.18,2-.75,2.69.17s-.32,1.54-.68,2.26c-5.84,11.68,1.34,23.49,14.37,23.94,7.2.25,13.74-2.22,20.41-4.2,8.09-2.4,16.13-4.69,24.72-4.7,10.75,0,19.56,4.42,27.55,11,1.44,1.19,2.76,2.23,4.8,2,13.51-1.85,25,2.91,34.77,11.7,11.34,10.21,19.15,22.7,20.2,38.32a28.66,28.66,0,0,0,4.31,13.2c5.07,8.68,6.15,17.89.78,27.11-4.31,7.41-14.77,12.4-22.33,10.54,0-1.28,1.09-1.79,1.78-2.54,5.86-6.38,7.87-13.89,6.53-22.36-.2-1.28-.31-2.86-1.87-3.21-1.74-.4-2.09,1.24-2.71,2.36-2.92,5.29-6.78,9.59-12.48,12l-.32-.32c3.21-6.39,5.83-12.93,5.19-20.31-.12-1.39.27-3.18-1.48-3.69s-2.29,1.27-3,2.49c-4.67,8.32-12.26,13.07-20.5,17.45-.67-2.06.54-3,1.07-4.1,2.89-6.11,4.44-12.38,2.88-19.19-2.15-9.45-9.5-14.08-18.67-10.76-4.15,1.51-7,1.38-10.16-1.64A10.71,10.71,0,0,0,227,97.07Z" transform="translate(-2.23 -16.08)"/><path class="cls-13" d="M253.8,35.71c-1,.14-2.2.25-3.37.5A4.2,4.2,0,0,1,246,34.62c-7-7.87-17.84-7.57-24.39.64-1.09,1.36-2.06,2.65-4,2.58a52.13,52.13,0,0,0-14.27,1.82c-.89.22-2,.66-2.59-.44-.51-.9.21-1.6.72-2.25,9.67-12.11,21.55-19.8,37.75-18.68,8.85.62,15.25,5.65,17.62,13.62C257.58,34.5,258,36.69,253.8,35.71Z" transform="translate(-2.23 -16.08)"/><path class="cls-1" d="M258,106.94q-12.45,7.32-24.91,14.64c-3.31,1.94-5.92.63-6-3.15-.11-6.61-.06-13.23-.08-19.85a15.1,15.1,0,0,1,9.23,5.14c1.57,1.74,3,1.94,5,.77a15,15,0,0,1,10.36-2.19C254.33,102.81,257.4,103.29,258,106.94Z" transform="translate(-2.23 -16.08)"/><path class="cls-14" d="M261.79,115.94a4,4,0,0,1-2.08,2.34q-12.51,7.34-25,14.67a7.83,7.83,0,0,1-1.7.53l-.35-.35c0-1.32.34-2.81-.15-3.91-2.05-4.55.65-6.2,4.07-8.18,7.55-4.36,15.27-8.47,22.45-13.45C261.13,110,261.55,112.93,261.79,115.94Z" transform="translate(-2.23 -16.08)"/><path class="cls-1" d="M224.15,98.51c0,6.72,0,13.44-.12,20.16-.06,3.34-2.71,4.78-5.53,3.16-3.75-2.15-7.47-4.34-11.2-6.52C208.87,106.28,216,99.16,224.15,98.51Z" transform="translate(-2.23 -16.08)"/><path class="cls-6" d="M247.88,44.82c0,.37-.06,1.09-.15,1.8-.29,2.16-.93,3.14-3.14,1.39a44.9,44.9,0,0,0-20.4-9.47c-2.72-.47-1.57-1.71-.64-2.9,3.3-4.24,9.71-6,15-4.1A14,14,0,0,1,247.88,44.82Z" transform="translate(-2.23 -16.08)"/><path class="cls-6" d="M253.42,37.77A13.89,13.89,0,0,1,267,49.35c.29,2,0,3-2.38,2.4a41.14,41.14,0,0,0-13.23-.91c-2,.13-3-.49-2.33-2.68a14.5,14.5,0,0,0,.27-5.72C248.83,38.2,249.2,37.76,253.42,37.77Z" transform="translate(-2.23 -16.08)"/><path class="cls-14" d="M206.84,117.33c4.42,1.1,7.83,4.09,11.71,6.21a1.73,1.73,0,0,1,.82,2.18,29.3,29.3,0,0,0-1,8.21l-10.68-5.86C206.33,124.57,206.47,121,206.84,117.33Z" transform="translate(-2.23 -16.08)"/><path class="cls-14" d="M190.93,117.35A16.17,16.17,0,0,1,183,113c1.1-2.22,2.16-4.46,3.34-6.64.3-.56.8-1.33,1.66-1.08.68.21.58,1,.7,1.53Q189.84,112.07,190.93,117.35Z" transform="translate(-2.23 -16.08)"/><path class="cls-13" d="M129.44,211.33a8.27,8.27,0,0,1,4.81-8.89l.46.46c-1.3,2.34-3.35,4.27-3.89,7Z" transform="translate(-2.23 -16.08)"/><path class="cls-10" d="M143.32,223.64a10.78,10.78,0,0,1,5.62,2.58A10.17,10.17,0,0,1,143.32,223.64Z" transform="translate(-2.23 -16.08)"/><path class="cls-13" d="M168.53,241.7c0-1-1.46-2.62.09-3s1.85,1.62,2.12,3Z" transform="translate(-2.23 -16.08)"/><path class="cls-10" d="M168.53,241.7h2.21a2.78,2.78,0,0,1-.06,2.9H168.5Z" transform="translate(-2.23 -16.08)"/><path class="cls-10" d="M129.44,211.33l1.38-1.4c.2,1.7.4,3.39.64,5.4A4.74,4.74,0,0,1,129.44,211.33Z" transform="translate(-2.23 -16.08)"/><path class="cls-10" d="M152.44,191c.24.77.49,1.55.74,2.33-.74-.18-1.78.13-2.09-.76C150.72,191.57,151.71,191.34,152.44,191Z" transform="translate(-2.23 -16.08)"/><path class="cls-13" d="M168.5,244.59h2.18c-.26.73-.41,1.69-1.42,1.6S168.53,245.24,168.5,244.59Z" transform="translate(-2.23 -16.08)"/><path class="cls-13" d="M134.25,202.44c.31-.6.57-1.29,1.32-1.46a.47.47,0,0,1,.61.59c-.18.76-.87,1-1.47,1.33Z" transform="translate(-2.23 -16.08)"/><path class="cls-13" d="M141.28,198.09c-.17.13-.4.44-.68.51A.46.46,0,0,1,140,198a1.15,1.15,0,0,1,.69-.64C141.07,197.28,141.35,197.52,141.28,198.09Z" transform="translate(-2.23 -16.08)"/><path class="cls-13" d="M138.37,199.69c-.05.1-.07.24-.14.29s-.2,0-.31,0l.21-.46Z" transform="translate(-2.23 -16.08)"/><path class="cls-10" d="M136.1,219.79c0-.09,0-.26,0-.28a1.1,1.1,0,0,1,.31,0c0,.1,0,.27,0,.29A.89.89,0,0,1,136.1,219.79Z" transform="translate(-2.23 -16.08)"/><path class="cls-10" d="M162.29,233c-.09,0-.21.11-.27.08s-.08-.17-.12-.26.21-.11.27-.08S162.25,232.89,162.29,233Z" transform="translate(-2.23 -16.08)"/><path class="cls-10" d="M155.45,229.42l-.49-.3.52.27Z" transform="translate(-2.23 -16.08)"/><path class="cls-10" d="M155.48,229.39l.49.29-.52-.26Z" transform="translate(-2.23 -16.08)"/><path class="cls-13" d="M164.15,234.45l.54.19c-.32.45-.39-.07-.58-.16Z" transform="translate(-2.23 -16.08)"/><path class="cls-14" d="M191.45,118l-.58-.63Z" transform="translate(-2.23 -16.08)"/><polygon class="cls-13" points="206.09 119.29 206.15 119.5 205.94 119.43 206.09 119.29"/><path class="cls-13" d="M279.23,140c-.35.14-.46,0-.32-.32Z" transform="translate(-2.23 -16.08)"/><polygon class="cls-13" points="161.88 218.41 161.79 218.27 161.92 218.37 161.88 218.41"/><path class="cls-13" d="M160,193.86l-3.31-5.18C161.78,187.77,161.79,187.78,160,193.86Z" transform="translate(-2.23 -16.08)"/><path class="cls-9" d="M287.05,185.35c2.54,0,4.9-2.29,7.62-.46,3.28,2.22,3.57,3.57,1.74,9.81-3.55,1.32-6.77,2-9.56-1.81C284.79,190.06,287.19,187.85,287.05,185.35Zm2.15,2.85h0l2.06,5.66,3.18-5.67Z" transform="translate(-2.23 -16.08)"/><path class="cls-6" d="M230.84,130.6c0,4.93-2.35,8.6-5.45,8.45-2.93-.14-5.1-3.75-5.08-8.45,0-4.88,2.14-8.17,5.27-8.17S230.82,125.73,230.84,130.6Z" transform="translate(-2.23 -16.08)"/><path class="cls-14" d="M233,133.48c-.37.14-.5,0-.35-.35Z" transform="translate(-2.23 -16.08)"/><path class="cls-13" d="M289.2,188.2h5.22l-3.18,5.67-2.06-5.66Z" transform="translate(-2.23 -16.08)"/><path class="cls-13" d="M289.18,188.21h0Z" transform="translate(-2.23 -16.08)"/></g><g id="Capa_2" data-name="Capa 2"><rect class="cls-15" x="33.99" y="44.31" width="136.93" height="144.6"/><rect class="cls-15" x="216.98" y="226.02" width="92.14" height="92.14"/></g></svg>